<svg width="38" height="56" viewBox="0 0 38 56" fill="none" xmlns="http://www.w3.org/2000/svg">
<g clip-path="url(#clip0_443_178)">
<path d="M34.0068 13.0266L33.9691 13.004L33.8818 12.9769C33.917 13.0071 33.9609 13.0246 34.0068 13.0266Z" fill="#0D0C22"/>
<path d="M34.0237 13.0206C34.0181 13.0198 34.0126 13.0185 34.0073 13.0166C34.007 13.0203 34.007 13.024 34.0073 13.0277C34.0133 13.0269 34.019 13.0244 34.0237 13.0206Z" fill="#0D0C22"/>
<path d="M34.0071 13.0275H34.0135V13.0234L34.0071 13.0275Z" fill="#0D0C22"/>
<path d="M34.5229 17.0201L34.5866 16.9832L34.6103 16.9696L34.6317 16.9463C34.5913 16.964 34.5545 16.989 34.5229 17.0201Z" fill="#0D0C22"/>
<path d="M34.117 13.114L34.0548 13.0537L34.0127 13.0304C34.0353 13.0711 34.0728 13.1012 34.117 13.114Z" fill="#0D0C22"/>
<path d="M18.4849 51.9359C18.4353 51.9578 18.3918 51.992 18.3584 52.0353L18.3976 52.0099C18.4243 51.9849 18.462 51.9556 18.4849 51.9359Z" fill="#0D0C22"/>
<path d="M27.5623 50.1167C27.5623 50.0598 27.5349 50.0703 27.5416 50.2735C27.5416 50.2573 27.5482 50.2407 27.5512 50.2249C27.5549 50.1886 27.5579 50.1531 27.5623 50.1167Z" fill="#0D0C22"/>
<path d="M26.6209 51.9359C26.5712 51.9578 26.5277 51.992 26.4944 52.0353L26.5336 52.0099C26.5602 51.9849 26.5979 51.9556 26.6209 51.9359Z" fill="#0D0C22"/>
<path d="M12.0924 52.3685C12.0547 52.3353 12.0085 52.3134 11.9592 52.3051C11.9992 52.3248 12.0391 52.3445 12.0657 52.3593L12.0924 52.3685Z" fill="#0D0C22"/>
<path d="M10.6538 50.9652C10.648 50.9061 10.6301 50.8487 10.6013 50.7966C10.6217 50.8505 10.6387 50.9061 10.6523 50.9621L10.6538 50.9652Z" fill="#0D0C22"/>
<path d="M20.3163 25.8692C18.3415 26.7304 16.1003 27.7067 13.1957 27.7067C11.9807 27.7042 10.7715 27.5344 9.60107 27.202L11.61 48.2099C11.6811 49.0877 12.0738 49.9065 12.7101 50.5033C13.3464 51.1001 14.1799 51.4311 15.0448 51.4311C15.0448 51.4311 17.8932 51.5817 18.8437 51.5817C19.8666 51.5817 22.9339 51.4311 22.9339 51.4311C23.7988 51.4311 24.632 51.0996 25.2682 50.5029C25.9044 49.9061 26.297 49.0877 26.3681 48.2099L28.5197 24.9953C27.5581 24.6608 26.5877 24.4386 25.4938 24.4386C23.6018 24.4379 22.0774 25.1016 20.3163 25.8692Z" fill="#FFDD00"/>
<path d="M3.38257 16.9065L3.41659 16.9389L3.43878 16.9525C3.42169 16.9352 3.40285 16.9198 3.38257 16.9065Z" fill="#0D0C22"/>
<path d="M37.8094 14.9676L37.5069 13.4134C37.2355 12.0189 36.6194 10.7013 35.214 10.1973C34.7636 10.036 34.2525 9.96673 33.9071 9.63296C33.5617 9.29924 33.4596 8.78092 33.3797 8.30026C33.2318 7.41805 33.0928 6.5351 32.9411 5.65442C32.8102 4.89726 32.7066 4.04672 32.3657 3.35212C31.9219 2.41945 31.001 1.874 30.0853 1.51314C29.6161 1.33474 29.1373 1.18382 28.6512 1.06112C26.3634 0.446367 23.9581 0.220356 21.6046 0.0915296C18.7797 -0.0672425 15.9472 -0.0194066 13.129 0.234669C11.0314 0.429039 8.82206 0.664093 6.82874 1.40315C6.1002 1.67361 5.34945 1.99831 4.79548 2.57163C4.11573 3.27603 3.89383 4.3654 4.39012 5.24382C4.74295 5.86761 5.34059 6.30834 5.97447 6.5999C6.80011 6.97557 7.66237 7.26144 8.54695 7.45273C11.0099 8.00721 13.561 8.22491 16.0772 8.3176C18.8662 8.43223 21.6596 8.33931 24.4352 8.03957C25.1216 7.96273 25.8068 7.87056 26.4907 7.76311C27.2962 7.63728 27.8132 6.56448 27.5757 5.81713C27.2917 4.92367 26.5284 4.57711 25.6653 4.71197C25.538 4.73228 25.4116 4.75111 25.2843 4.76994L25.1926 4.78351C24.9002 4.82121 24.6078 4.85633 24.3154 4.88899C23.7114 4.95528 23.1058 5.00953 22.4988 5.05173C21.1393 5.14815 19.7762 5.19259 18.4138 5.19486C17.075 5.19486 15.7355 5.15642 14.3997 5.0668C13.7903 5.02612 13.1823 4.97437 12.5758 4.91158C12.2999 4.8822 12.0247 4.85133 11.7496 4.81666L11.4877 4.78277L11.4308 4.77449L11.1594 4.73456C10.6046 4.6494 10.0499 4.5515 9.50107 4.43319C9.44571 4.42067 9.39614 4.38932 9.36064 4.34424C9.32513 4.29918 9.30579 4.24312 9.30579 4.18535C9.30579 4.12756 9.32513 4.07151 9.36064 4.02645C9.39614 3.98138 9.44571 3.95 9.50107 3.93748H9.51143C9.98704 3.83427 10.4663 3.74613 10.9471 3.66928C11.1073 3.64367 11.2681 3.61856 11.4293 3.59395H11.4337C11.7348 3.57361 12.0373 3.51861 12.3368 3.48245C14.9431 3.20633 17.5649 3.11219 20.1838 3.20069C21.4552 3.23836 22.7259 3.31445 23.9914 3.44553C24.2636 3.47416 24.5343 3.5043 24.805 3.5382C24.9086 3.55101 25.0129 3.56607 25.1172 3.57888L25.3272 3.60977C25.9396 3.70269 26.5488 3.81544 27.1549 3.94804C28.0528 4.14692 29.2059 4.21171 29.6053 5.21369C29.7325 5.53161 29.7902 5.88495 29.8605 6.21867L29.95 6.64434C29.9523 6.65196 29.9541 6.6598 29.9552 6.66768C30.1667 7.67217 30.3785 8.67667 30.5905 9.68117C30.6061 9.75538 30.6064 9.83205 30.5916 9.9064C30.5768 9.98078 30.5471 10.0512 30.5043 10.1134C30.4616 10.1755 30.4067 10.228 30.3431 10.2676C30.2796 10.3072 30.2087 10.3329 30.1349 10.3434H30.129L29.9995 10.3615L29.8716 10.3788C29.4662 10.4326 29.0605 10.4828 28.6541 10.5295C27.8538 10.6224 27.0523 10.7027 26.2496 10.7706C24.6544 10.9056 23.056 10.9943 21.4544 11.0365C20.6384 11.0586 19.8225 11.0689 19.007 11.0674C15.7607 11.0648 12.5172 10.8726 9.2925 10.4918C8.94337 10.4496 8.59428 10.4044 8.24514 10.3585C8.51587 10.3939 8.04839 10.3313 7.95374 10.3178C7.73184 10.2861 7.50994 10.2533 7.28805 10.2191C6.54322 10.1053 5.80287 9.9652 5.0595 9.84238C4.16084 9.69172 3.30138 9.76707 2.48851 10.2191C1.82127 10.591 1.28123 11.1613 0.94044 11.8539C0.589847 12.5922 0.485557 13.396 0.328754 14.1894C0.17195 14.9826 -0.0721334 15.8362 0.0203218 16.6506C0.219286 18.4082 1.42564 19.8366 3.16085 20.1561C4.79324 20.4574 6.43451 20.7015 8.0802 20.9094C14.5449 21.7159 21.076 21.8123 27.561 21.1972C28.0891 21.147 28.6164 21.0923 29.143 21.033C29.3075 21.0146 29.474 21.0338 29.6302 21.0895C29.7864 21.1451 29.9284 21.2356 30.0459 21.3543C30.1633 21.473 30.2532 21.6171 30.3089 21.7757C30.3646 21.9344 30.3848 22.1038 30.3679 22.2715L30.2037 23.8973C29.8728 27.1825 29.5419 30.4674 29.2111 33.7521C28.8659 37.2016 28.5185 40.6507 28.1689 44.0995C28.0703 45.071 27.9717 46.0422 27.8731 47.0129C27.7784 47.9691 27.7651 48.9551 27.5868 49.9C27.3057 51.3856 26.3183 52.298 24.8775 52.6317C23.5575 52.9377 22.209 53.0984 20.8553 53.1107C19.3546 53.119 17.8546 53.0511 16.3539 53.0594C14.7518 53.0686 12.7895 52.918 11.5529 51.7035C10.4663 50.6369 10.3161 48.9665 10.1682 47.5221C9.971 45.61 9.7755 43.6983 9.58167 41.7868L8.49442 31.1575L7.79103 24.28C7.77917 24.1663 7.76735 24.054 7.75626 23.9395C7.67192 23.1191 7.10166 22.316 6.20298 22.3574C5.43378 22.392 4.55953 23.058 4.64976 23.9395L5.17118 29.0383L6.24958 39.5855C6.5568 42.5814 6.86326 45.5776 7.16897 48.5746C7.22817 49.1486 7.28362 49.7244 7.34573 50.2984C7.68378 53.4356 10.0358 55.1261 12.9485 55.602C14.6497 55.8809 16.3923 55.9383 18.1186 55.9667C20.3317 56.0031 22.5669 56.0898 24.7436 55.6812C27.9692 55.0783 30.3893 52.8848 30.7347 49.4818C30.8334 48.4993 30.932 47.5168 31.0306 46.5339C31.3585 43.2833 31.6859 40.0325 32.0128 36.7814L33.0824 26.1589L33.5728 21.2906C33.5972 21.0492 33.6973 20.8222 33.8582 20.6433C34.0191 20.4643 34.2323 20.3429 34.4663 20.2969C35.3886 20.1138 36.2703 19.8012 36.9263 19.0862C37.9707 17.9479 38.1785 16.4638 37.8094 14.9676ZM3.11351 16.0178C3.12756 16.011 3.10168 16.1338 3.09058 16.191C3.08836 16.1044 3.0928 16.0276 3.11351 16.0178ZM3.20301 16.7229C3.21041 16.7176 3.23259 16.7478 3.25552 16.784C3.22076 16.7508 3.19857 16.726 3.20227 16.7229H3.20301ZM3.29103 16.8412C3.32283 16.8962 3.33984 16.9309 3.29103 16.8412V16.8412ZM3.4678 16.9874H3.47224C3.47224 16.9927 3.48037 16.9979 3.48333 17.0032C3.47843 16.9974 3.47298 16.9921 3.46706 16.9874H3.4678ZM34.4234 16.7689C34.092 17.0898 33.5927 17.239 33.0994 17.3136C27.5668 18.1498 21.9537 18.5732 16.3605 18.3864C12.3576 18.247 8.3968 17.7942 4.43379 17.2239C4.04546 17.1682 3.6246 17.0958 3.35759 16.8043C2.85463 16.2543 3.10168 15.1469 3.23259 14.4824C3.35242 13.8737 3.58171 13.0623 4.2925 12.9757C5.40197 12.8431 6.69041 13.3199 7.78807 13.4895C9.10955 13.6949 10.436 13.8594 11.7673 13.9829C17.4493 14.5103 23.2266 14.4282 28.8834 13.6567C29.9145 13.5156 30.9418 13.3516 31.9655 13.1648C32.8775 12.9983 33.8886 12.6856 34.4396 13.6477C34.8176 14.3031 34.8679 15.18 34.8095 15.9206C34.7915 16.2432 34.653 16.5467 34.4226 16.7689H34.4234Z" fill="#0D0C22"/>
</g>
<defs>
<clipPath id="clip0_443_178">
<rect width="38" height="56" fill="white"/>
</clipPath>
</defs>
</svg>
