<svg width="76" height="62" viewBox="0 0 76 62" fill="none" xmlns="http://www.w3.org/2000/svg">
<g clip-path="url(#clip0_134_18836)">
<path d="M13.1946 12.0693C13.6638 25.3644 24.5896 36 38.0014 36C51.4131 36 62.3364 25.3644 62.8082 12.0693H13.1946Z" fill="#1A292D"/>
<path d="M37.9988 20.1387C51.7078 20.1387 62.8211 16.5259 62.8211 12.0693C62.8211 7.61277 51.7078 4 37.9988 4C24.2897 4 13.1764 7.61277 13.1764 12.0693C13.1764 16.5259 24.2897 20.1387 37.9988 20.1387Z" fill="#D78D2E"/>
<path d="M37.9988 4C24.2889 4 13.1764 7.61345 13.1764 12.0693C13.1764 16.5252 24.2889 20.1387 37.9988 20.1387C51.7086 20.1387 62.8211 16.5252 62.8211 12.0693C62.8211 7.61345 51.7086 4 37.9988 4ZM37.9988 18.5704C25.0899 18.5704 14.628 15.6284 14.628 11.9968C14.628 8.36517 25.0925 5.42568 37.9988 5.42568C50.905 5.42568 61.3695 8.36776 61.3695 11.9994C61.3695 15.6309 50.905 18.573 37.9988 18.573V18.5704Z" fill="#304044"/>
<path d="M37.9988 6.99393C49.9616 6.99393 59.8169 9.52127 61.1985 12.7822C61.3074 12.5256 61.3696 12.2638 61.3696 11.9968C61.3696 8.36777 50.9051 5.4231 37.9988 5.4231C25.0925 5.4231 14.6281 8.36777 14.6281 11.9968C14.6281 12.2638 14.6903 12.5256 14.7991 12.7822C16.1807 9.52387 26.0361 6.99393 37.9988 6.99393Z" fill="#1A292D"/>
<path d="M55.2184 9.66644C54.2515 9.31909 52.9425 9.10394 51.4961 9.10394C50.0497 9.10394 48.7406 9.31909 47.7738 9.66644H46.1096V11.1232C46.1096 12.2378 48.5203 13.1425 51.4961 13.1425C54.4719 13.1425 56.8826 12.2378 56.8826 11.1232V9.66644H55.2184Z" fill="#E8E8DF"/>
<path d="M51.4961 11.7609C54.471 11.7609 56.8826 10.8568 56.8826 9.7416C56.8826 8.62638 54.471 7.72232 51.4961 7.72232C48.5212 7.72232 46.1096 8.62638 46.1096 9.7416C46.1096 10.8568 48.5212 11.7609 51.4961 11.7609Z" fill="#FFFFF4"/>
<path d="M54.5988 9.345C54.5988 11.0714 48.3491 11.0714 48.3491 9.345C48.3491 7.61863 49.7489 6.21887 51.4752 6.21887C53.2016 6.21887 54.6014 7.61863 54.6014 9.345H54.5988Z" fill="#FCB712"/>
<path d="M52.5096 7.06909C52.6988 7.11057 52.8803 7.17796 53.0462 7.27128L52.7714 7.57974C52.5848 7.48643 52.3826 7.42681 52.17 7.41125L52.5096 7.06909Z" fill="#FFCE6C"/>
<path d="M54.0493 8.3859L53.5957 8.58031C53.5179 8.31591 53.3728 8.07743 53.1862 7.8882L53.4791 7.57455C53.7253 7.79489 53.9223 8.07225 54.0493 8.3859Z" fill="#FFCE6C"/>
<path d="M47.5249 14.3686C46.5762 14.029 45.2957 13.819 43.8804 13.819C42.465 13.819 41.1819 14.029 40.2358 14.3686H38.6053V15.7968C38.6053 16.8907 40.9668 17.7746 43.8804 17.7746C46.7939 17.7746 49.1554 16.8881 49.1554 15.7968V14.3686H47.5249Z" fill="#E8E8DF"/>
<path d="M43.8804 16.419C46.7937 16.419 49.1554 15.5335 49.1554 14.4412C49.1554 13.3488 46.7937 12.4633 43.8804 12.4633C40.967 12.4633 38.6053 13.3488 38.6053 14.4412C38.6053 15.5335 40.967 16.419 43.8804 16.419Z" fill="#FFFFF4"/>
<path d="M46.9183 14.0549C46.9183 15.745 40.7957 15.745 40.7957 14.0549C40.7957 12.3648 42.1669 10.9936 43.857 10.9936C45.5471 10.9936 46.9183 12.3648 46.9183 14.0549Z" fill="#FCB712"/>
<path d="M44.8705 11.8257C45.0545 11.8672 45.2334 11.932 45.3967 12.0227L45.1271 12.326C44.9457 12.2352 44.7461 12.1782 44.5387 12.1601L44.8731 11.8231L44.8705 11.8257Z" fill="#FFCE6C"/>
<path d="M46.3791 13.114L45.9358 13.3032C45.8581 13.044 45.7181 12.8107 45.5341 12.6266L45.8192 12.3182C46.0603 12.5333 46.2547 12.8055 46.3791 13.114Z" fill="#FFCE6C"/>
<path d="M44.2821 9.66903C44.2821 10.737 39.8262 10.737 39.8262 9.66903C39.8262 8.60107 40.8241 7.73529 42.0528 7.73529C43.2815 7.73529 44.2795 8.60107 44.2795 9.66903H44.2821Z" fill="#5EDD7C"/>
<path d="M33.4029 14.3841C33.4029 15.4521 28.947 15.4521 28.947 14.3841C28.947 13.3162 29.945 12.4504 31.1737 12.4504C32.4023 12.4504 33.4003 13.3162 33.4003 14.3841H33.4029Z" fill="#5EDD7C"/>
<path d="M54.1607 15.4884C54.1607 16.2323 51.0527 16.2323 51.0527 15.4884C51.0527 14.7444 51.7474 14.1405 52.6054 14.1405C53.4634 14.1405 54.1581 14.7444 54.1581 15.4884H54.1607Z" fill="#5EDD7C"/>
<path d="M59.2388 12.7355C59.2388 13.2462 57.1055 13.2462 57.1055 12.7355C57.1055 12.2249 57.5824 11.8101 58.1708 11.8101C58.7593 11.8101 59.2362 12.2249 59.2362 12.7355H59.2388Z" fill="#5EDD7C"/>
<path d="M36.555 16.6911C36.555 17.2018 34.4216 17.2018 34.4216 16.6911C34.4216 16.1805 34.8986 15.7657 35.487 15.7657C36.0754 15.7657 36.5524 16.1805 36.5524 16.6911H36.555Z" fill="#5EDD7C"/>
<path d="M38.1647 13.0544C38.1647 13.565 36.0314 13.565 36.0314 13.0544C36.0314 12.5437 36.5083 12.129 37.0967 12.129C37.6852 12.129 38.1621 12.5437 38.1621 13.0544H38.1647Z" fill="#5EDD7C"/>
<path d="M25.9193 16.0664C25.9193 16.5771 23.786 16.5771 23.786 16.0664C23.786 15.5558 24.263 15.141 24.8514 15.141C25.4398 15.141 25.9168 15.5558 25.9168 16.0664H25.9193Z" fill="#5EDD7C"/>
<path d="M37.0993 10.4544C37.0993 13.0155 26.4093 13.0155 26.4093 10.4544C26.4093 7.89338 28.8018 5.81708 31.7543 5.81708C34.7067 5.81708 37.0993 7.89338 37.0993 10.4544Z" fill="#F7AA9C"/>
<path d="M26.7177 13.2021C26.7177 15.7631 16.0277 15.7631 16.0277 13.2021C16.0277 10.6411 18.4203 8.56476 21.3727 8.56476C24.3252 8.56476 26.7177 10.6411 26.7177 13.2021Z" fill="#F7AA9C"/>
<g opacity="0.3">
<path d="M26.7177 13.2021C26.7177 13.2384 26.7151 13.2747 26.7099 13.3084C26.5544 10.8666 24.2241 8.92766 21.3727 8.92766C18.5214 8.92766 16.191 10.8666 16.0355 13.3084C16.0303 13.2747 16.0277 13.241 16.0277 13.2021C16.0277 10.6385 18.4177 8.56735 21.3727 8.56735C24.3278 8.56735 26.7177 10.6411 26.7177 13.2021Z" fill="white"/>
<path d="M42.0554 8.10075C43.1881 8.10075 44.1213 8.83692 44.2639 9.78565C44.2768 9.74936 44.2846 9.71047 44.2846 9.67159C44.2846 8.60363 43.2866 7.73785 42.0579 7.73785C40.8293 7.73785 39.8313 8.60363 39.8313 9.67159C39.8313 9.71047 39.8391 9.74936 39.852 9.78565C39.992 8.83433 40.9252 8.10075 42.0605 8.10075H42.0554Z" fill="white"/>
<path d="M31.1762 12.8133C32.309 12.8133 33.2421 13.5494 33.3847 14.4982C33.3977 14.4619 33.4054 14.423 33.4054 14.3841C33.4054 13.3162 32.4075 12.4504 31.1788 12.4504C29.9501 12.4504 28.9521 13.3162 28.9521 14.3841C28.9521 14.423 28.9599 14.4619 28.9729 14.4982C29.1129 13.5469 30.046 12.8133 31.1814 12.8133H31.1762Z" fill="white"/>
<path d="M52.6081 14.5033C53.3676 14.5033 54.0001 14.9777 54.1349 15.6024C54.153 15.5661 54.1634 15.5298 54.1634 15.4884C54.1634 14.7444 53.4687 14.1404 52.6107 14.1404C51.7527 14.1404 51.058 14.7444 51.058 15.4884C51.058 15.5272 51.0684 15.5661 51.0865 15.6024C51.2213 14.9777 51.8538 14.5033 52.6133 14.5033H52.6081Z" fill="white"/>
<path d="M58.1707 12.173C58.6606 12.173 59.0676 12.4607 59.192 12.8496C59.2179 12.8159 59.2361 12.777 59.2361 12.7355C59.2361 12.2249 58.7591 11.8101 58.1707 11.8101C57.5823 11.8101 57.1053 12.2249 57.1053 12.7355C57.1053 12.777 57.1235 12.8133 57.1494 12.8496C57.2764 12.4607 57.6834 12.173 58.1707 12.173Z" fill="white"/>
<path d="M35.4896 16.1286C35.9795 16.1286 36.3864 16.4163 36.5109 16.8052C36.5368 16.7715 36.5549 16.7326 36.5549 16.6911C36.5549 16.1805 36.078 15.7657 35.4896 15.7657C34.9011 15.7657 34.4242 16.1805 34.4242 16.6911C34.4242 16.7326 34.4423 16.7689 34.4683 16.8052C34.5953 16.4163 35.0022 16.1286 35.4896 16.1286Z" fill="white"/>
<path d="M37.0992 12.4918C37.5891 12.4918 37.9961 12.7796 38.1205 13.1684C38.1464 13.1347 38.1646 13.0958 38.1646 13.0543C38.1646 12.5437 37.6876 12.1289 37.0992 12.1289C36.5108 12.1289 36.0338 12.5437 36.0338 13.0543C36.0338 13.0958 36.052 13.1321 36.0779 13.1684C36.2049 12.7796 36.6119 12.4918 37.0992 12.4918Z" fill="white"/>
<path d="M24.8514 15.5039C25.3413 15.5039 25.7483 15.7917 25.8727 16.1805C25.8986 16.1468 25.9168 16.1079 25.9168 16.0664C25.9168 15.5558 25.4398 15.141 24.8514 15.141C24.263 15.141 23.786 15.5558 23.786 16.0664C23.786 16.1079 23.8042 16.1442 23.8301 16.1805C23.9571 15.7917 24.3641 15.5039 24.8514 15.5039Z" fill="white"/>
<path d="M31.7542 6.18257C34.6081 6.18257 36.9333 8.12409 37.0836 10.5685C37.0888 10.5322 37.0992 10.4959 37.0992 10.457C37.0992 7.89598 34.7066 5.81967 31.7542 5.81967C28.8017 5.81967 26.4092 7.89598 26.4092 10.457C26.4092 10.4959 26.4195 10.5322 26.4247 10.5685C26.5751 8.12668 28.9002 6.18257 31.7542 6.18257Z" fill="white"/>
</g>
</g>
<path d="M26.9944 55.296H23.5024L22.9024 57H21.4744L24.4624 48.648H26.0464L29.0344 57H27.5944L26.9944 55.296ZM26.6104 54.18L25.2544 50.304L23.8864 54.18H26.6104ZM32.7336 57.108C32.2136 57.108 31.7456 57.016 31.3296 56.832C30.9216 56.64 30.5976 56.384 30.3576 56.064C30.1176 55.736 29.9896 55.372 29.9736 54.972H31.3896C31.4136 55.252 31.5456 55.488 31.7856 55.68C32.0336 55.864 32.3416 55.956 32.7096 55.956C33.0936 55.956 33.3896 55.884 33.5976 55.74C33.8136 55.588 33.9216 55.396 33.9216 55.164C33.9216 54.916 33.8016 54.732 33.5616 54.612C33.3296 54.492 32.9576 54.36 32.4456 54.216C31.9496 54.08 31.5456 53.948 31.2336 53.82C30.9216 53.692 30.6496 53.496 30.4176 53.232C30.1936 52.968 30.0816 52.62 30.0816 52.188C30.0816 51.836 30.1856 51.516 30.3936 51.228C30.6016 50.932 30.8976 50.7 31.2816 50.532C31.6736 50.364 32.1216 50.28 32.6256 50.28C33.3776 50.28 33.9816 50.472 34.4376 50.856C34.9016 51.232 35.1496 51.748 35.1816 52.404H33.8136C33.7896 52.108 33.6696 51.872 33.4536 51.696C33.2376 51.52 32.9456 51.432 32.5776 51.432C32.2176 51.432 31.9416 51.5 31.7496 51.636C31.5576 51.772 31.4616 51.952 31.4616 52.176C31.4616 52.352 31.5256 52.5 31.6536 52.62C31.7816 52.74 31.9376 52.836 32.1216 52.908C32.3056 52.972 32.5776 53.056 32.9376 53.16C33.4176 53.288 33.8096 53.42 34.1136 53.556C34.4256 53.684 34.6936 53.876 34.9176 54.132C35.1416 54.388 35.2576 54.728 35.2656 55.152C35.2656 55.528 35.1616 55.864 34.9536 56.16C34.7456 56.456 34.4496 56.688 34.0656 56.856C33.6896 57.024 33.2456 57.108 32.7336 57.108ZM37.4398 49.512C37.1918 49.512 36.9838 49.428 36.8158 49.26C36.6478 49.092 36.5638 48.884 36.5638 48.636C36.5638 48.388 36.6478 48.18 36.8158 48.012C36.9838 47.844 37.1918 47.76 37.4398 47.76C37.6798 47.76 37.8838 47.844 38.0518 48.012C38.2198 48.18 38.3038 48.388 38.3038 48.636C38.3038 48.884 38.2198 49.092 38.0518 49.26C37.8838 49.428 37.6798 49.512 37.4398 49.512ZM38.1118 50.388V57H36.7438V50.388H38.1118ZM39.4518 53.664C39.4518 53 39.5878 52.412 39.8598 51.9C40.1398 51.388 40.5158 50.992 40.9878 50.712C41.4678 50.424 41.9958 50.28 42.5718 50.28C43.0918 50.28 43.5438 50.384 43.9278 50.592C44.3198 50.792 44.6318 51.044 44.8638 51.348V50.388H46.2438V57H44.8638V56.016C44.6318 56.328 44.3158 56.588 43.9158 56.796C43.5158 57.004 43.0598 57.108 42.5478 57.108C41.9798 57.108 41.4598 56.964 40.9878 56.676C40.5158 56.38 40.1398 55.972 39.8598 55.452C39.5878 54.924 39.4518 54.328 39.4518 53.664ZM44.8638 53.688C44.8638 53.232 44.7678 52.836 44.5758 52.5C44.3918 52.164 44.1478 51.908 43.8438 51.732C43.5398 51.556 43.2118 51.468 42.8598 51.468C42.5078 51.468 42.1798 51.556 41.8758 51.732C41.5718 51.9 41.3238 52.152 41.1318 52.488C40.9478 52.816 40.8558 53.208 40.8558 53.664C40.8558 54.12 40.9478 54.52 41.1318 54.864C41.3238 55.208 41.5718 55.472 41.8758 55.656C42.1878 55.832 42.5158 55.92 42.8598 55.92C43.2118 55.92 43.5398 55.832 43.8438 55.656C44.1478 55.48 44.3918 55.224 44.5758 54.888C44.7678 54.544 44.8638 54.144 44.8638 53.688ZM51.3766 50.28C51.8966 50.28 52.3606 50.388 52.7686 50.604C53.1846 50.82 53.5086 51.14 53.7406 51.564C53.9726 51.988 54.0886 52.5 54.0886 53.1V57H52.7326V53.304C52.7326 52.712 52.5846 52.26 52.2886 51.948C51.9926 51.628 51.5886 51.468 51.0766 51.468C50.5646 51.468 50.1566 51.628 49.8526 51.948C49.5566 52.26 49.4086 52.712 49.4086 53.304V57H48.0406V50.388H49.4086V51.144C49.6326 50.872 49.9166 50.66 50.2606 50.508C50.6126 50.356 50.9846 50.28 51.3766 50.28Z" fill="black"/>
<defs>
<clipPath id="clip0_134_18836">
<rect width="49.6473" height="32" fill="white" transform="translate(13.1764 4)"/>
</clipPath>
</defs>
</svg>
