<svg width="76" height="62" viewBox="0 0 76 62" fill="none" xmlns="http://www.w3.org/2000/svg">
<path d="M15.6754 27.578C15.6754 27.578 13.1734 36 30.9753 36C32.2793 36 41.3093 35.972 42.4553 35.92C61.2332 35.054 59.5312 27.522 59.5312 27.522C59.5352 29.99 15.6814 30.05 15.6774 27.58L15.6754 27.578Z" fill="#FFB749"/>
<path d="M59.5292 27.52C59.5292 27.534 59.5292 27.548 59.5252 27.562C59.3452 29.05 49.5992 30.25 37.6032 30.25C25.6073 30.25 16.7733 29.16 15.7673 27.768C15.7073 27.688 15.6753 27.602 15.6753 27.52C15.6753 26.804 17.8953 26.15 21.5293 25.664C25.5333 25.126 31.2532 24.79 37.6032 24.79C48.8832 24.79 58.1732 25.852 59.3912 27.214C59.4812 27.316 59.5292 27.416 59.5292 27.52Z" fill="#C46E00"/>
<g style="mix-blend-mode:darken">
<path d="M59.3913 27.214C57.9993 27.836 56.2113 28.392 53.9213 28.814C52.0254 29.162 49.7814 29.418 47.1294 29.54C45.9834 29.592 36.9534 29.62 35.6494 29.62C33.6154 29.62 31.8454 29.51 30.3074 29.314C25.3894 28.692 22.8354 27.198 21.5334 25.662C25.5374 25.124 31.2574 24.788 37.6074 24.788C48.8874 24.788 58.1773 25.85 59.3953 27.212L59.3913 27.214Z" fill="black" fill-opacity="0.16"/>
</g>
<path d="M20.5511 19.7841C20.5511 19.7841 18.0491 28.206 35.8511 28.206C37.1551 28.206 46.185 28.178 47.331 28.126C66.109 27.26 64.407 19.7281 64.407 19.7281C64.411 22.1961 20.5571 22.2561 20.5531 19.7861L20.5511 19.7841Z" fill="#FFB749"/>
<path d="M64.4051 19.7261C64.4051 21.232 54.5892 22.456 42.4792 22.456C30.3692 22.456 20.5513 21.232 20.5513 19.7261C20.5513 19.3681 21.1013 19.0281 22.1053 18.7141C25.3313 17.7061 33.2372 16.9961 42.4792 16.9961C49.5212 16.9961 55.7872 17.4081 59.7991 18.0521C62.6851 18.5161 64.4031 19.0961 64.4031 19.7261H64.4051Z" fill="#C46E00"/>
<g style="mix-blend-mode:darken">
<path d="M59.7992 18.0521C57.3632 19.5301 53.1832 20.826 46.0312 21.156C44.8872 21.208 35.8552 21.236 34.5532 21.236C28.0913 21.236 24.3073 20.1281 22.1033 18.7141C25.3293 17.7061 33.2352 16.9961 42.4772 16.9961C49.5192 16.9961 55.7852 17.4081 59.7972 18.0521H59.7992Z" fill="black" fill-opacity="0.16"/>
</g>
<path d="M19.4574 11.4001C19.4574 11.4001 16.9554 19.8221 34.7573 19.8221C36.0613 19.8221 45.0913 19.7941 46.2373 19.7421C65.0152 18.8761 63.3132 11.3441 63.3132 11.3441C63.3172 13.8121 19.4634 13.8721 19.4594 11.4021L19.4574 11.4001Z" fill="#FFB749"/>
<path d="M63.3091 11.3421C63.3091 12.8501 53.4912 14.0721 41.3832 14.0721C29.2752 14.0721 19.4573 12.8501 19.4573 11.3421C19.4573 9.83407 29.2332 6.71008 41.3432 6.71008C53.4532 6.71008 63.3111 9.83407 63.3111 11.3421H63.3091Z" fill="#C46E00"/>
<g style="mix-blend-mode:darken">
<path d="M47.0092 8.39009C46.7532 9.44408 45.6172 10.2101 44.4392 10.9601C41.1812 11.1121 37.9752 10.9021 34.8412 10.1981C34.3112 10.0801 33.9152 9.63808 33.8532 9.09808C33.7652 8.33809 33.7652 7.64409 33.9872 7.12409C33.9992 7.08609 34.0212 7.04409 34.0492 7.00009C35.8532 6.67409 40.3812 6.08409 47.0552 6.74009C47.1432 7.41009 47.1732 8.00809 47.0112 8.39009H47.0092Z" fill="black" fill-opacity="0.16"/>
</g>
<path d="M45.1372 10.2261C46.3172 9.47609 47.4512 8.71009 47.7072 7.6561C47.9312 7.1261 47.7892 6.1761 47.6272 5.2001L44.9072 7.4341L45.1392 10.2261H45.1372Z" fill="#FCCF61"/>
<path d="M34.5514 8.36408C34.4634 7.60409 34.4614 6.91209 34.6834 6.39209L45.1373 7.54009C45.3993 8.26408 45.4133 9.15008 45.1373 10.2281C41.8794 10.3801 38.6734 10.1701 35.5394 9.46608C35.0094 9.34608 34.6134 8.90408 34.5494 8.36408H34.5514Z" fill="#FDE77A"/>
<path d="M37.755 4.20608C37.755 4.20608 34.9151 5.68608 34.6851 6.39208C37.965 7.37007 41.471 7.68807 45.139 7.54007L47.627 5.20208C46.663 3.92608 38.593 3.80008 37.755 4.20608Z" fill="#F8C73B"/>
<path d="M40.715 5.20207C40.715 5.20207 39.343 5.00608 39.477 5.41007C39.611 5.81407 39.191 5.91407 40.091 6.15007C40.991 6.38607 41.629 6.15007 42.135 6.15007C42.641 6.15007 43.011 5.23007 42.439 5.20207C41.867 5.17407 40.715 5.20207 40.715 5.20207Z" fill="#FFDA88"/>
<path d="M14.6941 52.716C15.1421 52.796 15.5221 53.032 15.8341 53.424C16.1461 53.816 16.3021 54.26 16.3021 54.756C16.3021 55.18 16.1901 55.564 15.9661 55.908C15.7501 56.244 15.4341 56.512 15.0181 56.712C14.6021 56.904 14.1181 57 13.5661 57H10.2301V48.66H13.4101C13.9781 48.66 14.4661 48.756 14.8741 48.948C15.2821 49.14 15.5901 49.4 15.7981 49.728C16.0061 50.048 16.1101 50.408 16.1101 50.808C16.1101 51.288 15.9821 51.688 15.7261 52.008C15.4701 52.328 15.1261 52.564 14.6941 52.716ZM11.5981 52.164H13.2901C13.7381 52.164 14.0861 52.064 14.3341 51.864C14.5901 51.656 14.7181 51.36 14.7181 50.976C14.7181 50.6 14.5901 50.308 14.3341 50.1C14.0861 49.884 13.7381 49.776 13.2901 49.776H11.5981V52.164ZM13.4461 55.884C13.9101 55.884 14.2741 55.772 14.5381 55.548C14.8021 55.324 14.9341 55.012 14.9341 54.612C14.9341 54.204 14.7941 53.88 14.5141 53.64C14.2341 53.4 13.8621 53.28 13.3981 53.28H11.5981V55.884H13.4461ZM19.1567 51.348C19.3567 51.012 19.6207 50.752 19.9487 50.568C20.2847 50.376 20.6807 50.28 21.1367 50.28V51.696H20.7887C20.2527 51.696 19.8447 51.832 19.5647 52.104C19.2927 52.376 19.1567 52.848 19.1567 53.52V57H17.7887V50.388H19.1567V51.348ZM28.4541 53.532C28.4541 53.78 28.4381 54.004 28.4061 54.204H23.3541C23.3941 54.732 23.5901 55.156 23.9421 55.476C24.2941 55.796 24.7261 55.956 25.2381 55.956C25.9741 55.956 26.4941 55.648 26.7981 55.032H28.2741C28.0741 55.64 27.7101 56.14 27.1821 56.532C26.6621 56.916 26.0141 57.108 25.2381 57.108C24.6061 57.108 24.0381 56.968 23.5341 56.688C23.0381 56.4 22.6461 56 22.3581 55.488C22.0781 54.968 21.9381 54.368 21.9381 53.688C21.9381 53.008 22.0741 52.412 22.3461 51.9C22.6261 51.38 23.0141 50.98 23.5101 50.7C24.0141 50.42 24.5901 50.28 25.2381 50.28C25.8621 50.28 26.4181 50.416 26.9061 50.688C27.3941 50.96 27.7741 51.344 28.0461 51.84C28.3181 52.328 28.4541 52.892 28.4541 53.532ZM27.0261 53.1C27.0181 52.596 26.8381 52.192 26.4861 51.888C26.1341 51.584 25.6981 51.432 25.1781 51.432C24.7061 51.432 24.3021 51.584 23.9661 51.888C23.6301 52.184 23.4301 52.588 23.3661 53.1H27.0261ZM29.3444 53.664C29.3444 53 29.4804 52.412 29.7524 51.9C30.0324 51.388 30.4084 50.992 30.8804 50.712C31.3604 50.424 31.8884 50.28 32.4644 50.28C32.9844 50.28 33.4364 50.384 33.8204 50.592C34.2124 50.792 34.5244 51.044 34.7564 51.348V50.388H36.1364V57H34.7564V56.016C34.5244 56.328 34.2084 56.588 33.8084 56.796C33.4084 57.004 32.9524 57.108 32.4404 57.108C31.8724 57.108 31.3524 56.964 30.8804 56.676C30.4084 56.38 30.0324 55.972 29.7524 55.452C29.4804 54.924 29.3444 54.328 29.3444 53.664ZM34.7564 53.688C34.7564 53.232 34.6604 52.836 34.4684 52.5C34.2844 52.164 34.0404 51.908 33.7364 51.732C33.4324 51.556 33.1044 51.468 32.7524 51.468C32.4004 51.468 32.0724 51.556 31.7684 51.732C31.4644 51.9 31.2164 52.152 31.0244 52.488C30.8404 52.816 30.7484 53.208 30.7484 53.664C30.7484 54.12 30.8404 54.52 31.0244 54.864C31.2164 55.208 31.4644 55.472 31.7684 55.656C32.0804 55.832 32.4084 55.92 32.7524 55.92C33.1044 55.92 33.4324 55.832 33.7364 55.656C34.0404 55.48 34.2844 55.224 34.4684 54.888C34.6604 54.544 34.7564 54.144 34.7564 53.688ZM40.5492 53.7L43.5972 57H41.7492L39.3012 54.156V57H37.9332V48.12H39.3012V53.28L41.7012 50.388H43.5972L40.5492 53.7ZM47.3497 51.504H46.1257V57H44.7457V51.504H43.9657V50.388H44.7457V49.92C44.7457 49.16 44.9457 48.608 45.3457 48.264C45.7537 47.912 46.3897 47.736 47.2537 47.736V48.876C46.8377 48.876 46.5457 48.956 46.3777 49.116C46.2097 49.268 46.1257 49.536 46.1257 49.92V50.388H47.3497V51.504ZM48.1061 53.664C48.1061 53 48.2421 52.412 48.5141 51.9C48.7941 51.388 49.1701 50.992 49.6421 50.712C50.1221 50.424 50.6501 50.28 51.2261 50.28C51.7461 50.28 52.1981 50.384 52.5821 50.592C52.9741 50.792 53.2861 51.044 53.5181 51.348V50.388H54.8981V57H53.5181V56.016C53.2861 56.328 52.9701 56.588 52.5701 56.796C52.1701 57.004 51.7141 57.108 51.2021 57.108C50.6341 57.108 50.1141 56.964 49.6421 56.676C49.1701 56.38 48.7941 55.972 48.5141 55.452C48.2421 54.924 48.1061 54.328 48.1061 53.664ZM53.5181 53.688C53.5181 53.232 53.4221 52.836 53.2301 52.5C53.0461 52.164 52.8021 51.908 52.4981 51.732C52.1941 51.556 51.8661 51.468 51.5141 51.468C51.1621 51.468 50.8341 51.556 50.5301 51.732C50.2261 51.9 49.9781 52.152 49.7861 52.488C49.6021 52.816 49.5101 53.208 49.5101 53.664C49.5101 54.12 49.6021 54.52 49.7861 54.864C49.9781 55.208 50.2261 55.472 50.5301 55.656C50.8421 55.832 51.1701 55.92 51.5141 55.92C51.8661 55.92 52.1941 55.832 52.4981 55.656C52.8021 55.48 53.0461 55.224 53.2301 54.888C53.4221 54.544 53.5181 54.144 53.5181 53.688ZM59.0949 57.108C58.5749 57.108 58.1069 57.016 57.6909 56.832C57.2829 56.64 56.9589 56.384 56.7189 56.064C56.4789 55.736 56.3509 55.372 56.3349 54.972H57.7509C57.7749 55.252 57.9069 55.488 58.1469 55.68C58.3949 55.864 58.7029 55.956 59.0709 55.956C59.4549 55.956 59.7509 55.884 59.9589 55.74C60.1749 55.588 60.2829 55.396 60.2829 55.164C60.2829 54.916 60.1629 54.732 59.9229 54.612C59.6909 54.492 59.3189 54.36 58.8069 54.216C58.3109 54.08 57.9069 53.948 57.5949 53.82C57.2829 53.692 57.0109 53.496 56.7789 53.232C56.5549 52.968 56.4429 52.62 56.4429 52.188C56.4429 51.836 56.5469 51.516 56.7549 51.228C56.9629 50.932 57.2589 50.7 57.6429 50.532C58.0349 50.364 58.4829 50.28 58.9869 50.28C59.7389 50.28 60.3429 50.472 60.7989 50.856C61.2629 51.232 61.5109 51.748 61.5429 52.404H60.1749C60.1509 52.108 60.0309 51.872 59.8149 51.696C59.5989 51.52 59.3069 51.432 58.9389 51.432C58.5789 51.432 58.3029 51.5 58.1109 51.636C57.9189 51.772 57.8229 51.952 57.8229 52.176C57.8229 52.352 57.8869 52.5 58.0149 52.62C58.1429 52.74 58.2989 52.836 58.4829 52.908C58.6669 52.972 58.9389 53.056 59.2989 53.16C59.7789 53.288 60.1709 53.42 60.4749 53.556C60.7869 53.684 61.0549 53.876 61.2789 54.132C61.5029 54.388 61.6189 54.728 61.6269 55.152C61.6269 55.528 61.5229 55.864 61.3149 56.16C61.1069 56.456 60.8109 56.688 60.4269 56.856C60.0509 57.024 59.6069 57.108 59.0949 57.108ZM64.7011 51.504V55.164C64.7011 55.412 64.7571 55.592 64.8691 55.704C64.9891 55.808 65.1891 55.86 65.4691 55.86H66.3091V57H65.2291C64.6131 57 64.1411 56.856 63.8131 56.568C63.4851 56.28 63.3211 55.812 63.3211 55.164V51.504H62.5411V50.388H63.3211V48.744H64.7011V50.388H66.3091V51.504H64.7011Z" fill="black"/>
</svg>
