<svg width="76" height="62" viewBox="0 0 76 62" fill="none" xmlns="http://www.w3.org/2000/svg">
<g clip-path="url(#clip0_134_18824)">
<path d="M53.1769 20.1034H22.8099C20.9073 20.1034 19.365 18.5611 19.365 16.6584V15.7719C19.365 -0.522283 56.6219 -0.522283 56.6219 15.7719V16.6584C56.6219 18.5611 55.0795 20.1034 53.1769 20.1034Z" fill="#EFAD60"/>
<path d="M53.8846 29.0074C55.3751 29.0074 56.6297 27.8202 56.6375 26.3297C56.6375 26.3194 56.6375 26.309 56.6375 26.3012V25.0751C56.6375 23.6339 55.0951 22.4674 53.1925 22.4674H22.8281C20.9255 22.4674 19.3832 23.6365 19.3832 25.0751V26.3012C19.3832 26.3012 19.3832 26.322 19.3832 26.3297C19.391 27.8202 20.6456 29.0074 22.136 29.0074H53.8872H53.8846Z" fill="#9E5528"/>
<path d="M53.8846 35.55C55.3751 35.55 56.6297 34.3628 56.6375 32.8723C56.6375 32.8619 56.6375 32.8516 56.6375 32.8438V31.6177C56.6375 30.1765 55.0951 29.01 53.1925 29.01H22.8281C20.9255 29.01 19.3832 30.1791 19.3832 31.6177V32.8438C19.3832 32.8438 19.3832 32.8645 19.3832 32.8723C19.391 34.3628 20.6456 35.55 22.136 35.55H53.8872H53.8846Z" fill="#EFAD60"/>
<path d="M51.6605 22.4622L32.7119 26.1301L24.3574 22.4622H51.6605Z" fill="#FEE45A"/>
<path d="M28.987 13.0683C28.987 13.0683 25.4254 14.2555 26.7577 15.5853C28.0875 16.9151 28.987 13.0683 28.987 13.0683Z" fill="#EFC9A3"/>
<path d="M34.3398 6.8446C34.3398 6.8446 30.7781 8.03181 32.1105 9.36158C33.4403 10.6913 34.3398 6.8446 34.3398 6.8446Z" fill="#EFC9A3"/>
<path d="M32.8779 12.5032C32.8779 12.5032 30.9571 15.8627 32.839 15.8652C34.7209 15.8678 32.8779 12.5032 32.8779 12.5032Z" fill="#EFC9A3"/>
<path d="M43.1557 12.5032C43.1557 12.5032 41.2349 15.8627 43.1168 15.8652C44.9987 15.8678 43.1557 12.5032 43.1557 12.5032Z" fill="#EFC9A3"/>
<path d="M37.917 12.5032C37.917 12.5032 35.9962 15.8627 37.8781 15.8652C39.76 15.8678 37.917 12.5032 37.917 12.5032Z" fill="#EFC9A3"/>
<path d="M37.917 6.56207C37.917 6.56207 35.9962 9.92149 37.8781 9.92408C39.8274 9.92667 37.917 6.56207 37.917 6.56207Z" fill="#EFC9A3"/>
<path d="M47.0154 13.0683C47.0154 13.0683 50.577 14.2555 49.2446 15.5853C47.9149 16.9151 47.0154 13.0683 47.0154 13.0683Z" fill="#EFC9A3"/>
<path d="M41.4656 6.8446C41.4656 6.8446 45.0272 8.03181 43.6948 9.36158C42.3625 10.6913 41.4656 6.8446 41.4656 6.8446Z" fill="#EFC9A3"/>
<path d="M55.4657 20.119H20.6144C19.9974 20.119 19.4401 20.57 19.3857 21.1869C19.3261 21.8816 19.8704 22.4623 20.5522 22.4623H20.744C21.8119 22.4623 22.5092 23.481 22.2552 24.5178C22.193 24.7667 22.2604 25.0077 22.3796 25.2177C22.7555 25.8735 23.7275 25.9046 24.0723 25.2333C24.1319 25.1192 24.163 24.9948 24.1526 24.8626C24.036 23.5639 25.1066 22.4623 26.4104 22.4623H55.4061C56.023 22.4623 56.5804 22.0112 56.6348 21.3943C56.6944 20.6996 56.1501 20.119 55.4683 20.119H55.4657Z" fill="#E94444"/>
</g>
<path d="M20.1081 52.716C20.5561 52.796 20.9361 53.032 21.2481 53.424C21.5601 53.816 21.7161 54.26 21.7161 54.756C21.7161 55.18 21.6041 55.564 21.3801 55.908C21.1641 56.244 20.8481 56.512 20.4321 56.712C20.0161 56.904 19.5321 57 18.9801 57H15.6441V48.66H18.8241C19.3921 48.66 19.8801 48.756 20.2881 48.948C20.6961 49.14 21.0041 49.4 21.2121 49.728C21.4201 50.048 21.5241 50.408 21.5241 50.808C21.5241 51.288 21.3961 51.688 21.1401 52.008C20.8841 52.328 20.5401 52.564 20.1081 52.716ZM17.0121 52.164H18.7041C19.1521 52.164 19.5001 52.064 19.7481 51.864C20.0041 51.656 20.1321 51.36 20.1321 50.976C20.1321 50.6 20.0041 50.308 19.7481 50.1C19.5001 49.884 19.1521 49.776 18.7041 49.776H17.0121V52.164ZM18.8601 55.884C19.3241 55.884 19.6881 55.772 19.9521 55.548C20.2161 55.324 20.3481 55.012 20.3481 54.612C20.3481 54.204 20.2081 53.88 19.9281 53.64C19.6481 53.4 19.2761 53.28 18.8121 53.28H17.0121V55.884H18.8601ZM29.1907 50.388V57H27.8227V56.22C27.6067 56.492 27.3227 56.708 26.9707 56.868C26.6267 57.02 26.2587 57.096 25.8667 57.096C25.3467 57.096 24.8787 56.988 24.4627 56.772C24.0547 56.556 23.7307 56.236 23.4907 55.812C23.2587 55.388 23.1427 54.876 23.1427 54.276V50.388H24.4987V54.072C24.4987 54.664 24.6467 55.12 24.9427 55.44C25.2387 55.752 25.6427 55.908 26.1547 55.908C26.6667 55.908 27.0707 55.752 27.3667 55.44C27.6707 55.12 27.8227 54.664 27.8227 54.072V50.388H29.1907ZM32.3637 51.348C32.5637 51.012 32.8277 50.752 33.1557 50.568C33.4917 50.376 33.8877 50.28 34.3437 50.28V51.696H33.9957C33.4597 51.696 33.0517 51.832 32.7717 52.104C32.4997 52.376 32.3637 52.848 32.3637 53.52V57H30.9957V50.388H32.3637V51.348ZM38.2652 50.28C38.7772 50.28 39.2292 50.384 39.6212 50.592C40.0212 50.792 40.3332 51.044 40.5572 51.348V50.388H41.9372V57.108C41.9372 57.716 41.8092 58.256 41.5532 58.728C41.2972 59.208 40.9252 59.584 40.4372 59.856C39.9572 60.128 39.3812 60.264 38.7092 60.264C37.8132 60.264 37.0692 60.052 36.4772 59.628C35.8852 59.212 35.5492 58.644 35.4692 57.924H36.8252C36.9292 58.268 37.1492 58.544 37.4852 58.752C37.8292 58.968 38.2372 59.076 38.7092 59.076C39.2612 59.076 39.7052 58.908 40.0412 58.572C40.3852 58.236 40.5572 57.748 40.5572 57.108V56.004C40.3252 56.316 40.0092 56.58 39.6092 56.796C39.2172 57.004 38.7692 57.108 38.2652 57.108C37.6892 57.108 37.1612 56.964 36.6812 56.676C36.2092 56.38 35.8332 55.972 35.5532 55.452C35.2812 54.924 35.1452 54.328 35.1452 53.664C35.1452 53 35.2812 52.412 35.5532 51.9C35.8332 51.388 36.2092 50.992 36.6812 50.712C37.1612 50.424 37.6892 50.28 38.2652 50.28ZM40.5572 53.688C40.5572 53.232 40.4612 52.836 40.2692 52.5C40.0852 52.164 39.8412 51.908 39.5372 51.732C39.2332 51.556 38.9052 51.468 38.5532 51.468C38.2012 51.468 37.8732 51.556 37.5692 51.732C37.2652 51.9 37.0172 52.152 36.8252 52.488C36.6412 52.816 36.5492 53.208 36.5492 53.664C36.5492 54.12 36.6412 54.52 36.8252 54.864C37.0172 55.208 37.2652 55.472 37.5692 55.656C37.8812 55.832 38.2092 55.92 38.5532 55.92C38.9052 55.92 39.2332 55.832 39.5372 55.656C39.8412 55.48 40.0852 55.224 40.2692 54.888C40.4612 54.544 40.5572 54.144 40.5572 53.688ZM49.794 53.532C49.794 53.78 49.778 54.004 49.746 54.204H44.694C44.734 54.732 44.93 55.156 45.282 55.476C45.634 55.796 46.066 55.956 46.578 55.956C47.314 55.956 47.834 55.648 48.138 55.032H49.614C49.414 55.64 49.05 56.14 48.522 56.532C48.002 56.916 47.354 57.108 46.578 57.108C45.946 57.108 45.378 56.968 44.874 56.688C44.378 56.4 43.986 56 43.698 55.488C43.418 54.968 43.278 54.368 43.278 53.688C43.278 53.008 43.414 52.412 43.686 51.9C43.966 51.38 44.354 50.98 44.85 50.7C45.354 50.42 45.93 50.28 46.578 50.28C47.202 50.28 47.758 50.416 48.246 50.688C48.734 50.96 49.114 51.344 49.386 51.84C49.658 52.328 49.794 52.892 49.794 53.532ZM48.366 53.1C48.358 52.596 48.178 52.192 47.826 51.888C47.474 51.584 47.038 51.432 46.518 51.432C46.046 51.432 45.642 51.584 45.306 51.888C44.97 52.184 44.77 52.588 44.706 53.1H48.366ZM52.5082 51.348C52.7082 51.012 52.9722 50.752 53.3002 50.568C53.6362 50.376 54.0322 50.28 54.4882 50.28V51.696H54.1402C53.6042 51.696 53.1962 51.832 52.9162 52.104C52.6442 52.376 52.5082 52.848 52.5082 53.52V57H51.1402V50.388H52.5082V51.348ZM58.1457 57.108C57.6257 57.108 57.1577 57.016 56.7417 56.832C56.3337 56.64 56.0097 56.384 55.7697 56.064C55.5297 55.736 55.4017 55.372 55.3857 54.972H56.8017C56.8257 55.252 56.9577 55.488 57.1977 55.68C57.4457 55.864 57.7537 55.956 58.1217 55.956C58.5057 55.956 58.8017 55.884 59.0097 55.74C59.2257 55.588 59.3337 55.396 59.3337 55.164C59.3337 54.916 59.2137 54.732 58.9737 54.612C58.7417 54.492 58.3697 54.36 57.8577 54.216C57.3617 54.08 56.9577 53.948 56.6457 53.82C56.3337 53.692 56.0617 53.496 55.8297 53.232C55.6057 52.968 55.4937 52.62 55.4937 52.188C55.4937 51.836 55.5977 51.516 55.8057 51.228C56.0137 50.932 56.3097 50.7 56.6937 50.532C57.0857 50.364 57.5337 50.28 58.0377 50.28C58.7897 50.28 59.3937 50.472 59.8497 50.856C60.3137 51.232 60.5617 51.748 60.5937 52.404H59.2257C59.2017 52.108 59.0817 51.872 58.8657 51.696C58.6497 51.52 58.3577 51.432 57.9897 51.432C57.6297 51.432 57.3537 51.5 57.1617 51.636C56.9697 51.772 56.8737 51.952 56.8737 52.176C56.8737 52.352 56.9377 52.5 57.0657 52.62C57.1937 52.74 57.3497 52.836 57.5337 52.908C57.7177 52.972 57.9897 53.056 58.3497 53.16C58.8297 53.288 59.2217 53.42 59.5257 53.556C59.8377 53.684 60.1057 53.876 60.3297 54.132C60.5537 54.388 60.6697 54.728 60.6777 55.152C60.6777 55.528 60.5737 55.864 60.3657 56.16C60.1577 56.456 59.8617 56.688 59.4777 56.856C59.1017 57.024 58.6577 57.108 58.1457 57.108Z" fill="black"/>
<defs>
<clipPath id="clip0_134_18824">
<rect width="37.2724" height="32" fill="white" transform="translate(19.365 3.54999)"/>
</clipPath>
</defs>
</svg>
