<svg width="76" height="62" viewBox="0 0 76 62" fill="none" xmlns="http://www.w3.org/2000/svg">
<g clip-path="url(#clip0_134_18848)">
<path d="M21.8345 36V27.8092V21.0188L54.1592 12.2963V28.6372L21.8345 36Z" fill="#9A663E"/>
<path d="M21.8345 26.1329L54.1592 18.5063V23.4338L21.8345 30.9467V26.1329Z" fill="#E2D9C9"/>
<path d="M21.8345 21.0188L31.7787 7.77068C32.6026 6.67479 33.8649 5.9929 35.2327 5.89143C44.7467 5.18113 51.0704 7.30797 54.1551 12.3004L21.8345 21.0188Z" fill="#7F5332"/>
<path d="M54.1592 12.2963C52.9983 11.8945 50.1044 11.0705 49.8284 11.3871C49.4103 11.8661 27.4073 18.9812 27.4073 18.9812C27.4073 18.9812 23.2266 20.6291 21.8385 21.0147C21.7695 21.104 21.7086 22.8493 23.5229 22.48C24.2535 22.3298 24.3794 20.3328 25.9664 19.9026C26.973 19.6306 28.0932 21.9158 29.0673 21.7494C30.4514 21.514 30.8492 18.7621 32.6757 18.9163C34.5021 19.0746 32.2576 26.896 36.5519 26.068C40.8461 25.24 36.422 17.7879 39.3362 17.5485C42.1734 17.313 40.1561 21.1121 43.4073 20.6819C45.7452 20.3694 44.3043 17.9787 45.1079 16.6312C45.1242 16.6068 45.1363 16.5824 45.1526 16.5581C45.1566 16.554 45.1607 16.5459 45.1647 16.5419C45.181 16.5175 45.1972 16.4972 45.2135 16.4729C45.2175 16.4647 45.2216 16.4607 45.2297 16.4566C45.2459 16.4363 45.2662 16.412 45.2865 16.3917C45.2906 16.3876 45.2946 16.3795 45.3027 16.3754C45.323 16.3552 45.3433 16.3308 45.3677 16.3105C45.3677 16.3105 45.3758 16.3064 45.3758 16.3024C45.3961 16.2821 45.4205 16.2618 45.4448 16.2456C45.4489 16.2456 45.4529 16.2374 45.457 16.2334C45.4813 16.2131 45.5098 16.1928 45.5341 16.1766C45.5422 16.1725 45.5463 16.1684 45.5544 16.1644C45.5828 16.1441 45.6112 16.1279 45.6396 16.1116C45.6478 16.1116 45.6518 16.1035 45.6599 16.0994C45.6883 16.0832 45.7208 16.0629 45.7533 16.0467C45.7573 16.0467 45.7655 16.0426 45.7695 16.0386C45.802 16.0223 45.8345 16.0061 45.871 15.9899C45.871 15.9899 45.875 15.9899 45.8791 15.9899C45.9156 15.9736 45.9522 15.9574 45.9928 15.9452C46.0009 15.9452 46.0049 15.9411 46.013 15.9371C46.0496 15.9249 46.0902 15.9087 46.1308 15.8965C46.1389 15.8965 46.147 15.8924 46.1551 15.8884C46.1957 15.8762 46.2403 15.864 46.285 15.8519C46.2931 15.8519 46.3012 15.8519 46.3093 15.8478C46.354 15.8356 46.4027 15.8275 46.4514 15.8153C46.4555 15.8153 46.4595 15.8153 46.4636 15.8153C46.5123 15.8072 46.561 15.795 46.6138 15.7869C46.6178 15.7869 46.6259 15.7869 46.63 15.7869C46.6828 15.7788 46.7355 15.7707 46.7923 15.7666C46.8005 15.7666 46.8126 15.7666 46.8208 15.7666C46.8735 15.7585 46.9303 15.7544 46.9872 15.7504C46.9993 15.7504 47.0075 15.7504 47.0196 15.7504C47.0805 15.7463 47.1374 15.7423 47.2023 15.7382C47.2104 15.7382 47.2185 15.7382 47.2266 15.7382C47.2916 15.7382 47.3606 15.7341 47.4296 15.7301C47.4661 15.7301 47.4986 15.7301 47.5311 15.7301C47.5392 15.7301 47.5432 15.7301 47.5514 15.7301C47.5838 15.7301 47.6122 15.7301 47.6406 15.7341C47.6447 15.7341 47.6528 15.7341 47.6569 15.7341C47.6853 15.7341 47.7137 15.7423 47.7421 15.7463C47.7705 15.7504 47.7949 15.7544 47.8233 15.7626C47.8274 15.7626 47.8314 15.7626 47.8355 15.7626C47.8598 15.7666 47.8842 15.7747 47.9045 15.7829C47.9045 15.7829 47.9126 15.7829 47.9167 15.7829C47.941 15.791 47.9613 15.7991 47.9816 15.8072C48.0019 15.8153 48.0222 15.8234 48.0425 15.8356C48.0425 15.8356 48.0506 15.8356 48.0506 15.8397C48.0709 15.8478 48.0871 15.86 48.1034 15.8721C48.1034 15.8721 48.1074 15.8721 48.1115 15.8762C48.148 15.9006 48.1805 15.9249 48.2089 15.9493C48.2089 15.9493 48.2129 15.9493 48.217 15.9533C48.2332 15.9655 48.2454 15.9817 48.2576 15.9939C48.286 16.0264 48.3144 16.0589 48.3388 16.0913C48.3509 16.1076 48.3631 16.1238 48.3712 16.14C48.3956 16.1725 48.4159 16.209 48.4362 16.2456C48.6675 16.6555 48.7771 17.1547 49.7391 17.1385C50.4737 17.1263 50.7457 16.5297 50.9689 15.9736C50.9851 15.9371 50.9973 15.9006 51.0136 15.864C51.0257 15.8397 51.0338 15.8113 51.046 15.7869C51.0501 15.7747 51.0541 15.7666 51.0582 15.7544C51.0663 15.7341 51.0744 15.7139 51.0826 15.6936C51.0866 15.6814 51.0907 15.6692 51.0988 15.657C51.1069 15.6408 51.115 15.6205 51.1231 15.6043C51.1272 15.5921 51.1353 15.5799 51.1394 15.5677C51.1475 15.5515 51.1556 15.5353 51.1637 15.519C51.1678 15.5068 51.1759 15.4947 51.18 15.4825C51.1881 15.4663 51.1962 15.4541 51.2043 15.4378C51.2084 15.4257 51.2165 15.4135 51.2246 15.4054C51.2327 15.3932 51.2409 15.377 51.249 15.3648C51.2571 15.3526 51.2611 15.3445 51.2693 15.3323C51.2774 15.3201 51.2855 15.308 51.2936 15.2958C51.3017 15.2836 51.3058 15.2755 51.3139 15.2674C51.322 15.2552 51.3301 15.243 51.3383 15.2349C51.3464 15.2268 51.3545 15.2187 51.3586 15.2065C51.3667 15.1943 51.3789 15.1862 51.387 15.174C51.3951 15.1659 51.4032 15.1578 51.4113 15.1497C51.4194 15.1416 51.4316 15.1334 51.4438 15.1253C51.4519 15.1172 51.46 15.1131 51.4681 15.105C51.4803 15.0969 51.4925 15.0888 51.5006 15.0847C51.5087 15.0807 51.5169 15.0726 51.525 15.0685C51.5371 15.0604 51.5493 15.0563 51.5615 15.0523C51.5696 15.0523 51.5777 15.0441 51.5859 15.0401C51.6021 15.036 51.6183 15.032 51.6305 15.0279C51.6386 15.0279 51.6467 15.0238 51.6549 15.0238C51.6792 15.0198 51.7036 15.0157 51.732 15.0157C52.5965 14.9995 52.6899 15.795 53.6031 15.6286C53.6193 15.6286 53.6396 15.6205 53.6559 15.6124H53.664C53.6802 15.6043 53.6965 15.6002 53.7127 15.5921C53.7127 15.5921 53.7168 15.5921 53.7208 15.588C53.737 15.5799 53.7492 15.5677 53.7655 15.5596C53.7817 15.5474 53.7939 15.5353 53.806 15.5231C53.806 15.5231 53.8101 15.519 53.8142 15.515C53.8263 15.5028 53.8385 15.4866 53.8507 15.4703C53.8507 15.4703 53.8507 15.4663 53.8548 15.4622C53.8669 15.446 53.8791 15.4297 53.8872 15.4135C53.8872 15.4135 53.8872 15.4135 53.8872 15.4094C53.8994 15.3891 53.9075 15.3729 53.9197 15.3526C53.9197 15.3526 53.9197 15.3445 53.9238 15.3404C53.9359 15.3201 53.944 15.2998 53.9522 15.2755C53.9522 15.2755 53.9522 15.2755 53.9522 15.2714C53.9603 15.2471 53.9725 15.2268 53.9806 15.2024C53.9806 15.2024 53.9806 15.1984 53.9806 15.1943C53.9887 15.17 53.9968 15.1456 54.0049 15.1172C54.0049 15.1172 54.0049 15.1091 54.0049 15.105C54.0212 15.0523 54.0374 14.9954 54.0496 14.9346C54.0496 14.9346 54.0496 14.9346 54.0496 14.9305C54.0577 14.9021 54.0618 14.8696 54.0699 14.8412C54.0699 14.8412 54.0699 14.8371 54.0699 14.8331C54.0821 14.7681 54.0902 14.7032 54.1023 14.6383C54.2119 13.8184 54.1348 12.3166 54.1348 12.3166L54.1592 12.2963Z" fill="#7F5332"/>
<path d="M41.3291 6.28919C41.3291 6.28919 41.873 4.88483 40.29 4C40.29 4 39.669 5.62354 41.3291 6.28919Z" fill="#57AD6B"/>
<path d="M40.6634 6.31354C40.6634 6.31354 40.7243 4.80771 38.9343 4.48706C38.9343 4.48706 38.8734 6.22425 40.6634 6.31354Z" fill="#57AD6B"/>
<path d="M40.7487 5.95637C40.7487 5.95637 41.6822 4.77524 43.2489 5.69254C43.2489 5.69254 42.1652 7.05226 40.7487 5.95637Z" fill="#57AD6B"/>
<path d="M41.0653 6.54084C41.0653 6.54084 42.3317 5.72907 43.5169 7.10502C43.5169 7.10502 42.0516 8.03855 41.0653 6.54084Z" fill="#57AD6B"/>
<path d="M41.1099 5.99696C40.0871 5.41249 38.2281 4.3166 36.8116 6.7925C35.6913 8.75293 36.3204 10.758 36.84 11.8377C37.0957 12.3694 37.6517 12.686 38.2362 12.6372C39.4295 12.5358 41.4792 12.0649 42.5995 10.1045C44.016 7.63268 42.1327 6.58144 41.1058 5.99696H41.1099Z" fill="#EA0738"/>
<path d="M33.5767 8.39167C33.5767 8.39167 33.0328 6.98731 34.6157 6.10248C34.6157 6.10248 35.2367 7.72602 33.5767 8.39167Z" fill="#64C37D"/>
<path d="M34.2423 8.41602C34.2423 8.41602 34.1814 6.91019 35.9714 6.58954C35.9714 6.58954 36.0323 8.32673 34.2423 8.41602Z" fill="#64C37D"/>
<path d="M34.1571 8.05885C34.1571 8.05885 33.2236 6.87772 31.6569 7.79502C31.6569 7.79502 32.7406 9.15474 34.1571 8.05885Z" fill="#64C37D"/>
<path d="M33.8405 8.64332C33.8405 8.64332 32.5741 7.83155 31.3889 9.2075C31.3889 9.2075 32.8542 10.141 33.8405 8.64332Z" fill="#64C37D"/>
<path d="M33.7958 8.1035C34.8187 7.51903 36.6776 6.42314 38.0941 8.89904C39.2144 10.8595 38.5853 12.8645 38.0657 13.9442C37.81 14.4759 37.254 14.7925 36.6695 14.7438C35.4762 14.6423 33.4265 14.1715 32.3062 12.2111C30.8897 9.73922 32.773 8.68798 33.7999 8.1035H33.7958Z" fill="#FF0C38"/>
</g>
<path d="M15.8135 48.66C16.7015 48.66 17.4775 48.832 18.1415 49.176C18.8135 49.512 19.3295 50 19.6895 50.64C20.0575 51.272 20.2415 52.012 20.2415 52.86C20.2415 53.708 20.0575 54.444 19.6895 55.068C19.3295 55.692 18.8135 56.172 18.1415 56.508C17.4775 56.836 16.7015 57 15.8135 57H13.0895V48.66H15.8135ZM15.8135 55.884C16.7895 55.884 17.5375 55.62 18.0575 55.092C18.5775 54.564 18.8375 53.82 18.8375 52.86C18.8375 51.892 18.5775 51.136 18.0575 50.592C17.5375 50.048 16.7895 49.776 15.8135 49.776H14.4575V55.884H15.8135ZM27.6573 53.532C27.6573 53.78 27.6413 54.004 27.6093 54.204H22.5573C22.5973 54.732 22.7933 55.156 23.1453 55.476C23.4973 55.796 23.9293 55.956 24.4413 55.956C25.1773 55.956 25.6973 55.648 26.0013 55.032H27.4773C27.2773 55.64 26.9133 56.14 26.3853 56.532C25.8653 56.916 25.2173 57.108 24.4413 57.108C23.8093 57.108 23.2413 56.968 22.7373 56.688C22.2413 56.4 21.8493 56 21.5613 55.488C21.2813 54.968 21.1413 54.368 21.1413 53.688C21.1413 53.008 21.2773 52.412 21.5493 51.9C21.8293 51.38 22.2173 50.98 22.7133 50.7C23.2173 50.42 23.7933 50.28 24.4413 50.28C25.0653 50.28 25.6213 50.416 26.1093 50.688C26.5973 50.96 26.9773 51.344 27.2493 51.84C27.5213 52.328 27.6573 52.892 27.6573 53.532ZM26.2293 53.1C26.2213 52.596 26.0413 52.192 25.6893 51.888C25.3373 51.584 24.9013 51.432 24.3813 51.432C23.9093 51.432 23.5053 51.584 23.1693 51.888C22.8333 52.184 22.6333 52.588 22.5693 53.1H26.2293ZM31.4035 57.108C30.8835 57.108 30.4155 57.016 29.9995 56.832C29.5915 56.64 29.2675 56.384 29.0275 56.064C28.7875 55.736 28.6595 55.372 28.6435 54.972H30.0595C30.0835 55.252 30.2155 55.488 30.4555 55.68C30.7035 55.864 31.0115 55.956 31.3795 55.956C31.7635 55.956 32.0595 55.884 32.2675 55.74C32.4835 55.588 32.5915 55.396 32.5915 55.164C32.5915 54.916 32.4715 54.732 32.2315 54.612C31.9995 54.492 31.6275 54.36 31.1155 54.216C30.6195 54.08 30.2155 53.948 29.9035 53.82C29.5915 53.692 29.3195 53.496 29.0875 53.232C28.8635 52.968 28.7515 52.62 28.7515 52.188C28.7515 51.836 28.8555 51.516 29.0635 51.228C29.2715 50.932 29.5675 50.7 29.9515 50.532C30.3435 50.364 30.7915 50.28 31.2955 50.28C32.0475 50.28 32.6515 50.472 33.1075 50.856C33.5715 51.232 33.8195 51.748 33.8515 52.404H32.4835C32.4595 52.108 32.3395 51.872 32.1235 51.696C31.9075 51.52 31.6155 51.432 31.2475 51.432C30.8875 51.432 30.6115 51.5 30.4195 51.636C30.2275 51.772 30.1315 51.952 30.1315 52.176C30.1315 52.352 30.1955 52.5 30.3235 52.62C30.4515 52.74 30.6075 52.836 30.7915 52.908C30.9755 52.972 31.2475 53.056 31.6075 53.16C32.0875 53.288 32.4795 53.42 32.7835 53.556C33.0955 53.684 33.3635 53.876 33.5875 54.132C33.8115 54.388 33.9275 54.728 33.9355 55.152C33.9355 55.528 33.8315 55.864 33.6235 56.16C33.4155 56.456 33.1195 56.688 32.7355 56.856C32.3595 57.024 31.9155 57.108 31.4035 57.108ZM37.8137 57.108C37.2937 57.108 36.8257 57.016 36.4097 56.832C36.0017 56.64 35.6777 56.384 35.4377 56.064C35.1977 55.736 35.0697 55.372 35.0537 54.972H36.4697C36.4937 55.252 36.6257 55.488 36.8657 55.68C37.1137 55.864 37.4217 55.956 37.7897 55.956C38.1737 55.956 38.4697 55.884 38.6777 55.74C38.8937 55.588 39.0017 55.396 39.0017 55.164C39.0017 54.916 38.8817 54.732 38.6417 54.612C38.4097 54.492 38.0377 54.36 37.5257 54.216C37.0297 54.08 36.6257 53.948 36.3137 53.82C36.0017 53.692 35.7297 53.496 35.4977 53.232C35.2737 52.968 35.1617 52.62 35.1617 52.188C35.1617 51.836 35.2657 51.516 35.4737 51.228C35.6817 50.932 35.9777 50.7 36.3617 50.532C36.7537 50.364 37.2017 50.28 37.7057 50.28C38.4577 50.28 39.0617 50.472 39.5177 50.856C39.9817 51.232 40.2297 51.748 40.2617 52.404H38.8937C38.8697 52.108 38.7497 51.872 38.5337 51.696C38.3177 51.52 38.0257 51.432 37.6577 51.432C37.2977 51.432 37.0217 51.5 36.8297 51.636C36.6377 51.772 36.5417 51.952 36.5417 52.176C36.5417 52.352 36.6057 52.5 36.7337 52.62C36.8617 52.74 37.0177 52.836 37.2017 52.908C37.3857 52.972 37.6577 53.056 38.0177 53.16C38.4977 53.288 38.8897 53.42 39.1937 53.556C39.5057 53.684 39.7737 53.876 39.9977 54.132C40.2217 54.388 40.3377 54.728 40.3457 55.152C40.3457 55.528 40.2417 55.864 40.0337 56.16C39.8257 56.456 39.5297 56.688 39.1457 56.856C38.7697 57.024 38.3257 57.108 37.8137 57.108ZM47.8838 53.532C47.8838 53.78 47.8678 54.004 47.8358 54.204H42.7838C42.8238 54.732 43.0198 55.156 43.3718 55.476C43.7238 55.796 44.1558 55.956 44.6678 55.956C45.4038 55.956 45.9238 55.648 46.2278 55.032H47.7038C47.5038 55.64 47.1398 56.14 46.6118 56.532C46.0918 56.916 45.4438 57.108 44.6678 57.108C44.0358 57.108 43.4678 56.968 42.9638 56.688C42.4678 56.4 42.0758 56 41.7878 55.488C41.5078 54.968 41.3678 54.368 41.3678 53.688C41.3678 53.008 41.5038 52.412 41.7758 51.9C42.0558 51.38 42.4438 50.98 42.9398 50.7C43.4438 50.42 44.0198 50.28 44.6678 50.28C45.2918 50.28 45.8478 50.416 46.3358 50.688C46.8238 50.96 47.2038 51.344 47.4758 51.84C47.7478 52.328 47.8838 52.892 47.8838 53.532ZM46.4558 53.1C46.4478 52.596 46.2678 52.192 45.9158 51.888C45.5638 51.584 45.1278 51.432 44.6078 51.432C44.1358 51.432 43.7318 51.584 43.3958 51.888C43.0598 52.184 42.8598 52.588 42.7958 53.1H46.4558ZM50.5981 51.348C50.7981 51.012 51.0621 50.752 51.3901 50.568C51.7261 50.376 52.1221 50.28 52.5781 50.28V51.696H52.2301C51.6941 51.696 51.2861 51.832 51.0061 52.104C50.7341 52.376 50.5981 52.848 50.5981 53.52V57H49.2301V50.388H50.5981V51.348ZM55.4315 51.504V55.164C55.4315 55.412 55.4875 55.592 55.5995 55.704C55.7195 55.808 55.9195 55.86 56.1995 55.86H57.0395V57H55.9595C55.3435 57 54.8715 56.856 54.5435 56.568C54.2155 56.28 54.0515 55.812 54.0515 55.164V51.504H53.2715V50.388H54.0515V48.744H55.4315V50.388H57.0395V51.504H55.4315ZM60.7004 57.108C60.1804 57.108 59.7124 57.016 59.2964 56.832C58.8884 56.64 58.5644 56.384 58.3244 56.064C58.0844 55.736 57.9564 55.372 57.9404 54.972H59.3564C59.3804 55.252 59.5124 55.488 59.7524 55.68C60.0004 55.864 60.3084 55.956 60.6764 55.956C61.0604 55.956 61.3564 55.884 61.5644 55.74C61.7804 55.588 61.8884 55.396 61.8884 55.164C61.8884 54.916 61.7684 54.732 61.5284 54.612C61.2964 54.492 60.9244 54.36 60.4124 54.216C59.9164 54.08 59.5124 53.948 59.2004 53.82C58.8884 53.692 58.6164 53.496 58.3844 53.232C58.1604 52.968 58.0484 52.62 58.0484 52.188C58.0484 51.836 58.1524 51.516 58.3604 51.228C58.5684 50.932 58.8644 50.7 59.2484 50.532C59.6404 50.364 60.0884 50.28 60.5924 50.28C61.3444 50.28 61.9484 50.472 62.4044 50.856C62.8684 51.232 63.1164 51.748 63.1484 52.404H61.7804C61.7564 52.108 61.6364 51.872 61.4204 51.696C61.2044 51.52 60.9124 51.432 60.5444 51.432C60.1844 51.432 59.9084 51.5 59.7164 51.636C59.5244 51.772 59.4284 51.952 59.4284 52.176C59.4284 52.352 59.4924 52.5 59.6204 52.62C59.7484 52.74 59.9044 52.836 60.0884 52.908C60.2724 52.972 60.5444 53.056 60.9044 53.16C61.3844 53.288 61.7764 53.42 62.0804 53.556C62.3924 53.684 62.6604 53.876 62.8844 54.132C63.1084 54.388 63.2244 54.728 63.2324 55.152C63.2324 55.528 63.1284 55.864 62.9204 56.16C62.7124 56.456 62.4164 56.688 62.0324 56.856C61.6564 57.024 61.2124 57.108 60.7004 57.108Z" fill="black"/>
<defs>
<clipPath id="clip0_134_18848">
<rect width="32.3734" height="32" fill="white" transform="translate(21.8101 4)"/>
</clipPath>
</defs>
</svg>
