<svg width="76" height="62" viewBox="0 0 76 62" fill="none" xmlns="http://www.w3.org/2000/svg">
<g clip-path="url(#clip0_134_18828)">
<path d="M44.4506 24.6542L48.6369 17.0229L49.837 10.0812C49.8889 9.71569 49.6374 9.37612 49.2719 9.32427L47.4937 9.06506C47.1282 9.01322 46.7887 9.26465 46.7368 9.63014L44.4506 24.6542Z" fill="#FFE170"/>
<path d="M37.9806 4C38.8438 4 39.5463 4.70247 39.5463 5.56565V28.3247H36.4124V5.56565C36.4124 4.70247 37.1148 4 37.9806 4Z" fill="#FFCD70"/>
<path d="M34.8467 5.52676C35.7125 5.52676 36.4123 6.22923 36.4123 7.09242V29.8514H33.2784V7.09242C33.2784 6.22664 33.9809 5.52676 34.8441 5.52676H34.8467Z" fill="#FFB65C"/>
<path d="M31.2039 7.06239C32.0658 6.97986 32.8294 7.61242 32.9117 8.47167L35.0812 31.127L31.9616 31.4258L29.7923 8.77299C29.7098 7.91116 30.3423 7.1475 31.2016 7.06522L31.2039 7.06239Z" fill="#FFE170"/>
<path d="M35.9121 8.6814C36.7779 8.6814 37.4778 9.38387 37.4778 10.2471V25.1234H34.3439V10.2496C34.3439 9.38387 35.0463 8.68399 35.9095 8.68399L35.9121 8.6814Z" fill="#FFE170"/>
<path d="M31.4537 10.746C32.3155 10.6635 33.0792 11.296 33.1615 12.1553L34.5795 26.9639L31.4599 27.2626L30.0418 12.454C29.9593 11.5922 30.5918 10.8285 31.4511 10.7463L31.4537 10.746Z" fill="#FFCD70"/>
<path d="M31.508 24.6542L27.3632 17.0229L26.163 10.0812C26.1112 9.71569 26.3626 9.37612 26.7281 9.32427L28.5063 9.06506C28.8718 9.01322 29.2114 9.26465 29.2632 9.63014L31.508 24.6542Z" fill="#FFCD70"/>
<path d="M42.6802 29.8514H39.5463V7.09243C39.5463 6.22665 40.2487 5.52677 41.1119 5.52677C41.9777 5.52677 42.6776 6.22924 42.6776 7.09243V29.8514H42.6802Z" fill="#FFE170"/>
<path d="M43.9982 31.4314L40.8785 31.1327L43.048 8.47729C43.1306 7.61545 43.8965 6.98572 44.7558 7.06801C45.6176 7.15053 46.2474 7.91652 46.1651 8.77578L43.9956 31.4311L43.9982 31.4314Z" fill="#FFB65C"/>
<path d="M40.359 27.2634L37.2394 26.9647L38.6575 12.1561C38.74 11.2943 39.506 10.6645 40.3652 10.7468C41.2271 10.8293 41.8568 11.5953 41.7745 12.4546L40.3564 27.2632L40.359 27.2634Z" fill="#FFB65C"/>
<path d="M44.0002 27.8729L40.8806 27.5742L42.2987 12.7656C42.3812 11.9038 43.1472 11.274 44.0065 11.3563C44.8683 11.4388 45.498 12.2048 45.4157 13.0641L43.9977 27.8726L44.0002 27.8729Z" fill="#FFCD70"/>
<path d="M46.3299 17.0229C45.3863 17.0229 44.5309 17.5595 44.1006 18.3968C42.9549 20.626 40.6323 22.1502 37.9547 22.1502C35.277 22.1502 32.9544 20.626 31.8087 18.3968C31.3784 17.5569 30.523 17.0229 29.5794 17.0229H27.3632L30.904 33.7474C31.0155 35.0202 32.0835 36 33.3614 36H42.6387C43.9166 36 44.9845 35.0228 45.096 33.7474L48.6369 17.0229H46.3299Z" fill="#CE2A19"/>
<path d="M42.6387 36C43.9166 36 44.9846 35.0228 45.0961 33.7474L48.6369 17.0229H46.3299C45.3864 17.0229 44.531 17.5595 44.1007 18.3968L41.5759 36H42.6387Z" fill="#B21A12"/>
<path d="M36.4123 30.6861C37.8683 30.6861 39.0485 29.5058 39.0485 28.0499C39.0485 26.594 37.8683 25.4137 36.4123 25.4137C34.9564 25.4137 33.7761 26.594 33.7761 28.0499C33.7761 29.5058 34.9564 30.6861 36.4123 30.6861Z" fill="white"/>
</g>
<path d="M14.851 48.66V49.776H11.311V52.236H14.071V53.352H11.311V57H9.94297V48.66H14.851ZM15.6628 53.664C15.6628 53 15.7988 52.412 16.0708 51.9C16.3508 51.388 16.7268 50.992 17.1988 50.712C17.6788 50.424 18.2068 50.28 18.7828 50.28C19.3028 50.28 19.7548 50.384 20.1388 50.592C20.5308 50.792 20.8428 51.044 21.0748 51.348V50.388H22.4548V57H21.0748V56.016C20.8428 56.328 20.5268 56.588 20.1268 56.796C19.7268 57.004 19.2708 57.108 18.7588 57.108C18.1908 57.108 17.6708 56.964 17.1988 56.676C16.7268 56.38 16.3508 55.972 16.0708 55.452C15.7988 54.924 15.6628 54.328 15.6628 53.664ZM21.0748 53.688C21.0748 53.232 20.9788 52.836 20.7868 52.5C20.6028 52.164 20.3588 51.908 20.0548 51.732C19.7508 51.556 19.4228 51.468 19.0708 51.468C18.7188 51.468 18.3908 51.556 18.0868 51.732C17.7828 51.9 17.5348 52.152 17.3428 52.488C17.1588 52.816 17.0668 53.208 17.0668 53.664C17.0668 54.12 17.1588 54.52 17.3428 54.864C17.5348 55.208 17.7828 55.472 18.0868 55.656C18.3988 55.832 18.7268 55.92 19.0708 55.92C19.4228 55.92 19.7508 55.832 20.0548 55.656C20.3588 55.48 20.6028 55.224 20.7868 54.888C20.9788 54.544 21.0748 54.144 21.0748 53.688ZM26.6516 57.108C26.1316 57.108 25.6636 57.016 25.2476 56.832C24.8396 56.64 24.5156 56.384 24.2756 56.064C24.0356 55.736 23.9076 55.372 23.8916 54.972H25.3076C25.3316 55.252 25.4636 55.488 25.7036 55.68C25.9516 55.864 26.2596 55.956 26.6276 55.956C27.0116 55.956 27.3076 55.884 27.5156 55.74C27.7316 55.588 27.8396 55.396 27.8396 55.164C27.8396 54.916 27.7196 54.732 27.4796 54.612C27.2476 54.492 26.8756 54.36 26.3636 54.216C25.8676 54.08 25.4636 53.948 25.1516 53.82C24.8396 53.692 24.5676 53.496 24.3356 53.232C24.1116 52.968 23.9996 52.62 23.9996 52.188C23.9996 51.836 24.1036 51.516 24.3116 51.228C24.5196 50.932 24.8156 50.7 25.1996 50.532C25.5916 50.364 26.0396 50.28 26.5436 50.28C27.2956 50.28 27.8996 50.472 28.3556 50.856C28.8196 51.232 29.0676 51.748 29.0996 52.404H27.7316C27.7076 52.108 27.5876 51.872 27.3716 51.696C27.1556 51.52 26.8636 51.432 26.4956 51.432C26.1356 51.432 25.8596 51.5 25.6676 51.636C25.4756 51.772 25.3796 51.952 25.3796 52.176C25.3796 52.352 25.4436 52.5 25.5716 52.62C25.6996 52.74 25.8556 52.836 26.0396 52.908C26.2236 52.972 26.4956 53.056 26.8556 53.16C27.3356 53.288 27.7276 53.42 28.0316 53.556C28.3436 53.684 28.6116 53.876 28.8356 54.132C29.0596 54.388 29.1756 54.728 29.1836 55.152C29.1836 55.528 29.0796 55.864 28.8716 56.16C28.6636 56.456 28.3676 56.688 27.9836 56.856C27.6076 57.024 27.1636 57.108 26.6516 57.108ZM32.2577 51.504V55.164C32.2577 55.412 32.3137 55.592 32.4257 55.704C32.5457 55.808 32.7457 55.86 33.0257 55.86H33.8657V57H32.7857C32.1697 57 31.6977 56.856 31.3697 56.568C31.0417 56.28 30.8777 55.812 30.8777 55.164V51.504H30.0977V50.388H30.8777V48.744H32.2577V50.388H33.8657V51.504H32.2577ZM43.1518 48.66V49.776H39.6118V52.236H42.3718V53.352H39.6118V57H38.2438V48.66H43.1518ZM47.2875 57.108C46.6635 57.108 46.0995 56.968 45.5955 56.688C45.0915 56.4 44.6955 56 44.4075 55.488C44.1195 54.968 43.9755 54.368 43.9755 53.688C43.9755 53.016 44.1235 52.42 44.4195 51.9C44.7155 51.38 45.1195 50.98 45.6315 50.7C46.1435 50.42 46.7155 50.28 47.3475 50.28C47.9795 50.28 48.5515 50.42 49.0635 50.7C49.5755 50.98 49.9795 51.38 50.2755 51.9C50.5715 52.42 50.7195 53.016 50.7195 53.688C50.7195 54.36 50.5675 54.956 50.2635 55.476C49.9595 55.996 49.5435 56.4 49.0155 56.688C48.4955 56.968 47.9195 57.108 47.2875 57.108ZM47.2875 55.92C47.6395 55.92 47.9675 55.836 48.2715 55.668C48.5835 55.5 48.8355 55.248 49.0275 54.912C49.2195 54.576 49.3155 54.168 49.3155 53.688C49.3155 53.208 49.2235 52.804 49.0395 52.476C48.8555 52.14 48.6115 51.888 48.3075 51.72C48.0035 51.552 47.6755 51.468 47.3235 51.468C46.9715 51.468 46.6435 51.552 46.3395 51.72C46.0435 51.888 45.8075 52.14 45.6315 52.476C45.4555 52.804 45.3675 53.208 45.3675 53.688C45.3675 54.4 45.5475 54.952 45.9075 55.344C46.2755 55.728 46.7355 55.92 47.2875 55.92ZM54.9399 57.108C54.3159 57.108 53.7519 56.968 53.2479 56.688C52.7439 56.4 52.3479 56 52.0599 55.488C51.7719 54.968 51.6279 54.368 51.6279 53.688C51.6279 53.016 51.7759 52.42 52.0719 51.9C52.3679 51.38 52.7719 50.98 53.2839 50.7C53.7959 50.42 54.3679 50.28 54.9999 50.28C55.6319 50.28 56.2039 50.42 56.7159 50.7C57.2279 50.98 57.6319 51.38 57.9279 51.9C58.2239 52.42 58.3719 53.016 58.3719 53.688C58.3719 54.36 58.2199 54.956 57.9159 55.476C57.6119 55.996 57.1959 56.4 56.6679 56.688C56.1479 56.968 55.5719 57.108 54.9399 57.108ZM54.9399 55.92C55.2919 55.92 55.6199 55.836 55.9239 55.668C56.2359 55.5 56.4879 55.248 56.6799 54.912C56.8719 54.576 56.9679 54.168 56.9679 53.688C56.9679 53.208 56.8759 52.804 56.6919 52.476C56.5079 52.14 56.2639 51.888 55.9599 51.72C55.6559 51.552 55.3279 51.468 54.9759 51.468C54.6239 51.468 54.2959 51.552 53.9919 51.72C53.6959 51.888 53.4599 52.14 53.2839 52.476C53.1079 52.804 53.0199 53.208 53.0199 53.688C53.0199 54.4 53.1999 54.952 53.5599 55.344C53.9279 55.728 54.3879 55.92 54.9399 55.92ZM59.2682 53.664C59.2682 53 59.4042 52.412 59.6762 51.9C59.9562 51.388 60.3322 50.992 60.8042 50.712C61.2842 50.424 61.8162 50.28 62.4002 50.28C62.8322 50.28 63.2562 50.376 63.6722 50.568C64.0962 50.752 64.4322 51 64.6802 51.312V48.12H66.0602V57H64.6802V56.004C64.4562 56.324 64.1442 56.588 63.7442 56.796C63.3522 57.004 62.9002 57.108 62.3882 57.108C61.8122 57.108 61.2842 56.964 60.8042 56.676C60.3322 56.38 59.9562 55.972 59.6762 55.452C59.4042 54.924 59.2682 54.328 59.2682 53.664ZM64.6802 53.688C64.6802 53.232 64.5842 52.836 64.3922 52.5C64.2082 52.164 63.9642 51.908 63.6602 51.732C63.3562 51.556 63.0282 51.468 62.6762 51.468C62.3242 51.468 61.9962 51.556 61.6922 51.732C61.3882 51.9 61.1402 52.152 60.9482 52.488C60.7642 52.816 60.6722 53.208 60.6722 53.664C60.6722 54.12 60.7642 54.52 60.9482 54.864C61.1402 55.208 61.3882 55.472 61.6922 55.656C62.0042 55.832 62.3322 55.92 62.6762 55.92C63.0282 55.92 63.3562 55.832 63.6602 55.656C63.9642 55.48 64.2082 55.224 64.3922 54.888C64.5842 54.544 64.6802 54.144 64.6802 53.688Z" fill="black"/>
<defs>
<clipPath id="clip0_134_18828">
<rect width="23.6896" height="32" fill="white" transform="translate(26.1553 4)"/>
</clipPath>
</defs>
</svg>
