<svg width="60" height="62" viewBox="0 0 60 62" fill="none" xmlns="http://www.w3.org/2000/svg">
<g clip-path="url(#clip0_134_18841)">
<path d="M48.9602 16.3982C48.8954 18.109 45.987 19.6306 41.5026 20.6027C38.2702 21.3026 34.2187 21.7225 29.8199 21.7225C28.9463 21.7225 28.0883 21.7043 27.2433 21.6732C17.9582 21.3233 10.7832 19.0992 10.6769 16.3982H48.9602Z" fill="#1A292D"/>
<path d="M29.8173 23.0082C41.0467 23.0082 50.15 20.0488 50.15 16.3982C50.15 12.7477 41.0467 9.78827 29.8173 9.78827C18.5878 9.78827 9.4845 12.7477 9.4845 16.3982C9.4845 20.0488 18.5878 23.0082 29.8173 23.0082Z" fill="#1A292D"/>
<path d="M45.3728 13.2021C44.6055 12.9014 43.7319 12.6241 42.7651 12.3752C42.6536 11.919 42.5136 11.5276 42.3633 11.1984C43.312 11.4395 44.1907 11.709 44.9943 12.002C44.9943 12.0071 44.9995 12.0175 45.0021 12.0227L45.015 12.0538C45.1447 12.3804 45.2665 12.764 45.3728 13.1995V13.2021Z" fill="#304044"/>
<path d="M29.8173 12.243C39.6156 12.243 47.6901 14.3141 48.8203 16.984C48.9084 16.7741 48.9603 16.5589 48.9603 16.3412C48.9603 13.368 40.3906 10.9573 29.8173 10.9573C19.2439 10.9573 10.6743 13.3654 10.6743 16.3386C10.6743 16.5563 10.7262 16.7715 10.8143 16.9814C11.9445 14.3115 20.019 12.2404 29.8173 12.2404V12.243Z" fill="#1A292D"/>
<path d="M50.1189 16.7715C49.5487 27.4874 40.6784 36 29.8173 36C18.9562 36 10.0885 27.4874 9.51562 16.7715C9.9848 19.5243 15.6383 21.8288 23.3577 22.6686C25.2033 22.8708 27.1655 22.9874 29.2055 23.0056C29.3455 23.0056 29.4855 23.0056 29.6255 23.0056H29.8173C32.7905 23.0056 35.6133 22.7982 38.1588 22.4249C39.0298 22.3005 39.867 22.1502 40.6654 21.9869C42.2129 21.668 43.6204 21.2844 44.8491 20.8437C47.9001 19.7576 49.8494 18.3345 50.1164 16.7663L50.1189 16.7715Z" fill="#1A292D"/>
<path d="M49.1339 14.3349C49.1339 14.3349 49.1235 14.3245 49.1184 14.3193C49.0484 14.2493 48.9732 14.1819 48.8954 14.1145C48.8591 14.0808 48.8254 14.0497 48.7866 14.016C48.714 13.9564 48.6362 13.8968 48.5611 13.8372C48.517 13.8035 48.4781 13.7698 48.4314 13.7361C48.3692 13.692 48.3044 13.6454 48.237 13.5987C48.1852 13.5624 48.1308 13.5261 48.0737 13.4898C48.053 13.4743 48.0323 13.4613 48.0089 13.4458C47.9286 13.3939 47.8482 13.3421 47.7653 13.2902C47.7134 13.2617 47.6642 13.228 47.6097 13.1969C47.4672 13.114 47.3194 13.031 47.1665 12.9507C47.1043 12.917 47.0395 12.8859 46.9772 12.8548C46.8995 12.8159 46.8243 12.7744 46.744 12.7381C46.7336 12.7329 46.7232 12.7277 46.7129 12.7251C46.6455 12.6914 46.5755 12.6603 46.5081 12.6292C46.4173 12.5878 46.3266 12.5463 46.2333 12.5048C46.1633 12.4737 46.0933 12.4426 46.0233 12.4141C45.9197 12.37 45.8134 12.326 45.7071 12.2819C45.6449 12.256 45.5827 12.23 45.5179 12.2067C45.3468 12.1393 45.1705 12.0719 44.9917 12.0071C44.9917 12.0123 44.9969 12.0227 44.9994 12.0279L45.0124 12.059C45.142 12.3856 45.2638 12.7692 45.3701 13.2047C45.6423 13.311 45.8989 13.4198 46.1426 13.5313C46.1737 13.5443 46.2022 13.5598 46.2333 13.5728C46.3085 13.6091 46.3811 13.6428 46.4536 13.6791C46.5055 13.705 46.5573 13.7309 46.6066 13.7568C46.6403 13.775 46.674 13.7931 46.7077 13.8113C46.7803 13.8475 46.8502 13.8864 46.9176 13.9253C47.0135 13.9771 47.1043 14.0316 47.195 14.086C47.195 14.086 47.2002 14.0886 47.2028 14.0912C47.2831 14.1405 47.3609 14.1923 47.4387 14.2415C47.4775 14.2675 47.5164 14.2934 47.5553 14.3193C47.6227 14.366 47.6901 14.4126 47.7523 14.4619C47.8327 14.5215 47.9078 14.5837 47.9804 14.6433C47.983 14.6433 47.9856 14.6485 47.9882 14.6511C48.0452 14.7004 48.0996 14.7496 48.1515 14.7989C48.1696 14.817 48.1904 14.8326 48.2085 14.8507C48.2396 14.8818 48.2681 14.9103 48.2966 14.9414C48.3278 14.9751 48.3615 15.0088 48.39 15.0425C48.4159 15.071 48.4392 15.1021 48.4651 15.1332C48.4937 15.1669 48.5222 15.2032 48.5481 15.2369C48.5714 15.2654 48.5922 15.2965 48.6129 15.3251C48.6362 15.3614 48.6596 15.3976 48.6829 15.4339C48.701 15.4624 48.7192 15.4936 48.7347 15.5221C48.7555 15.5609 48.7736 15.5972 48.7918 15.6361C48.8047 15.6646 48.8203 15.6931 48.8306 15.7217C48.8488 15.7631 48.8617 15.8072 48.8773 15.8513C48.8851 15.8746 48.8954 15.9005 48.9006 15.9238C48.9188 15.9887 48.9317 16.0509 48.9421 16.1157C48.9473 16.152 48.9499 16.1908 48.9525 16.2271C48.9551 16.2686 48.9602 16.3101 48.9602 16.349C48.9602 16.3671 48.9602 16.3904 48.9602 16.4086C48.9162 17.5854 47.5294 18.6689 45.212 19.5477C44.157 19.9494 42.905 20.3072 41.5001 20.6104C40.6213 20.8023 39.6778 20.9707 38.6876 21.1185C36.0358 21.5099 33.0186 21.7302 29.8173 21.7302C29.5192 21.7302 29.2237 21.7302 28.9308 21.7251C28.3605 21.7199 27.798 21.7043 27.2407 21.6836C25.6465 21.624 24.112 21.5073 22.6707 21.344C15.7005 20.556 10.765 18.6482 10.6769 16.4086C10.6769 16.3904 10.6769 16.3671 10.6769 16.349C10.6769 13.9875 16.0789 11.9812 23.5935 11.2554C25.5454 11.0662 27.6399 10.9651 29.8199 10.9651C34.8123 10.9651 39.3615 11.5017 42.7702 12.383C42.6587 11.9268 42.5188 11.5353 42.3684 11.2061C38.9131 10.3248 34.5557 9.79861 29.8199 9.79861C27.6217 9.79861 25.5065 9.91267 23.5235 10.1226C15.3713 10.9754 9.4845 13.4639 9.4845 16.3982C9.4845 16.5226 9.49487 16.6471 9.5156 16.7689C9.98478 19.5217 15.6382 21.8262 23.3576 22.666C25.2033 22.8682 27.1655 22.9848 29.2055 23.003C29.3455 23.003 29.4855 23.003 29.6254 23.003H29.8173C32.7905 23.003 35.6133 22.7956 38.1588 22.4223C39.0297 22.2979 39.867 22.1476 40.6654 21.9843C42.2129 21.6654 43.6204 21.2818 44.8491 20.8411C47.9001 19.755 49.8493 18.3319 50.1163 16.7637C50.1371 16.6393 50.1474 16.5174 50.1474 16.393C50.1474 15.6724 49.7897 14.9777 49.1313 14.3271L49.1339 14.3349Z" fill="#304044"/>
<path d="M36.2588 17.8783C36.1965 18.3423 36.111 18.8348 36.0047 19.3533C35.8777 19.9598 35.7092 20.5456 35.5122 21.1081C33.3011 21.4348 30.8334 21.6421 28.2153 21.7017C27.6969 21.7147 27.1733 21.7199 26.6419 21.7199C26.3438 21.7199 26.0483 21.7199 25.7554 21.7147C25.7372 21.6732 25.7139 21.6343 25.6958 21.5929C24.6537 21.5307 23.6402 21.4425 22.6707 21.3311C21.468 21.1963 20.33 21.0252 19.2621 20.8282C18.3756 18.8426 17.4087 15.929 17.1987 12.2897C17.178 11.9423 17.165 11.5872 17.1598 11.2269C17.1547 11.0999 17.1547 10.9729 17.1547 10.8433C17.1547 9.60421 17.4502 8.46108 18.2771 8.41183C22.116 8.1889 20.8977 4 23.1658 4C24.4982 4 25.2551 4.39401 25.6802 4.82689C26.1053 5.25978 26.73 5.32458 27.2433 5.04204C27.4921 4.90466 27.8032 4.67914 28.1479 4.54176C28.4849 4.40178 28.8556 4.34475 29.2289 4.53398C30.7582 5.30903 30.3979 6.70879 31.2378 7.66529C32.0647 8.60624 33.1741 9.42017 33.9414 9.92823C34.0114 9.97489 34.0788 10.019 34.1436 10.0604C34.592 10.3482 34.986 10.7292 35.2997 11.1828C35.4785 11.4394 35.6315 11.722 35.7507 12.0253C35.7559 12.0356 35.7585 12.046 35.7637 12.0564C35.9114 12.4271 36.0514 12.8625 36.1603 13.3732C36.4039 14.4982 36.5128 15.9835 36.2588 17.8809V17.8783Z" fill="#258C38"/>
<path d="M42.3347 17.8783C42.2699 18.3423 42.187 18.8348 42.0781 19.3533C42.0729 19.3844 42.0703 19.9469 42.0677 20.4731C41.8811 20.5145 41.6919 20.5586 41.5 20.6001C40.6213 20.7919 39.6778 20.9604 38.6876 21.1081C36.0358 21.4996 33.0186 21.7199 29.8173 21.7199C29.5192 21.7199 29.2237 21.7199 28.9307 21.7147C28.6897 21.7147 28.4512 21.7095 28.2127 21.7017C27.6943 21.7147 27.1707 21.7199 26.6393 21.7199C26.3412 21.7199 26.0457 21.7199 25.7528 21.7147C25.7346 21.6732 25.7113 21.6343 25.6932 21.5929C24.6537 19.4725 23.3136 15.9109 23.2332 11.2787C23.2332 11.1336 23.228 10.9884 23.228 10.8407C23.228 10.5996 23.2384 10.3663 23.2617 10.1408C23.3602 9.20243 23.6842 8.45071 24.3504 8.40923C27.3288 8.23815 27.264 5.67452 28.1479 4.53657C28.3994 4.20737 28.7337 3.99741 29.2418 3.99741C30.5768 3.99741 31.3311 4.39141 31.7562 4.8243C32.1839 5.25719 32.806 5.32199 33.3218 5.03945C33.8169 4.76468 34.5557 4.15034 35.3048 4.5288C36.8368 5.30385 36.4739 6.7036 37.3163 7.6601C38.221 8.68659 39.4574 9.56533 40.2221 10.0552C40.5798 10.2834 40.9013 10.5763 41.1786 10.9158C41.4404 11.2373 41.6582 11.6002 41.8215 12.0019C41.8215 12.0071 41.8267 12.0175 41.8292 12.0227L41.8422 12.0538C41.8552 12.0875 41.8681 12.1212 41.8837 12.1549C41.9977 12.4582 42.1066 12.8055 42.1999 13.1995C42.2129 13.2539 42.2258 13.311 42.2388 13.3706C42.4825 14.4956 42.5913 15.9809 42.3399 17.8783H42.3347Z" fill="#44C660"/>
<path d="M43.5194 12.9533L42.2829 7.59012C42.1896 6.21887 43.9263 6.09963 44.0197 7.47088L43.5194 12.9533Z" fill="#44C660"/>
<path d="M43.636 12.7511L45.8963 7.73268C46.6532 6.58436 48.1074 7.54086 47.3505 8.68918L43.636 12.7511Z" fill="#44C660"/>
<path d="M43.9134 11.5017L44.3696 6.0167C44.6988 4.68175 46.3889 5.09908 46.0597 6.43403L43.9108 11.5017H43.9134Z" fill="#44C660"/>
<path d="M42.5991 20.346C43.172 19.4362 43.7189 18.5315 44.2373 17.6269C44.6365 16.9322 45.0176 16.2401 45.3805 15.5506C45.4919 15.3432 45.5982 15.1332 45.7045 14.9259C45.9274 14.4904 46.1426 14.0575 46.3473 13.6272C46.4873 13.3343 46.6247 13.0414 46.7595 12.7485C46.858 12.5307 46.9539 12.3182 47.0472 12.1004C47.4334 10.6359 41.2434 9.00023 40.8572 10.4674C40.839 10.5918 40.8235 10.7136 40.8053 10.8381C40.7561 11.188 40.7068 11.5431 40.6576 11.9008C40.5928 12.3933 40.528 12.891 40.4632 13.3965C40.4295 13.6557 40.3984 13.9175 40.3647 14.1819C40.2247 15.3017 40.0925 16.4526 39.9655 17.6269C39.8462 18.7156 39.7322 19.8276 39.6207 20.963L42.5913 20.346H42.5991Z" fill="#E89E0C"/>
<path d="M19.6742 20.906C19.1662 20.8178 18.6763 20.7219 18.2019 20.6182C17.8209 20.5353 17.4476 20.4497 17.0899 20.3616C15.9752 20.0817 14.9773 19.768 14.1219 19.4233L12.9269 16.1079L12.621 15.2629L12.24 14.2079L11.9056 13.2747L10.8843 10.4518L15.5009 8.79028L15.7601 9.53682L15.9934 10.2108L16.4133 11.4291L16.7477 12.4037L17.051 13.2902L17.3413 14.1275L19.6768 20.906H19.6742Z" fill="white"/>
<path d="M15.4957 8.78769L14.1089 8.58032L9.89929 9.99304L10.8791 10.4518L15.4957 8.78769Z" fill="#F6F7F0"/>
<path d="M14.1193 19.4207C14.1193 19.4207 14.1012 19.4155 14.0934 19.4103L12.9295 18.8763L12.2789 16.9659L11.9082 15.8824L11.522 14.7496L11.1798 13.7542L9.89929 9.99304L10.8791 10.4493L11.9004 13.2721L12.2348 14.2053L12.6159 15.2603L12.9217 16.1053L14.1167 19.4207H14.1193Z" fill="#E4E5DF"/>
<path d="M23.5028 21.4218C23.2229 21.3933 22.9455 21.3648 22.6681 21.3337C21.6183 21.2144 20.6203 21.0693 19.6716 20.906C19.1636 20.8178 18.6736 20.7219 18.1993 20.6182L15.9986 14.5267L15.7056 13.7205L15.3738 12.8029L15.0343 11.862L14.6169 10.7059L15.983 10.2134L19.231 9.04431L19.7857 10.6514L20.1434 11.6935L20.4311 12.5282L20.7422 13.4328L23.495 21.4244L23.5028 21.4218Z" fill="white"/>
<path d="M19.2361 9.04172L17.8493 8.83435L13.6371 10.2471L14.6195 10.7059L19.2361 9.04172Z" fill="#F6F7F0"/>
<path d="M18.2019 20.6182C17.8208 20.5353 17.4476 20.4497 17.0898 20.3616L15.1976 14.817L14.9228 14.0212L14.5988 13.0725L14.2774 12.1367L13.6345 10.2497L14.6169 10.7033L15.0343 11.862L15.3738 12.8029L15.7056 13.7205L15.9986 14.5267L18.1993 20.6182H18.2019Z" fill="#E4E5DF"/>
<path d="M28.2127 21.7043C27.6942 21.7173 27.1706 21.7225 26.6392 21.7225C26.3412 21.7225 26.0456 21.7225 25.7527 21.7173C25.7346 21.6758 25.7113 21.6369 25.6931 21.5955C26.2012 21.6292 26.717 21.6551 27.238 21.6732C27.562 21.6862 27.8835 21.6966 28.2101 21.7017L28.2127 21.7043Z" fill="#304044"/>
<path d="M46.4121 15.8513L46.8528 11.7505C47.1249 10.7551 48.3821 11.0999 48.1126 12.0927L46.4121 15.8513Z" fill="#44C660"/>
<path d="M50.1707 13.7724L49.1339 14.3323L48.4288 14.7133L48.2033 14.8352L46.5417 15.7321L47.7523 14.4515L47.9104 14.283L48.4288 13.7335L49.3724 12.7329C50.1889 12.1056 50.9873 13.1399 50.1656 13.7698L50.1707 13.7724Z" fill="#44C660"/>
<path d="M47.0472 14.9181L48.7192 11.1465C49.2817 10.2808 50.3756 10.9936 49.8131 11.8568L47.0472 14.9181Z" fill="#44C660"/>
<path d="M49.1235 16.1131C49.0717 16.1727 49.0146 16.2323 48.9602 16.2893C48.8954 16.3593 48.828 16.4319 48.7606 16.5019C48.5947 16.6756 48.4262 16.8492 48.2526 17.0229C48.0011 17.2769 47.7419 17.531 47.4775 17.785C47.3531 17.9068 47.2261 18.0261 47.0965 18.1453C46.6843 18.5289 46.2592 18.9126 45.8237 19.291C45.6293 19.374 45.4245 19.4569 45.212 19.5373C44.2062 19.9183 43.0242 20.2631 41.697 20.556C42.0521 19.7835 42.4073 19.0266 42.7546 18.2853C43.1331 17.4843 43.5089 16.7041 43.8848 15.9446C43.9729 15.7657 44.0585 15.5869 44.1466 15.4106C44.3177 15.0684 44.481 14.7315 44.6495 14.3997C44.7739 14.1586 44.8931 13.9175 45.015 13.6816C45.0564 13.5961 45.1005 13.5132 45.142 13.4302C45.2172 13.3187 45.3364 13.2591 45.4893 13.2384C45.7874 13.1969 46.2125 13.3136 46.6662 13.5235C46.8761 13.622 47.0939 13.7387 47.3116 13.8683C47.3634 13.902 47.4179 13.9331 47.4697 13.9668C47.5604 14.0264 47.6512 14.086 47.7393 14.1482C47.8015 14.1897 47.8611 14.2338 47.9182 14.2778C48.1022 14.4152 48.2759 14.5604 48.434 14.7055C49.0043 15.2291 49.349 15.7735 49.1261 16.1027L49.1235 16.1131Z" fill="#FCB712"/>
</g>
<path d="M14.3569 48.66V57H12.9889V53.352H9.06488V57H7.69688V48.66H9.06488V52.236H12.9889V48.66H14.3569ZM22.2178 53.532C22.2178 53.78 22.2018 54.004 22.1698 54.204H17.1178C17.1578 54.732 17.3538 55.156 17.7058 55.476C18.0578 55.796 18.4898 55.956 19.0018 55.956C19.7378 55.956 20.2578 55.648 20.5618 55.032H22.0378C21.8378 55.64 21.4738 56.14 20.9458 56.532C20.4258 56.916 19.7778 57.108 19.0018 57.108C18.3698 57.108 17.8018 56.968 17.2978 56.688C16.8018 56.4 16.4098 56 16.1218 55.488C15.8418 54.968 15.7018 54.368 15.7018 53.688C15.7018 53.008 15.8378 52.412 16.1098 51.9C16.3898 51.38 16.7778 50.98 17.2738 50.7C17.7778 50.42 18.3538 50.28 19.0018 50.28C19.6258 50.28 20.1818 50.416 20.6698 50.688C21.1578 50.96 21.5378 51.344 21.8098 51.84C22.0818 52.328 22.2178 52.892 22.2178 53.532ZM20.7898 53.1C20.7818 52.596 20.6018 52.192 20.2498 51.888C19.8978 51.584 19.4618 51.432 18.9418 51.432C18.4698 51.432 18.0658 51.584 17.7298 51.888C17.3938 52.184 17.1938 52.588 17.1298 53.1H20.7898ZM23.1081 53.664C23.1081 53 23.2441 52.412 23.5161 51.9C23.7961 51.388 24.1721 50.992 24.6441 50.712C25.1241 50.424 25.6521 50.28 26.2281 50.28C26.7481 50.28 27.2001 50.384 27.5841 50.592C27.9761 50.792 28.2881 51.044 28.5201 51.348V50.388H29.9001V57H28.5201V56.016C28.2881 56.328 27.9721 56.588 27.5721 56.796C27.1721 57.004 26.7161 57.108 26.2041 57.108C25.6361 57.108 25.1161 56.964 24.6441 56.676C24.1721 56.38 23.7961 55.972 23.5161 55.452C23.2441 54.924 23.1081 54.328 23.1081 53.664ZM28.5201 53.688C28.5201 53.232 28.4241 52.836 28.2321 52.5C28.0481 52.164 27.8041 51.908 27.5001 51.732C27.1961 51.556 26.8681 51.468 26.5161 51.468C26.1641 51.468 25.8361 51.556 25.5321 51.732C25.2281 51.9 24.9801 52.152 24.7881 52.488C24.6041 52.816 24.5121 53.208 24.5121 53.664C24.5121 54.12 24.6041 54.52 24.7881 54.864C24.9801 55.208 25.2281 55.472 25.5321 55.656C25.8441 55.832 26.1721 55.92 26.5161 55.92C26.8681 55.92 27.1961 55.832 27.5001 55.656C27.8041 55.48 28.0481 55.224 28.2321 54.888C28.4241 54.544 28.5201 54.144 28.5201 53.688ZM33.0649 48.12V57H31.6969V48.12H33.0649ZM36.4569 51.504V55.164C36.4569 55.412 36.5129 55.592 36.6249 55.704C36.7449 55.808 36.9449 55.86 37.2249 55.86H38.0649V57H36.9849C36.3689 57 35.8969 56.856 35.5689 56.568C35.2409 56.28 35.0769 55.812 35.0769 55.164V51.504H34.2969V50.388H35.0769V48.744H36.4569V50.388H38.0649V51.504H36.4569ZM42.7458 50.28C43.2498 50.28 43.6978 50.388 44.0898 50.604C44.4898 50.82 44.8018 51.14 45.0258 51.564C45.2578 51.988 45.3738 52.5 45.3738 53.1V57H44.0178V53.304C44.0178 52.712 43.8698 52.26 43.5738 51.948C43.2778 51.628 42.8738 51.468 42.3618 51.468C41.8498 51.468 41.4418 51.628 41.1378 51.948C40.8418 52.26 40.6938 52.712 40.6938 53.304V57H39.3258V48.12H40.6938V51.156C40.9258 50.876 41.2178 50.66 41.5698 50.508C41.9298 50.356 42.3218 50.28 42.7458 50.28ZM53.0708 50.388L49.0148 60.108H47.5988L48.9428 56.892L46.3388 50.388H47.8628L49.7228 55.428L51.6548 50.388H53.0708Z" fill="black"/>
<defs>
<clipPath id="clip0_134_18841">
<rect width="41.031" height="32" fill="white" transform="translate(9.4845 4)"/>
</clipPath>
</defs>
</svg>
