<svg width="76" height="62" viewBox="0 0 76 62" fill="none" xmlns="http://www.w3.org/2000/svg">
<g clip-path="url(#clip0_134_18820)">
<path d="M31.838 29.4082C39.782 29.4082 46.2218 26.3629 46.2218 22.6064C46.2218 18.8499 39.782 15.8046 31.838 15.8046C23.8941 15.8046 17.4542 18.8499 17.4542 22.6064C17.4542 26.3629 23.8941 29.4082 31.838 29.4082Z" fill="#3D2B29"/>
<path d="M47.8885 12.046L46.2218 22.6064H17.4568L15.79 12.046H47.8885Z" fill="#3D2B29"/>
<path d="M47.8885 12.046C47.8885 16.4915 40.7031 20.092 31.8406 20.092C22.9781 20.092 15.79 16.4915 15.79 12.046C15.79 10.7266 16.4251 9.47979 17.5449 8.38072C20.2045 5.7808 25.6065 4 31.8406 4C38.0747 4 43.1605 5.67971 45.8952 8.16039C47.1653 9.3113 47.8885 10.6359 47.8885 12.046Z" fill="#533F38"/>
<path d="M31.838 23.327C40.701 23.327 47.8859 19.7247 47.8859 15.281C47.8859 10.8373 40.701 7.23499 31.838 7.23499C22.975 7.23499 15.79 10.8373 15.79 15.281C15.79 19.7247 22.975 23.327 31.838 23.327Z" fill="#533F38"/>
<path d="M47.8885 12.046H15.79V15.281H47.8885V12.046Z" fill="#533F38"/>
<path d="M47.8885 12.046C47.8885 16.4915 40.7031 20.092 31.8406 20.092C22.9781 20.092 15.79 16.4915 15.79 12.046C15.79 10.7266 16.4251 9.47979 17.5449 8.38072C19.7508 7.32572 23.6105 5.83783 26.6252 6.56104C31.1096 7.64196 32.2735 7.81823 34.7645 7.2324C37.2556 6.64658 42.738 6.48587 43.9744 7.45014C44.3295 7.7275 45.0424 7.95043 45.8952 8.1578C47.1653 9.30871 47.8885 10.6333 47.8885 12.0434V12.046Z" fill="#E68D25"/>
<path d="M32.5171 12.6785C32.5171 12.6785 31.0629 12.7122 30.2956 13.3006C29.5283 13.889 29.4065 14.8585 29.4065 14.8585C29.4065 14.8585 28.5589 13.7672 29.4065 12.9196C30.2541 12.0719 32.5171 12.6785 32.5171 12.6785Z" fill="#70E970"/>
<path d="M31.838 4C22.9755 4 15.79 7.60308 15.79 12.046C15.79 16.4889 22.9755 20.092 31.838 20.092C40.7005 20.092 47.8859 16.4889 47.8859 12.046C47.8859 7.60308 40.7031 4 31.838 4ZM31.838 19.2133C23.3487 19.2133 16.6273 16.1831 16.6273 12.046C16.6273 7.90895 23.3487 4.39401 31.838 4.39401C40.3273 4.39401 47.0487 7.91154 47.0487 12.0486C47.0487 16.1857 40.3273 19.2133 31.838 19.2133Z" fill="#8B746E"/>
<path d="M37.9865 9.08579C38.7753 9.08579 39.4148 8.44633 39.4148 7.65752C39.4148 6.86871 38.7753 6.22925 37.9865 6.22925C37.1977 6.22925 36.5582 6.86871 36.5582 7.65752C36.5582 8.44633 37.1977 9.08579 37.9865 9.08579Z" fill="#E8E158"/>
<path d="M32.6675 11.1751C33.4563 11.1751 34.0958 10.5356 34.0958 9.74678C34.0958 8.95797 33.4563 8.31851 32.6675 8.31851C31.8787 8.31851 31.2393 8.95797 31.2393 9.74678C31.2393 10.5356 31.8787 11.1751 32.6675 11.1751Z" fill="#E8E158"/>
<path d="M24.1989 8.61402C24.9877 8.61402 25.6272 7.97456 25.6272 7.18575C25.6272 6.39694 24.9877 5.75748 24.1989 5.75748C23.4101 5.75748 22.7706 6.39694 22.7706 7.18575C22.7706 7.97456 23.4101 8.61402 24.1989 8.61402Z" fill="#E8E158"/>
<path d="M27.2939 12.2378C27.8408 12.2378 28.2841 11.7945 28.2841 11.2476C28.2841 10.7008 27.8408 10.2574 27.2939 10.2574C26.747 10.2574 26.3037 10.7008 26.3037 11.2476C26.3037 11.7945 26.747 12.2378 27.2939 12.2378Z" fill="#E8E158"/>
<path d="M31.6773 16.7948C32.2242 16.7948 32.6675 16.3515 32.6675 15.8046C32.6675 15.2577 32.2242 14.8144 31.6773 14.8144C31.1305 14.8144 30.6871 15.2577 30.6871 15.8046C30.6871 16.3515 31.1305 16.7948 31.6773 16.7948Z" fill="#E8E158"/>
<path d="M40.3505 13.1529C40.8974 13.1529 41.3407 12.7095 41.3407 12.1627C41.3407 11.6158 40.8974 11.1725 40.3505 11.1725C39.8037 11.1725 39.3604 11.6158 39.3604 12.1627C39.3604 12.7095 39.8037 13.1529 40.3505 13.1529Z" fill="#E8E158"/>
<path d="M21.9023 12.6474C22.2888 12.6474 22.6021 12.334 22.6021 11.9475C22.6021 11.561 22.2888 11.2476 21.9023 11.2476C21.5157 11.2476 21.2024 11.561 21.2024 11.9475C21.2024 12.334 21.5157 12.6474 21.9023 12.6474Z" fill="#E8E158"/>
<path d="M24.9014 16.5045C25.2879 16.5045 25.6013 16.1911 25.6013 15.8046C25.6013 15.4181 25.2879 15.1047 24.9014 15.1047C24.5149 15.1047 24.2015 15.4181 24.2015 15.8046C24.2015 16.1911 24.5149 16.5045 24.9014 16.5045Z" fill="#E8E158"/>
<path d="M37.9865 15.9809C38.373 15.9809 38.6864 15.6675 38.6864 15.281C38.6864 14.8945 38.373 14.5811 37.9865 14.5811C37.6 14.5811 37.2866 14.8945 37.2866 15.281C37.2866 15.6675 37.6 15.9809 37.9865 15.9809Z" fill="#E8E158"/>
<path d="M36.7086 13.6039C36.7086 13.6039 38.492 13.6454 39.4356 14.3686C40.3765 15.0918 40.5268 16.2816 40.5268 16.2816C40.5268 16.2816 41.5689 14.944 40.5268 13.902C39.4848 12.86 36.7112 13.6039 36.7112 13.6039H36.7086Z" fill="#70E970"/>
<path d="M44.8272 9.57311C44.8272 9.57311 43.8215 9.59644 43.2901 10.0034C42.7587 10.4104 42.6758 11.0817 42.6758 11.0817C42.6758 11.0817 42.0899 10.3274 42.6758 9.7416C43.2616 9.15577 44.8272 9.57311 44.8272 9.57311Z" fill="#70E970"/>
<path d="M20.754 9.57311C20.754 9.57311 19.7483 9.59644 19.2169 10.0034C18.6855 10.4104 18.6025 11.0817 18.6025 11.0817C18.6025 11.0817 18.0167 10.3274 18.6025 9.7416C19.1884 9.15577 20.754 9.57311 20.754 9.57311Z" fill="#70E970"/>
<path d="M24.5152 13.8268C24.5152 13.8268 23.0611 13.8605 22.2938 14.4489C21.5265 15.0373 21.4047 16.0068 21.4047 16.0068C21.4047 16.0068 20.557 14.9155 21.4047 14.0679C22.2523 13.2202 24.5152 13.8268 24.5152 13.8268Z" fill="#70E970"/>
<path d="M25.3888 10.0475C25.3888 10.0475 23.9346 10.0138 23.1673 9.42534C22.4 8.83692 22.2782 7.86746 22.2782 7.86746C22.2782 7.86746 21.4306 8.95875 22.2782 9.80638C23.1258 10.654 25.3888 10.0475 25.3888 10.0475Z" fill="#70E970"/>
<path d="M29.802 9.62363C29.8537 9.51507 29.573 9.27329 29.1749 9.08361C28.7769 8.89392 28.4122 8.82815 28.3605 8.93671C28.3088 9.04527 28.5895 9.28704 28.9876 9.47673C29.3856 9.66642 29.7502 9.73219 29.802 9.62363Z" fill="#B9C9B9"/>
<path d="M28.0145 15.6241C28.0662 15.5156 27.7855 15.2738 27.3874 15.0841C26.9894 14.8944 26.6248 14.8287 26.573 14.9372C26.5213 15.0458 26.8021 15.2876 27.2001 15.4772C27.5981 15.6669 27.9628 15.7327 28.0145 15.6241Z" fill="#B9C9B9"/>
<path d="M19.7892 13.4965C19.8409 13.3879 19.5601 13.1461 19.1621 12.9564C18.7641 12.7668 18.3994 12.701 18.3477 12.8095C18.296 12.9181 18.5767 13.1599 18.9748 13.3496C19.3728 13.5393 19.7374 13.605 19.7892 13.4965Z" fill="#B9C9B9"/>
<path d="M21.4763 8.96121C21.528 8.85266 21.2473 8.61088 20.8492 8.42119C20.4512 8.2315 20.0866 8.16574 20.0348 8.27429C19.9831 8.38285 20.2638 8.62463 20.6619 8.81432C21.0599 9.004 21.4246 9.06977 21.4763 8.96121Z" fill="#B9C9B9"/>
<path d="M38.007 11.9847C38.0588 11.8761 37.778 11.6343 37.38 11.4446C36.9819 11.2549 36.6173 11.1892 36.5656 11.2977C36.5139 11.4063 36.7946 11.6481 37.1926 11.8378C37.5907 12.0274 37.9553 12.0932 38.007 11.9847Z" fill="#B9C9B9"/>
<path d="M42.3614 8.96033C42.4132 8.85177 42.1324 8.60999 41.7344 8.42031C41.3363 8.23062 40.9717 8.16485 40.92 8.27341C40.8682 8.38197 41.149 8.62374 41.547 8.81343C41.9451 9.00312 42.3097 9.06889 42.3614 8.96033Z" fill="#B9C9B9"/>
<path d="M44.1764 14.0067C44.2281 13.8981 43.9473 13.6563 43.5493 13.4666C43.1513 13.2769 42.7866 13.2112 42.7349 13.3197C42.6832 13.4283 42.9639 13.6701 43.362 13.8598C43.76 14.0494 44.1246 14.1152 44.1764 14.0067Z" fill="#B9C9B9"/>
<path d="M35.6685 16.8906C35.7203 16.7821 35.4395 16.5403 35.0415 16.3506C34.6434 16.1609 34.2788 16.0951 34.2271 16.2037C34.1754 16.3123 34.4561 16.554 34.8541 16.7437C35.2522 16.9334 35.6168 16.9992 35.6685 16.8906Z" fill="#B9C9B9"/>
<path d="M49.729 16.0716C51.1883 21.5514 47.6164 28.742 34.145 31.4041C33.681 31.4949 33.5358 32.0833 33.9039 32.3814C36.6568 34.6002 40.6902 36 45.1901 36C53.4876 36 60.2142 31.2382 60.2142 25.3644C60.2142 20.7893 56.1316 16.8907 50.4055 15.3899C49.9908 15.281 49.6175 15.6594 49.729 16.0742V16.0716Z" fill="#E8C696"/>
<path d="M56.3311 22.7879C56.772 22.7879 57.1295 22.5128 57.1295 22.1735C57.1295 21.8342 56.772 21.5592 56.3311 21.5592C55.8902 21.5592 55.5327 21.8342 55.5327 22.1735C55.5327 22.5128 55.8902 22.7879 56.3311 22.7879Z" fill="#F1DABA"/>
<path d="M39.6636 34.3773C40.1045 34.3773 40.462 34.1023 40.462 33.763C40.462 33.4237 40.1045 33.1487 39.6636 33.1487C39.2227 33.1487 38.8652 33.4237 38.8652 33.763C38.8652 34.1023 39.2227 34.3773 39.6636 34.3773Z" fill="#F1DABA"/>
<path d="M46.932 34.6158C47.373 34.6158 47.7304 34.415 47.7304 34.1673C47.7304 33.9197 47.373 33.7189 46.932 33.7189C46.4911 33.7189 46.1337 33.9197 46.1337 34.1673C46.1337 34.415 46.4911 34.6158 46.932 34.6158Z" fill="#F1DABA"/>
<path d="M51.8287 26.8264C52.2696 26.8264 52.627 26.6256 52.627 26.378C52.627 26.1303 52.2696 25.9295 51.8287 25.9295C51.3877 25.9295 51.0303 26.1303 51.0303 26.378C51.0303 26.6256 51.3877 26.8264 51.8287 26.8264Z" fill="#F1DABA"/>
<path d="M42.8934 33.3068C43.5276 33.3068 44.0418 32.8634 44.0418 32.3166C44.0418 31.7697 43.5276 31.3264 42.8934 31.3264C42.2592 31.3264 41.7451 31.7697 41.7451 32.3166C41.7451 32.8634 42.2592 33.3068 42.8934 33.3068Z" fill="#DA9A43"/>
<path d="M43.3756 33.146C44.0098 33.146 44.5239 32.7387 44.5239 32.2362C44.5239 31.7337 44.0098 31.3264 43.3756 31.3264C42.7414 31.3264 42.2273 31.7337 42.2273 32.2362C42.2273 32.7387 42.7414 33.146 43.3756 33.146Z" fill="#9A5E28"/>
<path d="M51.3335 33.3327C51.9849 33.3327 52.5129 32.8778 52.5129 32.3166C52.5129 31.7554 51.9849 31.3004 51.3335 31.3004C50.6821 31.3004 50.1541 31.7554 50.1541 32.3166C50.1541 32.8778 50.6821 33.3327 51.3335 33.3327Z" fill="#DA9A43"/>
<path d="M51.8286 33.1668C52.48 33.1668 53.008 32.749 53.008 32.2336C53.008 31.7182 52.48 31.3004 51.8286 31.3004C51.1772 31.3004 50.6492 31.7182 50.6492 32.2336C50.6492 32.749 51.1772 33.1668 51.8286 33.1668Z" fill="#9A5E28"/>
<path d="M53.6898 20.7271C54.3412 20.7271 54.8692 20.2722 54.8692 19.711C54.8692 19.1498 54.3412 18.6949 53.6898 18.6949C53.0384 18.6949 52.5104 19.1498 52.5104 19.711C52.5104 20.2722 53.0384 20.7271 53.6898 20.7271Z" fill="#DA9A43"/>
<path d="M54.1848 20.5638C54.8362 20.5638 55.3642 20.146 55.3642 19.6306C55.3642 19.1152 54.8362 18.6974 54.1848 18.6974C53.5334 18.6974 53.0054 19.1152 53.0054 19.6306C53.0054 20.146 53.5334 20.5638 54.1848 20.5638Z" fill="#9A5E28"/>
<path d="M47.5722 30.6991C47.986 30.6991 48.3214 30.4101 48.3214 30.0536C48.3214 29.6971 47.986 29.4082 47.5722 29.4082C47.1585 29.4082 46.8231 29.6971 46.8231 30.0536C46.8231 30.4101 47.1585 30.6991 47.5722 30.6991Z" fill="#DA9A43"/>
<path d="M47.8885 30.5954C48.3023 30.5954 48.6377 30.3296 48.6377 30.0018C48.6377 29.6739 48.3023 29.4082 47.8885 29.4082C47.4748 29.4082 47.1394 29.6739 47.1394 30.0018C47.1394 30.3296 47.4748 30.5954 47.8885 30.5954Z" fill="#9A5E28"/>
<path d="M54.711 25.9295C55.1248 25.9295 55.4602 25.6406 55.4602 25.2841C55.4602 24.9276 55.1248 24.6386 54.711 24.6386C54.2973 24.6386 53.9619 24.9276 53.9619 25.2841C53.9619 25.6406 54.2973 25.9295 54.711 25.9295Z" fill="#DA9A43"/>
<path d="M55.0248 25.8258C55.4385 25.8258 55.7739 25.5601 55.7739 25.2322C55.7739 24.9044 55.4385 24.6386 55.0248 24.6386C54.611 24.6386 54.2756 24.9044 54.2756 25.2322C54.2756 25.5601 54.611 25.8258 55.0248 25.8258Z" fill="#9A5E28"/>
</g>
<path d="M21.1782 48.66V57H19.8102V48.66H21.1782ZM26.3102 50.28C26.8302 50.28 27.2942 50.388 27.7022 50.604C28.1182 50.82 28.4422 51.14 28.6742 51.564C28.9062 51.988 29.0222 52.5 29.0222 53.1V57H27.6662V53.304C27.6662 52.712 27.5182 52.26 27.2222 51.948C26.9262 51.628 26.5222 51.468 26.0102 51.468C25.4982 51.468 25.0902 51.628 24.7862 51.948C24.4902 52.26 24.3422 52.712 24.3422 53.304V57H22.9742V50.388H24.3422V51.144C24.5662 50.872 24.8502 50.66 25.1942 50.508C25.5462 50.356 25.9182 50.28 26.3102 50.28ZM30.3112 53.664C30.3112 53 30.4472 52.412 30.7192 51.9C30.9992 51.388 31.3752 50.992 31.8472 50.712C32.3272 50.424 32.8592 50.28 33.4432 50.28C33.8752 50.28 34.2992 50.376 34.7152 50.568C35.1392 50.752 35.4752 51 35.7232 51.312V48.12H37.1032V57H35.7232V56.004C35.4992 56.324 35.1872 56.588 34.7872 56.796C34.3952 57.004 33.9432 57.108 33.4312 57.108C32.8552 57.108 32.3272 56.964 31.8472 56.676C31.3752 56.38 30.9992 55.972 30.7192 55.452C30.4472 54.924 30.3112 54.328 30.3112 53.664ZM35.7232 53.688C35.7232 53.232 35.6272 52.836 35.4352 52.5C35.2512 52.164 35.0072 51.908 34.7032 51.732C34.3992 51.556 34.0712 51.468 33.7192 51.468C33.3672 51.468 33.0392 51.556 32.7352 51.732C32.4312 51.9 32.1832 52.152 31.9912 52.488C31.8072 52.816 31.7152 53.208 31.7152 53.664C31.7152 54.12 31.8072 54.52 31.9912 54.864C32.1832 55.208 32.4312 55.472 32.7352 55.656C33.0472 55.832 33.3752 55.92 33.7192 55.92C34.0712 55.92 34.3992 55.832 34.7032 55.656C35.0072 55.48 35.2512 55.224 35.4352 54.888C35.6272 54.544 35.7232 54.144 35.7232 53.688ZM39.596 49.512C39.348 49.512 39.14 49.428 38.972 49.26C38.804 49.092 38.72 48.884 38.72 48.636C38.72 48.388 38.804 48.18 38.972 48.012C39.14 47.844 39.348 47.76 39.596 47.76C39.836 47.76 40.04 47.844 40.208 48.012C40.376 48.18 40.46 48.388 40.46 48.636C40.46 48.884 40.376 49.092 40.208 49.26C40.04 49.428 39.836 49.512 39.596 49.512ZM40.268 50.388V57H38.9V50.388H40.268ZM41.6081 53.664C41.6081 53 41.7441 52.412 42.0161 51.9C42.2961 51.388 42.6721 50.992 43.1441 50.712C43.6241 50.424 44.1521 50.28 44.7281 50.28C45.2481 50.28 45.7001 50.384 46.0841 50.592C46.4761 50.792 46.7881 51.044 47.0201 51.348V50.388H48.4001V57H47.0201V56.016C46.7881 56.328 46.4721 56.588 46.0721 56.796C45.6721 57.004 45.2161 57.108 44.7041 57.108C44.1361 57.108 43.6161 56.964 43.1441 56.676C42.6721 56.38 42.2961 55.972 42.0161 55.452C41.7441 54.924 41.6081 54.328 41.6081 53.664ZM47.0201 53.688C47.0201 53.232 46.9241 52.836 46.7321 52.5C46.5481 52.164 46.3041 51.908 46.0001 51.732C45.6961 51.556 45.3681 51.468 45.0161 51.468C44.6641 51.468 44.3361 51.556 44.0321 51.732C43.7281 51.9 43.4801 52.152 43.2881 52.488C43.1041 52.816 43.0121 53.208 43.0121 53.664C43.0121 54.12 43.1041 54.52 43.2881 54.864C43.4801 55.208 43.7281 55.472 44.0321 55.656C44.3441 55.832 44.6721 55.92 45.0161 55.92C45.3681 55.92 45.6961 55.832 46.0001 55.656C46.3041 55.48 46.5481 55.224 46.7321 54.888C46.9241 54.544 47.0201 54.144 47.0201 53.688ZM53.5329 50.28C54.0529 50.28 54.5169 50.388 54.9249 50.604C55.3409 50.82 55.6649 51.14 55.8969 51.564C56.1289 51.988 56.2449 52.5 56.2449 53.1V57H54.8889V53.304C54.8889 52.712 54.7409 52.26 54.4449 51.948C54.1489 51.628 53.7449 51.468 53.2329 51.468C52.7209 51.468 52.3129 51.628 52.0089 51.948C51.7129 52.26 51.5649 52.712 51.5649 53.304V57H50.1969V50.388H51.5649V51.144C51.7889 50.872 52.0729 50.66 52.4169 50.508C52.7689 50.356 53.1409 50.28 53.5329 50.28Z" fill="black"/>
<defs>
<clipPath id="clip0_134_18820">
<rect width="44.4241" height="32" fill="white" transform="translate(15.79 4)"/>
</clipPath>
</defs>
</svg>
