<svg width="76" height="62" viewBox="0 0 76 62" fill="none" xmlns="http://www.w3.org/2000/svg">
<g clip-path="url(#clip0_134_18816)">
<path d="M58.255 28.5709L56.959 30.8857L54.3642 34.5717C53.8613 35.4738 53.0941 36 52.2775 36H23.7199C22.9086 36 22.1387 35.4738 21.6332 34.5717L19.0385 30.8857L17.7424 28.5709H58.2576H58.255Z" fill="#F5F5FC"/>
<path d="M49.4521 14.4541H25.7573V28.2262H49.4521V14.4541Z" fill="#FFCD24"/>
<path d="M25.2181 13.9149V28.7679H49.9887V13.9149H25.2181ZM26.2991 27.6896V14.9959H48.9129V27.6896H26.2991Z" fill="#C46E00"/>
<path d="M25.3452 29.9914C29.6357 29.9914 33.1138 26.5133 33.1138 22.2228C33.1138 17.9322 29.6357 14.4541 25.3452 14.4541C21.0547 14.4541 17.5765 17.9322 17.5765 22.2228C17.5765 26.5133 21.0547 29.9914 25.3452 29.9914Z" fill="#FFCD24"/>
<path d="M32.8987 20.4083C32.7561 20.4731 32.5954 20.5068 32.4114 20.5068C32.3984 20.5068 32.3803 20.5068 32.3673 20.5016C32.3881 20.5871 32.4062 20.6753 32.4243 20.7608C32.5228 21.2326 32.5747 21.7199 32.5747 22.2254C32.5747 21.681 32.6602 21.16 32.8209 20.6675C32.8469 20.5897 32.8728 20.512 32.9039 20.4342V20.429C32.9039 20.429 32.9039 20.416 32.8987 20.4083ZM33.3938 20.175C33.386 20.1361 33.3757 20.092 33.3627 20.0531C33.3497 19.9935 33.3316 19.9313 33.3109 19.8717C33.2927 19.8121 33.2772 19.7499 33.2538 19.6902C33.1838 19.4699 33.1061 19.2574 33.0154 19.0474C32.9376 18.8582 32.8546 18.6715 32.7613 18.4901C32.5876 18.1453 32.3906 17.8161 32.1755 17.5025C32.0718 17.3521 31.9629 17.2044 31.8437 17.0618C31.7348 16.9192 31.6156 16.7767 31.4938 16.6419C30.9028 15.9913 30.2029 15.4288 29.4304 14.9933C29.0623 14.7807 28.6787 14.6045 28.2821 14.4541C28.0877 14.3815 27.8881 14.3115 27.6859 14.2519C26.9394 14.0316 26.1539 13.9149 25.3426 13.9149C25.2985 13.9149 25.2597 13.9149 25.2182 13.9201C24.2384 13.9331 23.2974 14.1197 22.4264 14.4463C22.1413 14.5552 21.8614 14.6744 21.5892 14.817C21.5062 14.8559 21.4285 14.9 21.3507 14.9466C18.7819 16.3542 17.0348 19.0863 17.0348 22.2228C17.0348 26.8031 20.7649 30.5306 25.3426 30.5306C27.2634 30.5306 29.0416 29.8696 30.4491 28.7653C30.6695 28.5968 30.8768 28.4154 31.0738 28.2262C31.2216 28.0888 31.359 27.9488 31.4938 27.7985C31.5275 27.7648 31.5586 27.7259 31.5897 27.687C31.6804 27.5885 31.7633 27.4874 31.8437 27.3837C31.9603 27.2412 32.0692 27.0934 32.1755 26.9431C32.3906 26.6268 32.5902 26.3002 32.7613 25.9554C32.8572 25.7688 32.9428 25.5848 33.0154 25.3955C33.1061 25.1882 33.1838 24.9756 33.2538 24.7579C33.513 23.9595 33.6504 23.1093 33.6504 22.2254C33.6504 21.5177 33.5649 20.8308 33.3912 20.175H33.3938ZM32.3414 24.045C32.3414 24.045 32.3362 24.0502 32.3414 24.0502C32.2714 24.3224 32.1859 24.5842 32.0822 24.8408C31.9215 25.2556 31.7271 25.647 31.4964 26.0203C31.3927 26.1887 31.2838 26.352 31.1672 26.5076C31.0557 26.6579 30.939 26.8057 30.812 26.9482C30.5839 27.2126 30.3377 27.4615 30.0707 27.6896C29.8503 27.884 29.6171 28.0603 29.3708 28.2288C29.0675 28.4309 28.7539 28.6098 28.4221 28.7679C27.4889 29.2086 26.4443 29.4548 25.3452 29.4548C21.3559 29.4548 18.1157 26.2095 18.1157 22.2254C18.1157 19.584 19.5362 17.2744 21.654 16.0198C21.7188 15.9757 21.7784 15.9368 21.8432 15.9031C22.1154 15.7528 22.3953 15.618 22.6883 15.5013C23.4737 15.1903 24.3239 15.014 25.2182 15.0011C25.2623 14.9959 25.3011 14.9959 25.3426 14.9959C25.48 14.9959 25.62 15.0011 25.7522 15.0088C25.9388 15.0166 26.1203 15.0348 26.2965 15.0607C27.45 15.211 28.5206 15.6387 29.4356 16.2686C29.9437 16.6186 30.4102 17.0333 30.812 17.5025C30.9339 17.6373 31.0453 17.7798 31.1542 17.925C31.1594 17.9302 31.162 17.938 31.1672 17.9431C31.2838 18.0987 31.3927 18.262 31.4964 18.4305C31.7296 18.8011 31.9241 19.1951 32.0822 19.6099C32.1392 19.7447 32.1859 19.8769 32.2299 20.0169C32.274 20.1465 32.3077 20.2709 32.3414 20.4005C32.3362 20.4005 32.3414 20.4057 32.3414 20.4057C32.3492 20.4368 32.3595 20.4705 32.3673 20.5042C32.3881 20.5897 32.4062 20.6778 32.4243 20.7634C32.5228 21.2352 32.5747 21.7225 32.5747 22.2279C32.5747 22.8578 32.4917 23.467 32.3414 24.0502V24.045ZM32.8987 20.4083C32.7561 20.4731 32.5954 20.5068 32.4114 20.5068C32.3984 20.5068 32.3803 20.5068 32.3673 20.5016C32.3881 20.5871 32.4062 20.6753 32.4243 20.7608C32.5228 21.2326 32.5747 21.7199 32.5747 22.2254C32.5747 21.681 32.6602 21.16 32.8209 20.6675C32.8469 20.5897 32.8728 20.512 32.9039 20.4342V20.429C32.9039 20.429 32.9039 20.416 32.8987 20.4083Z" fill="#C46E00"/>
<path d="M25.3451 27.8348C28.4446 27.8348 30.9571 25.3222 30.9571 22.2228C30.9571 19.1234 28.4446 16.6108 25.3451 16.6108C22.2457 16.6108 19.7332 19.1234 19.7332 22.2228C19.7332 25.3222 22.2457 27.8348 25.3451 27.8348Z" fill="#FFCD24"/>
<path d="M30.9079 19.6099C30.812 19.3973 30.7005 19.2003 30.5787 19.0059C30.4698 18.8296 30.3532 18.656 30.2236 18.4927C29.6585 17.7461 28.9197 17.137 28.0747 16.7196H28.0695C28.0125 16.6885 27.9606 16.6626 27.9062 16.6367C27.6936 16.5382 27.4707 16.45 27.2426 16.3775C26.9393 16.279 26.6205 16.2012 26.2965 16.1494C26.115 16.1234 25.9388 16.1027 25.7521 16.0923C25.6173 16.0794 25.4799 16.0742 25.3426 16.0742C25.2985 16.0742 25.2596 16.0742 25.2181 16.0794C24.6219 16.0871 24.0491 16.1882 23.5099 16.3567C23.1989 16.4526 22.9059 16.5719 22.6208 16.7144C22.556 16.7481 22.486 16.7844 22.4212 16.8233C20.5004 17.8602 19.1914 19.8924 19.1914 22.2279C19.1914 25.577 21.8795 28.3091 25.2181 28.3739C25.2622 28.3791 25.3011 28.3791 25.3426 28.3791C25.8014 28.3791 26.2446 28.3272 26.6775 28.2313C27.1985 28.1147 27.7014 27.9332 28.1628 27.6922C28.9742 27.2722 29.6766 26.6812 30.2262 25.9606C30.3558 25.7973 30.4724 25.6236 30.5813 25.4474C30.7031 25.253 30.8146 25.0534 30.9105 24.8434C31.2863 24.0502 31.4963 23.1637 31.4963 22.2279C31.4963 21.2922 31.2838 20.4057 30.9105 19.6125L30.9079 19.6099ZM25.7547 27.28C25.6199 27.293 25.4825 27.2982 25.3452 27.2982C25.3011 27.2982 25.2596 27.2982 25.2207 27.293C22.4808 27.2282 20.2749 24.9782 20.2749 22.2253C20.2749 19.7965 21.9935 17.7591 24.285 17.2692C24.5831 17.2044 24.8941 17.1655 25.2078 17.1577H25.2207C25.2596 17.1525 25.3037 17.1525 25.3452 17.1525C25.4825 17.1525 25.6225 17.1577 25.7547 17.1707C25.9413 17.1836 26.1228 17.2095 26.2991 17.2432C27.7662 17.5232 29.013 18.4382 29.7337 19.6902C29.871 19.9287 29.9929 20.175 30.0888 20.4316C30.3013 20.9889 30.418 21.5929 30.418 22.2228C30.418 22.8526 30.3013 23.4566 30.0888 24.0139C29.9929 24.2731 29.8736 24.5194 29.7337 24.7553C29.013 26.0073 27.7662 26.9223 26.2991 27.2023C26.1228 27.236 25.9413 27.2619 25.7547 27.2748V27.28Z" fill="#C46E00"/>
<path d="M25.3452 25.6755C27.2521 25.6755 28.7979 24.1296 28.7979 22.2228C28.7979 20.3159 27.2521 18.77 25.3452 18.77C23.4383 18.77 21.8925 20.3159 21.8925 22.2228C21.8925 24.1296 23.4383 25.6755 25.3452 25.6755Z" fill="#FFCD24"/>
<path d="M26.2991 18.3475C26.1228 18.3034 25.9414 18.2697 25.7547 18.2516C25.6199 18.2386 25.4826 18.2309 25.3452 18.2309C25.3011 18.2309 25.2622 18.2309 25.2207 18.236C23.0745 18.3009 21.3533 20.0661 21.3533 22.2254C21.3533 24.3846 23.0745 26.1499 25.2207 26.2147C25.2648 26.2198 25.3037 26.2198 25.3452 26.2198C25.4826 26.2198 25.6225 26.2121 25.7547 26.1991C25.9414 26.181 26.1228 26.1473 26.2991 26.1032C28.0436 25.6755 29.3371 24.0995 29.3371 22.2279C29.3371 20.3564 28.041 18.7804 26.2991 18.3527V18.3475ZM26.2991 24.973C26.1254 25.0378 25.944 25.0819 25.7547 25.1026C25.6199 25.1286 25.4826 25.1363 25.3452 25.1363C25.3011 25.1363 25.2622 25.1363 25.2207 25.1286C23.6706 25.0689 22.4316 23.7858 22.4316 22.2228C22.4316 20.6597 23.6706 19.3792 25.2207 19.317C25.2648 19.3092 25.3037 19.3092 25.3452 19.3092C25.4826 19.3092 25.6225 19.317 25.7547 19.3429C25.944 19.3636 26.1254 19.4077 26.2991 19.4725C27.4396 19.8665 28.2587 20.9474 28.2587 22.2228C28.2587 23.4981 27.4396 24.579 26.2991 24.973Z" fill="#C46E00"/>
<path d="M37.6449 29.9914C41.9354 29.9914 45.4135 26.5133 45.4135 22.2228C45.4135 17.9322 41.9354 14.4541 37.6449 14.4541C33.3544 14.4541 29.8762 17.9322 29.8762 22.2228C29.8762 26.5133 33.3544 29.9914 37.6449 29.9914Z" fill="#FFCD24"/>
<path d="M45.1258 20.1309C45.1128 20.0739 45.0947 20.0194 45.0791 19.9624C45.048 19.851 45.0091 19.7421 44.9702 19.6306C44.9754 19.6228 44.978 19.6125 44.9832 19.6047H44.9884C45.0143 19.5477 45.0454 19.4932 45.0791 19.4362C45.0143 19.4233 44.9443 19.4103 44.8795 19.3921C44.8329 19.2625 44.7758 19.1381 44.7188 19.0111H44.7059C44.641 19.107 44.584 19.2107 44.5296 19.3092C44.4311 19.2833 44.3274 19.2574 44.2237 19.2262C44.2548 19.2911 44.2833 19.361 44.3144 19.4284C44.3404 19.4855 44.3611 19.5451 44.3844 19.6047C44.4881 19.8639 44.5737 20.1231 44.6436 20.3953C44.6385 20.3953 44.6436 20.4005 44.6436 20.4005C44.794 20.9837 44.8769 21.5929 44.8769 22.2228C44.8769 21.5929 44.9936 20.9889 45.2061 20.4316C45.1854 20.3331 45.1595 20.2294 45.1284 20.1283L45.1258 20.1309ZM30.5787 19.0033C30.5139 19.1329 30.4543 19.2677 30.405 19.4051C30.3713 19.4777 30.3454 19.5529 30.3195 19.6306L30.3324 19.6565C30.3661 19.7265 30.4024 19.7939 30.4361 19.8691C30.4931 19.9857 30.5398 20.1024 30.5864 20.2242C30.6046 20.2812 30.6253 20.3409 30.6461 20.4005C30.7161 20.1283 30.8016 19.8691 30.9053 19.6099C30.8094 19.3973 30.6979 19.2003 30.5761 19.0059L30.5787 19.0033ZM45.1258 20.1309C45.1128 20.0739 45.0947 20.0194 45.0791 19.9624C45.048 19.851 45.0091 19.7421 44.9702 19.6306C44.9651 19.6228 44.9625 19.6099 44.9625 19.5995C44.8536 19.5736 44.7473 19.5477 44.6333 19.5166C44.5762 19.5036 44.5114 19.4855 44.4518 19.4699C44.4259 19.5166 44.4052 19.5606 44.3818 19.6073C44.4855 19.8665 44.5711 20.1257 44.641 20.3979C44.6359 20.3979 44.641 20.4031 44.641 20.4031C44.7914 20.9863 44.8743 21.5955 44.8743 22.2254C44.8743 21.5955 44.991 20.9915 45.2035 20.4342C45.1828 20.3357 45.1569 20.232 45.1258 20.1309ZM45.5664 19.7162C45.5664 19.7162 45.5613 19.698 45.5587 19.6902C45.5405 19.6306 45.5198 19.5684 45.499 19.5088C45.455 19.374 45.4083 19.2444 45.3513 19.12C45.3435 19.094 45.3332 19.0733 45.3202 19.0474C45.2424 18.8582 45.1595 18.6715 45.0662 18.4901C44.8925 18.1453 44.6955 17.8161 44.4803 17.5025C44.3766 17.3521 44.2678 17.2044 44.1485 17.0618C44.0397 16.9192 43.9204 16.7767 43.7986 16.6419C43.2076 15.9913 42.5077 15.4288 41.7353 14.9933C41.3672 14.7807 40.9835 14.6045 40.5869 14.4541C39.6719 14.1042 38.6791 13.9149 37.6474 13.9149C36.6158 13.9149 35.623 14.1042 34.708 14.4541C34.3114 14.6045 33.9277 14.7833 33.5596 14.9933C32.7872 15.4288 32.0873 15.9913 31.4963 16.6419C31.3745 16.7767 31.2552 16.9192 31.1464 17.0618C31.0764 17.1448 31.0167 17.2225 30.9519 17.3081C30.9053 17.3729 30.8612 17.4377 30.8146 17.5025C30.7498 17.5984 30.685 17.6917 30.6201 17.7928V17.798C30.5865 17.8498 30.5553 17.9017 30.5242 17.9535V17.9587C30.4154 18.1324 30.3169 18.3138 30.2261 18.4927C30.1302 18.6741 30.0499 18.8608 29.9721 19.05C29.8814 19.2625 29.8036 19.4725 29.7336 19.6928C29.4744 20.4912 29.337 21.3414 29.337 22.2254C29.337 23.1093 29.4744 23.9595 29.7336 24.7579C29.8036 24.9782 29.8814 25.1908 29.9721 25.3955C30.0447 25.5848 30.1328 25.7714 30.2261 25.9554C30.3998 26.3002 30.5968 26.6294 30.812 26.9431C30.9208 27.0934 31.0271 27.2412 31.1438 27.3837C31.2267 27.4874 31.3071 27.5859 31.3978 27.687C31.4289 27.7259 31.4574 27.7648 31.4937 27.7985C31.6285 27.9488 31.7659 28.0888 31.9136 28.2262C32.1132 28.4154 32.3206 28.5968 32.5383 28.7653C33.9459 29.8696 35.7241 30.5306 37.6449 30.5306C39.5656 30.5306 41.3438 29.8696 42.7514 28.7653C42.9717 28.5968 43.1791 28.4154 43.3761 28.2262C43.5238 28.0888 43.6612 27.9488 43.796 27.7985C43.8297 27.7648 43.8608 27.7259 43.8919 27.687C43.9826 27.5885 44.0656 27.4874 44.1459 27.3837C44.2626 27.2412 44.3715 27.0934 44.4777 26.9431C44.6929 26.6268 44.8925 26.3002 45.0636 25.9554C45.1595 25.7688 45.245 25.5848 45.3176 25.3955C45.4083 25.1882 45.4861 24.9756 45.5561 24.7579C45.8153 23.9595 45.9527 23.1093 45.9527 22.2254C45.9527 21.3414 45.8179 20.5068 45.5639 19.7188L45.5664 19.7162ZM44.6436 24.045C44.6436 24.045 44.6385 24.0502 44.6436 24.0502C44.5737 24.3224 44.4881 24.5842 44.3844 24.8408C44.2237 25.2556 44.0293 25.647 43.7986 26.0203C43.6949 26.1887 43.586 26.352 43.4694 26.5076C43.3579 26.6579 43.2413 26.8057 43.1143 26.9482C42.8862 27.2126 42.6399 27.4615 42.3729 27.6896C42.1526 27.884 41.9193 28.0603 41.673 28.2288C41.3698 28.4309 41.0561 28.6098 40.7243 28.7679C39.7911 29.2086 38.7465 29.4548 37.6474 29.4548C36.5484 29.4548 35.5012 29.2086 34.5706 28.7679C34.2388 28.6072 33.9225 28.4309 33.6218 28.2288C33.3756 28.0603 33.1423 27.884 32.922 27.6896C32.655 27.4615 32.4087 27.21 32.1806 26.9482C32.0562 26.8057 31.9395 26.6579 31.8255 26.5076C31.7088 26.352 31.6 26.1887 31.4963 26.0203C31.263 25.6496 31.0686 25.2556 30.9105 24.8408C30.8068 24.5868 30.7212 24.3224 30.6513 24.0502V24.045C30.5009 23.4618 30.418 22.8527 30.418 22.2228C30.418 21.5929 30.5009 20.9837 30.6513 20.4005V20.3953C30.7212 20.1231 30.8068 19.8639 30.9105 19.6047C30.9182 19.5788 30.9286 19.558 30.9416 19.5321V19.5269C30.9675 19.4544 31.0012 19.3844 31.0323 19.3118C31.1178 19.1096 31.2189 18.91 31.3252 18.7156C31.3822 18.6171 31.4367 18.5212 31.4989 18.4253C31.6026 18.2568 31.7114 18.0935 31.8281 17.938C31.9395 17.7876 32.0562 17.6399 32.1832 17.4973C33.5078 15.9601 35.4675 14.9907 37.6526 14.9907C39.8378 14.9907 41.7975 15.9627 43.1221 17.4973C43.2465 17.6399 43.3631 17.7876 43.4772 17.938C43.5938 18.0935 43.7027 18.2568 43.8064 18.4253C43.8919 18.5601 43.9749 18.7026 44.0474 18.8452C44.1123 18.9696 44.1771 19.0966 44.2341 19.2262C44.2652 19.2911 44.2937 19.361 44.3248 19.4284C44.3507 19.4855 44.3715 19.5451 44.3948 19.6047C44.4985 19.8639 44.584 20.1231 44.654 20.3953C44.6488 20.3953 44.654 20.4005 44.654 20.4005C44.8044 20.9837 44.8873 21.5929 44.8873 22.2228C44.8873 22.8527 44.8044 23.4618 44.654 24.045H44.6436ZM30.5787 19.0033C30.5139 19.1329 30.4543 19.2677 30.405 19.4051C30.3713 19.4777 30.3454 19.5529 30.3195 19.6306L30.3324 19.6565C30.3661 19.7265 30.4024 19.7939 30.4361 19.8691C30.4931 19.9857 30.5398 20.1024 30.5864 20.2242C30.6046 20.2812 30.6253 20.3409 30.6461 20.4005C30.7161 20.1283 30.8016 19.8691 30.9053 19.6099C30.8094 19.3973 30.6979 19.2003 30.5761 19.0059L30.5787 19.0033ZM45.1258 20.1309C45.1128 20.0739 45.0947 20.0194 45.0791 19.9624C45.048 19.851 45.0091 19.7421 44.9702 19.6306C44.9754 19.6228 44.978 19.6125 44.9832 19.6047H44.9884C45.0143 19.5477 45.0454 19.4932 45.0791 19.4362C45.0143 19.4233 44.9443 19.4103 44.8795 19.3921C44.8329 19.2625 44.7758 19.1381 44.7188 19.0111H44.7059C44.641 19.107 44.584 19.2107 44.5296 19.3092C44.4311 19.2833 44.3274 19.2574 44.2237 19.2262C44.2548 19.2911 44.2833 19.361 44.3144 19.4284C44.3404 19.4855 44.3611 19.5451 44.3844 19.6047C44.4881 19.8639 44.5737 20.1231 44.6436 20.3953C44.6385 20.3953 44.6436 20.4005 44.6436 20.4005C44.794 20.9837 44.8769 21.5929 44.8769 22.2228C44.8769 21.5929 44.9936 20.9889 45.2061 20.4316C45.1854 20.3331 45.1595 20.2294 45.1284 20.1283L45.1258 20.1309Z" fill="#C46E00"/>
<path d="M37.6449 27.8348C40.7444 27.8348 43.2569 25.3222 43.2569 22.2228C43.2569 19.1234 40.7444 16.6108 37.6449 16.6108C34.5455 16.6108 32.033 19.1234 32.033 22.2228C32.033 25.3222 34.5455 27.8348 37.6449 27.8348Z" fill="#FFCD24"/>
<path d="M42.2719 19.0474C42.2538 19.0266 42.2408 19.0033 42.2253 18.9826C42.1475 18.8737 42.0697 18.77 41.9842 18.6663C41.9842 18.6611 41.979 18.6586 41.9764 18.6534C41.9453 18.6197 41.9168 18.5808 41.8857 18.5445H41.8805C41.8105 18.4667 41.7431 18.389 41.668 18.3164C40.1023 17.6787 38.7077 17.0436 37.6631 17.0436C36.2556 17.0436 35.4131 17.4584 34.8403 18.0027C35.0658 17.855 35.2991 17.7228 35.5427 17.6139C35.5427 17.6087 35.5479 17.6087 35.5479 17.6087C35.9678 17.4143 36.4163 17.2795 36.8829 17.207C36.9554 17.1992 37.0306 17.1888 37.1032 17.181C37.1213 17.1758 37.1421 17.1758 37.1602 17.1758C37.2432 17.1681 37.3235 17.1577 37.4117 17.1577C37.4894 17.1499 37.5672 17.1499 37.6501 17.1499C38.5833 17.1499 39.4543 17.404 40.2086 17.8446C40.2086 17.8446 40.2112 17.8463 40.2164 17.8498C40.9707 18.2957 41.6032 18.9333 42.0386 19.6876C42.176 19.9261 42.2979 20.1724 42.3938 20.429C42.4145 20.3305 42.4404 20.2268 42.4715 20.1257C42.4845 20.0687 42.5026 20.0142 42.5182 19.9572C42.5493 19.8458 42.5882 19.7369 42.6271 19.6254C42.5182 19.4232 42.4015 19.2288 42.2771 19.0422L42.2719 19.0474ZM32.8987 20.4082C32.8987 20.4082 32.9039 20.4212 32.9039 20.429C32.9091 20.416 32.9117 20.4108 32.9221 20.3979C32.9169 20.4031 32.9091 20.4031 32.9013 20.4057L32.8987 20.4082ZM42.7981 20.0065C42.7463 19.8846 42.6893 19.7654 42.6296 19.6436C42.6245 19.6384 42.6245 19.6358 42.6219 19.6306C42.513 19.4284 42.3964 19.234 42.2719 19.0474C42.1812 19.2599 42.1034 19.4699 42.0335 19.6902C42.1708 19.9287 42.2927 20.175 42.3886 20.4316C42.6011 20.9889 42.7178 21.5929 42.7178 22.2228C42.7178 21.5929 42.8007 20.9837 42.9511 20.4005V20.3953C42.9044 20.2605 42.8552 20.1309 42.8007 20.0013L42.7981 20.0065ZM43.2103 19.6099C43.1144 19.3973 43.0029 19.2003 42.8811 19.0059C42.8629 18.98 42.85 18.9541 42.8292 18.9281C42.7904 18.8556 42.7437 18.7856 42.6945 18.7208C42.6426 18.643 42.5856 18.5652 42.526 18.4927C42.4689 18.4149 42.4093 18.3423 42.3445 18.2671C41.2169 16.9244 39.5294 16.0742 37.645 16.0742C35.6542 16.0742 33.8864 17.0229 32.764 18.4901C32.6343 18.6534 32.5177 18.827 32.4088 19.0033C32.287 19.1977 32.1755 19.3973 32.0796 19.6073C32.0356 19.698 31.9941 19.7887 31.9578 19.8846C31.8878 20.0453 31.8282 20.2138 31.7712 20.3797C31.7452 20.4653 31.7193 20.5534 31.6986 20.639C31.5638 21.1444 31.4912 21.6758 31.4912 22.2228C31.4912 23.1585 31.7038 24.045 32.077 24.8382C32.1729 25.0508 32.2844 25.2478 32.4062 25.4422C32.5151 25.6185 32.6318 25.7921 32.7614 25.9554C33.3083 26.6761 34.0134 27.2671 34.8247 27.687C35.2861 27.9281 35.7864 28.1095 36.31 28.2262C36.7429 28.3221 37.1861 28.3739 37.645 28.3739C38.1038 28.3739 38.547 28.3221 38.9799 28.2262C39.5009 28.1095 40.0038 27.9281 40.4652 27.687C41.2765 27.2671 41.979 26.6761 42.5286 25.9554C42.6582 25.7921 42.7748 25.6185 42.8837 25.4422C43.0055 25.2478 43.117 25.0482 43.2129 24.8382C43.5887 24.045 43.7987 23.1585 43.7987 22.2228C43.7987 21.287 43.5861 20.4005 43.2129 19.6073L43.2103 19.6099ZM32.821 20.6649C32.8469 20.5871 32.8728 20.5093 32.9039 20.4316V20.4264C32.9091 20.4134 32.9117 20.4082 32.9221 20.3953C32.9687 20.2579 33.0309 20.1231 33.0957 19.9883C33.1476 19.8846 33.1994 19.7861 33.2591 19.685C33.5494 19.1848 33.9226 18.7363 34.3633 18.363C34.5136 18.2283 34.6744 18.109 34.8429 17.995C35.0684 17.8472 35.3017 17.715 35.5453 17.6061C35.5453 17.601 35.5505 17.601 35.5505 17.601C35.9704 17.4065 36.4189 17.2718 36.8855 17.1992C36.958 17.1914 37.0332 17.181 37.1058 17.1733C37.1239 17.1681 37.1447 17.1681 37.1628 17.1681C37.2458 17.1603 37.3261 17.1499 37.4143 17.1499C37.492 17.1422 37.5698 17.1422 37.6527 17.1422C38.5859 17.1422 39.4569 17.3962 40.2112 17.8368C40.2112 17.8368 40.2138 17.8386 40.219 17.842C40.9733 18.2879 41.6058 18.9255 42.0412 19.6799C42.1786 19.9183 42.3004 20.1646 42.3964 20.4212C42.6089 20.9785 42.7256 21.5825 42.7256 22.2124C42.7256 22.8423 42.6089 23.4462 42.3964 24.0036C42.3004 24.2628 42.1812 24.509 42.0412 24.7449C41.1651 26.2587 39.5243 27.2826 37.6527 27.2826C35.7812 27.2826 34.1404 26.2587 33.2642 24.7449C33.1269 24.5064 33.005 24.2628 32.9091 24.0036C32.6966 23.4462 32.5799 22.8423 32.5799 22.2124C32.5799 21.668 32.6655 21.147 32.8262 20.6545L32.821 20.6649ZM32.8987 20.4082C32.8987 20.4082 32.9039 20.4212 32.9039 20.429C32.9091 20.416 32.9117 20.4108 32.9221 20.3979C32.9169 20.4031 32.9091 20.4031 32.9013 20.4057L32.8987 20.4082ZM42.7981 20.0065C42.7463 19.8846 42.6893 19.7654 42.6296 19.6436C42.6245 19.6384 42.6245 19.6358 42.6219 19.6306C42.513 19.4284 42.3964 19.234 42.2719 19.0474C42.2538 19.0266 42.2408 19.0033 42.2253 18.9826C42.1475 18.8737 42.0697 18.77 41.9842 18.6663C41.9842 18.6611 41.979 18.6586 41.9764 18.6534C41.9453 18.6197 41.9168 18.5808 41.8857 18.5445H41.8805C41.8105 18.4667 41.7431 18.389 41.668 18.3164C40.1023 17.6787 38.7077 17.0436 37.6631 17.0436C36.2556 17.0436 35.4131 17.4584 34.8403 18.0027C35.0658 17.855 35.2991 17.7228 35.5427 17.6139C35.5427 17.6087 35.5479 17.6087 35.5479 17.6087C35.9678 17.4143 36.4163 17.2795 36.8829 17.207C36.9554 17.1992 37.0306 17.1888 37.1032 17.181C37.1213 17.1758 37.1421 17.1758 37.1602 17.1758C37.2432 17.1681 37.3235 17.1577 37.4117 17.1577C37.4894 17.1499 37.5672 17.1499 37.6501 17.1499C38.5833 17.1499 39.4543 17.404 40.2086 17.8446C40.2086 17.8446 40.2112 17.8463 40.2164 17.8498C40.9707 18.2957 41.6032 18.9333 42.0386 19.6876C42.176 19.9261 42.2979 20.1724 42.3938 20.429C42.6063 20.9863 42.723 21.5903 42.723 22.2202C42.723 21.5903 42.8059 20.9811 42.9563 20.3979V20.3927C42.9096 20.2579 42.8603 20.1283 42.8059 19.9987L42.7981 20.0065Z" fill="#C46E00"/>
<path d="M37.6449 25.6755C39.5518 25.6755 41.0976 24.1296 41.0976 22.2228C41.0976 20.3159 39.5518 18.77 37.6449 18.77C35.738 18.77 34.1921 20.3159 34.1921 22.2228C34.1921 24.1296 35.738 25.6755 37.6449 25.6755Z" fill="#FFCD24"/>
<path d="M37.6449 18.2309C35.4441 18.2309 33.653 20.022 33.653 22.2228C33.653 24.4235 35.4441 26.2147 37.6449 26.2147C39.8456 26.2147 41.6368 24.4235 41.6368 22.2228C41.6368 20.022 39.8456 18.2309 37.6449 18.2309ZM37.6449 25.1389C36.0403 25.1389 34.7313 23.8299 34.7313 22.2254C34.7313 20.6208 36.0403 19.3118 37.6449 19.3118C39.2494 19.3118 40.5584 20.6208 40.5584 22.2254C40.5584 23.8299 39.2494 25.1389 37.6449 25.1389Z" fill="#C46E00"/>
<path d="M49.9472 29.9914C54.2377 29.9914 57.7159 26.5133 57.7159 22.2228C57.7159 17.9322 54.2377 14.4541 49.9472 14.4541C45.6567 14.4541 42.1786 17.9322 42.1786 22.2228C42.1786 26.5133 45.6567 29.9914 49.9472 29.9914Z" fill="#FFCD24"/>
<path d="M42.964 18.8193C42.9433 18.8633 42.92 18.9048 42.9044 18.9541V18.9593C42.8966 18.9774 42.8863 18.9904 42.8837 19.0059C42.8655 18.98 42.8526 18.9541 42.8318 18.9282C42.7929 18.8556 42.7463 18.7856 42.697 18.7208C42.6141 18.6897 42.5337 18.6612 42.456 18.6301C42.4352 18.6741 42.4171 18.7156 42.3989 18.7597C42.3523 18.8556 42.3134 18.9489 42.2745 19.05C42.3989 19.2366 42.5156 19.431 42.6244 19.6332C42.5856 19.7447 42.5467 19.8535 42.5156 19.965C42.4974 20.022 42.4819 20.0765 42.4689 20.1335C42.4378 20.232 42.4119 20.3357 42.3912 20.4368C42.6037 20.9941 42.7204 21.5981 42.7204 22.2279C42.7204 21.5981 42.8033 20.9889 42.9536 20.4057V20.4005C43.0236 20.1283 43.1092 19.8691 43.2129 19.6099C43.2725 19.4492 43.3425 19.2936 43.415 19.1407C43.4358 19.094 43.4591 19.05 43.4799 19.0033C43.3062 18.9463 43.1351 18.8867 42.9666 18.8219L42.964 18.8193ZM42.8811 19.0033C42.7826 19.2055 42.6944 19.4129 42.6219 19.628C42.627 19.6332 42.627 19.6358 42.6296 19.641C42.6892 19.7628 42.7463 19.8821 42.7981 20.0039C42.8551 20.1335 42.9018 20.2631 42.9485 20.3979C43.0185 20.1257 43.104 19.8665 43.2077 19.6073C43.1118 19.3947 43.0003 19.1977 42.8785 19.0033H42.8811ZM53.2574 14.607C53.1745 14.5682 53.0889 14.5345 53.0034 14.4982C52.739 14.3945 52.472 14.3038 52.1972 14.2312C51.4948 14.029 50.756 13.9201 49.9913 13.9149H49.9472C48.9156 13.9149 47.9228 14.1042 47.0078 14.4541C46.6112 14.6045 46.2275 14.7833 45.8594 14.9933C45.087 15.4288 44.3871 15.9913 43.7961 16.6419C43.6743 16.7767 43.555 16.9192 43.4462 17.0618C43.3243 17.2044 43.218 17.3521 43.1144 17.5025C42.9251 17.7746 42.7515 18.0624 42.5959 18.3605C42.57 18.4045 42.5493 18.446 42.5259 18.4901C42.5 18.5341 42.4793 18.5808 42.4534 18.6275C42.4326 18.6715 42.4145 18.713 42.3963 18.7571C42.3497 18.853 42.3108 18.9463 42.2719 19.0474C42.1812 19.2599 42.1034 19.4699 42.0334 19.6902C41.7742 20.4886 41.6368 21.3388 41.6368 22.2228C41.6368 23.1067 41.7742 23.9569 42.0334 24.7553C42.1034 24.9756 42.1812 25.1882 42.2719 25.393C42.3445 25.5822 42.4326 25.7688 42.5259 25.9529C42.6996 26.2976 42.8966 26.6268 43.1118 26.9405C43.2206 27.0908 43.3269 27.2386 43.4436 27.3811C43.5265 27.4848 43.6069 27.5833 43.6976 27.6844C43.7287 27.7233 43.7572 27.7622 43.7935 27.7959C43.9283 27.9462 44.0657 28.0862 44.2134 28.2236C44.413 28.4128 44.6204 28.5943 44.8381 28.7627C46.2457 29.867 48.0239 30.528 49.9447 30.528C54.525 30.528 58.2525 26.7979 58.2525 22.2202C58.2525 18.8141 56.1943 15.885 53.2548 14.6019L53.2574 14.607ZM49.9472 29.4548C48.8456 29.4548 47.801 29.2086 46.8704 28.7679C46.5386 28.6072 46.2223 28.4309 45.9217 28.2288C45.6754 28.0603 45.4421 27.884 45.2218 27.6896C44.9548 27.4615 44.7085 27.21 44.4804 26.9482C44.356 26.8057 44.2394 26.6579 44.1253 26.5076C44.0087 26.352 43.8998 26.1887 43.7961 26.0203C43.5628 25.6496 43.3684 25.2556 43.2103 24.8408C43.1066 24.5868 43.021 24.3224 42.9511 24.0502V24.045C42.8007 23.4618 42.7178 22.8527 42.7178 22.2228C42.7178 21.5929 42.8007 20.9837 42.9511 20.4005V20.3953C43.021 20.1231 43.1066 19.8639 43.2103 19.6047C43.2699 19.444 43.3399 19.2885 43.4125 19.1355C43.4332 19.0889 43.4565 19.0448 43.4773 18.9981C43.5239 18.9022 43.5732 18.8115 43.625 18.7208C43.682 18.6223 43.7365 18.5212 43.7987 18.4279C43.9024 18.2594 44.0112 18.0961 44.1279 17.9405C44.2394 17.7902 44.356 17.6424 44.483 17.4999C45.5924 16.209 47.1555 15.3199 48.9156 15.0659C49.0918 15.0399 49.2733 15.0218 49.4547 15.0088C49.618 14.9959 49.7839 14.9907 49.9498 14.9907H49.9939C50.7664 14.9959 51.5077 15.1203 52.2076 15.3536C52.5005 15.4495 52.7856 15.5661 53.063 15.6957C53.1356 15.7294 53.2108 15.7683 53.2782 15.8072C55.5955 17.0126 57.1793 19.4336 57.1793 22.2202C57.1793 26.2043 53.9366 29.4497 49.9498 29.4497L49.9472 29.4548ZM42.964 18.8193C42.9433 18.8633 42.92 18.9048 42.9044 18.9541V18.9593C42.8966 18.9774 42.8863 18.9904 42.8837 19.0059C42.8655 18.98 42.8526 18.9541 42.8318 18.9282C42.7929 18.8556 42.7463 18.7856 42.697 18.7208C42.6141 18.6897 42.5337 18.6612 42.456 18.6301C42.4352 18.6741 42.4171 18.7156 42.3989 18.7597C42.3523 18.8556 42.3134 18.9489 42.2745 19.05C42.3989 19.2366 42.5156 19.431 42.6244 19.6332C42.6296 19.6384 42.6296 19.641 42.6322 19.6462C42.6918 19.768 42.7489 19.8872 42.8007 20.0091C42.8577 20.1387 42.9044 20.2683 42.9511 20.4031C43.021 20.1309 43.1066 19.8717 43.2103 19.6125C43.2699 19.4518 43.3399 19.2962 43.4125 19.1433C43.4332 19.0966 43.4565 19.0526 43.4773 19.0059C43.3036 18.9489 43.1325 18.8893 42.964 18.8245V18.8193Z" fill="#C46E00"/>
<path d="M49.9472 27.8348C53.0466 27.8348 55.5592 25.3222 55.5592 22.2228C55.5592 19.1234 53.0466 16.6108 49.9472 16.6108C46.8478 16.6108 44.3352 19.1234 44.3352 22.2228C44.3352 25.3222 46.8478 27.8348 49.9472 27.8348Z" fill="#FFCD24"/>
<path d="M45.4965 19.5088C45.4524 19.374 45.4057 19.2444 45.3487 19.12C45.328 19.12 45.3021 19.1148 45.2761 19.1122C45.2061 19.221 45.1413 19.3247 45.0765 19.4362C45.0428 19.4932 45.0117 19.5477 44.9858 19.6047H44.9806C44.9806 19.6047 44.9729 19.6228 44.9677 19.6306C45.0066 19.7421 45.0454 19.8509 45.0765 19.9624C45.0947 20.0194 45.1102 20.0739 45.1232 20.1309C45.1543 20.2294 45.1802 20.3331 45.201 20.4342C45.2917 20.1827 45.4083 19.9417 45.5431 19.7136C45.5483 19.7058 45.5509 19.7006 45.5561 19.6928C45.5872 19.641 45.6157 19.5839 45.652 19.5321C45.6002 19.5269 45.5483 19.5191 45.4965 19.5114V19.5088ZM45.1906 19.6513C45.1258 19.6384 45.0558 19.6202 44.9884 19.6047H44.9832C44.9832 19.6047 44.9754 19.6228 44.9703 19.6306C45.0091 19.7421 45.048 19.8509 45.0791 19.9624C45.0973 20.0194 45.1128 20.0739 45.1258 20.1309C45.1569 20.2294 45.1828 20.3331 45.2036 20.4342C45.2943 20.1827 45.4109 19.9417 45.5457 19.7136C45.4291 19.6954 45.3072 19.6747 45.1906 19.6539V19.6513ZM52.8815 16.8207C52.8115 16.7818 52.7389 16.743 52.6663 16.7093C52.389 16.5719 52.0961 16.4552 51.7954 16.3593C51.2251 16.1779 50.6211 16.0794 49.9912 16.0742H49.9472C49.7787 16.0742 49.6154 16.082 49.4521 16.0949C49.2706 16.1079 49.0892 16.1286 48.9129 16.1597C47.3498 16.4267 45.9916 17.2821 45.0662 18.4901C44.9366 18.6534 44.8199 18.827 44.711 19.0033C44.7059 19.0033 44.7059 19.0085 44.7059 19.0111C44.6411 19.107 44.584 19.2107 44.5296 19.3092C44.5037 19.361 44.4726 19.4181 44.4518 19.4699C44.4259 19.5166 44.4052 19.5606 44.3818 19.6073C44.006 20.4005 43.796 21.287 43.796 22.2228C43.796 23.1585 44.0086 24.045 44.3818 24.8382C44.4778 25.0508 44.5892 25.2478 44.711 25.4422C44.8199 25.6185 44.9366 25.7921 45.0662 25.9554C45.6131 26.6761 46.3182 27.2671 47.1295 27.687C47.5909 27.9281 48.0912 28.1095 48.6148 28.2262C49.0477 28.3221 49.491 28.3739 49.9498 28.3739H49.9938C53.3636 28.3532 56.1009 25.6029 56.1009 22.2228C56.1009 19.8924 54.8023 17.8628 52.8841 16.8181L52.8815 16.8207ZM49.9912 27.2956H49.9472C49.7787 27.2956 49.6154 27.2878 49.4521 27.2697C49.2706 27.2515 49.0892 27.2256 48.9129 27.1867C47.4795 26.8886 46.2663 25.9865 45.5587 24.7579C45.4213 24.5194 45.2995 24.2757 45.2036 24.0165C44.991 23.4592 44.8744 22.8552 44.8744 22.2253C44.8744 21.5955 44.991 20.9915 45.2036 20.4342C45.2943 20.1827 45.4109 19.9417 45.5457 19.7136C45.5509 19.7058 45.5535 19.7006 45.5587 19.6928C45.5898 19.641 45.6183 19.5839 45.6546 19.5321C45.7324 19.4077 45.8153 19.2859 45.906 19.1744C46.6318 18.2127 47.692 17.5128 48.9155 17.2614C49.0918 17.2225 49.2732 17.1966 49.4547 17.1784C49.618 17.1603 49.7839 17.1525 49.9498 17.1525H49.9938C50.323 17.1577 50.6445 17.1914 50.9555 17.251C51.2795 17.3158 51.5932 17.4143 51.8965 17.5439C51.9794 17.5776 52.0572 17.6139 52.1349 17.6528C53.8432 18.4641 55.0226 20.2087 55.0226 22.2228C55.0226 25.0067 52.77 27.2722 49.9938 27.2956H49.9912ZM45.4965 19.5088C45.4524 19.374 45.4057 19.2444 45.3487 19.12C45.328 19.12 45.3021 19.1148 45.2761 19.1122C45.2061 19.221 45.1413 19.3247 45.0765 19.4362C45.0428 19.4932 45.0117 19.5477 44.9858 19.6047H44.9806C44.9806 19.6047 44.9729 19.6228 44.9677 19.6306C45.0066 19.7421 45.0454 19.8509 45.0765 19.9624C45.0947 20.0194 45.1102 20.0739 45.1232 20.1309C45.1543 20.2294 45.1802 20.3331 45.201 20.4342C45.2917 20.1827 45.4083 19.9417 45.5431 19.7136C45.5483 19.7058 45.5509 19.7006 45.5561 19.6928C45.5872 19.641 45.6157 19.5839 45.652 19.5321C45.6002 19.5269 45.5483 19.5191 45.4965 19.5114V19.5088Z" fill="#C46E00"/>
<path d="M49.9472 25.6755C51.8541 25.6755 53.4 24.1296 53.4 22.2228C53.4 20.3159 51.8541 18.77 49.9472 18.77C48.0403 18.77 46.4945 20.3159 46.4945 22.2228C46.4945 24.1296 48.0403 25.6755 49.9472 25.6755Z" fill="#FFCD24"/>
<path d="M51.1214 18.4045H51.1162C51.0125 18.3734 50.9037 18.3475 50.7974 18.3216C50.5382 18.2646 50.266 18.236 49.9912 18.2309H49.9472C49.7787 18.2309 49.6154 18.2386 49.4521 18.2646C49.4521 18.2646 49.4495 18.2628 49.4443 18.2594C49.4443 18.2594 49.4391 18.2646 49.4365 18.2646C49.2602 18.2853 49.0814 18.3216 48.9155 18.3682C48.41 18.503 47.9434 18.7363 47.5391 19.0422C47.3187 19.2107 47.1165 19.4051 46.9299 19.6125C46.8703 19.6851 46.8081 19.7602 46.7536 19.838C46.2534 20.5068 45.9604 21.3311 45.9604 22.2254C45.9604 24.0684 47.2176 25.6211 48.9181 26.0799C49.0944 26.1265 49.2732 26.1654 49.4572 26.1836C49.6206 26.2095 49.7865 26.2173 49.9523 26.2173H49.9964C52.1764 26.1965 53.9468 24.4131 53.9468 22.2254C53.9468 20.4342 52.7596 18.91 51.1292 18.4045H51.1214ZM49.9912 25.1337C49.9783 25.1389 49.9601 25.1389 49.9472 25.1389C49.7787 25.1389 49.6102 25.126 49.4521 25.0923C49.2654 25.0663 49.084 25.0145 48.9129 24.9445C47.8164 24.5298 47.0362 23.4696 47.0362 22.2254C47.0362 20.9811 47.8138 19.9287 48.8999 19.5114C48.9051 19.5114 48.9077 19.5114 48.9129 19.5062C48.9699 19.4881 49.0244 19.4673 49.0814 19.4466C49.2032 19.4077 49.3276 19.3766 49.4521 19.361C49.6128 19.3273 49.7813 19.3144 49.9472 19.3144C49.9601 19.3144 49.9783 19.3144 49.9912 19.3196C51.575 19.3377 52.8607 20.6364 52.8607 22.2279C52.8607 23.8195 51.575 25.1208 49.9912 25.1363V25.1337Z" fill="#C46E00"/>
<path d="M58.255 28.5709L56.959 30.8857H19.0385L17.7424 28.5709H58.255Z" fill="#E6E6EF"/>
<path d="M61.3034 21.0718H14.6967C14.1169 21.0718 13.6469 21.5419 13.6469 22.1217V27.7596C13.6469 28.3394 14.1169 28.8094 14.6967 28.8094H61.3034C61.8832 28.8094 62.3532 28.3394 62.3532 27.7596V22.1217C62.3532 21.5419 61.8832 21.0718 61.3034 21.0718Z" fill="#F5F5FC"/>
<path opacity="0.16" d="M53.3299 15.2318C53.3299 15.4054 53.317 15.5817 53.2859 15.7528C53.2807 15.7709 53.2807 15.7917 53.2729 15.8098C53.2133 16.1598 53.0837 16.4993 52.8893 16.8078C52.8841 16.813 52.8841 16.8156 52.8815 16.8207C52.7856 16.9711 52.6741 17.1188 52.5497 17.2536L52.5445 17.2588C52.5238 17.2796 52.5005 17.3029 52.4797 17.3288C52.376 17.4377 52.2646 17.544 52.1298 17.658L52.1039 17.6839C51.8265 17.9224 51.5051 18.1635 51.1188 18.4097H51.1137C51.0696 18.4408 51.0307 18.4693 50.9892 18.4953C50.8207 18.6041 50.6393 18.7078 50.4449 18.8115C50.3593 18.8634 50.2686 18.9074 50.1727 18.9541C50.1649 18.9593 50.1598 18.9619 50.152 18.9619C50.1001 18.993 50.0431 19.0189 49.9887 19.0448C49.872 19.1044 49.7502 19.1615 49.6258 19.2185C49.5662 19.2444 49.5091 19.2703 49.4495 19.2962C49.3588 19.3403 49.2681 19.3792 49.1721 19.4129C49.141 19.431 49.1073 19.444 49.0762 19.4518C49.0192 19.4725 48.9648 19.4958 48.9077 19.5114C48.9026 19.5166 48.9 19.5166 48.8948 19.5166C48.5708 19.6332 48.2467 19.711 47.9227 19.768C47.7724 19.7939 47.6246 19.8121 47.4743 19.8199H47.4691C47.3343 19.8328 47.1969 19.8406 47.0595 19.8406C46.9559 19.8458 46.8522 19.8458 46.7433 19.8458C46.4193 19.8406 46.0927 19.8069 45.7687 19.7602C45.7168 19.7551 45.665 19.7473 45.608 19.7343C45.5898 19.7291 45.5768 19.7291 45.5613 19.7265C45.5561 19.7265 45.5483 19.7265 45.5406 19.7214C45.4239 19.7032 45.3021 19.6825 45.1854 19.6617C45.1206 19.6488 45.0506 19.6306 44.9832 19.6151H44.9781C44.9781 19.6151 44.9651 19.6099 44.9573 19.6099C44.8485 19.584 44.7422 19.558 44.6281 19.5269C44.5711 19.514 44.5063 19.4958 44.4467 19.4803C44.4026 19.4725 44.3611 19.4595 44.3171 19.4466C44.3171 19.4466 44.3145 19.4449 44.3093 19.4414C44.0578 19.3714 43.8038 19.2911 43.5627 19.2029C43.5109 19.1848 43.4591 19.1692 43.4072 19.1459C43.2828 19.107 43.1558 19.0629 43.0391 19.0163C42.9925 18.9981 42.9432 18.9826 42.8966 18.9644V18.9593C42.8706 18.9515 42.8447 18.9411 42.824 18.9333C42.8033 18.9256 42.7851 18.9204 42.767 18.9126C42.684 18.8789 42.5985 18.8478 42.5207 18.8167C42.4766 18.7986 42.4352 18.783 42.3911 18.7649C42.2148 18.6949 42.0463 18.6275 41.8779 18.5523H41.8727C41.8208 18.5316 41.7742 18.5134 41.7249 18.4927H41.7197C41.1935 18.2672 40.6881 18.052 40.2059 17.8576C40.2059 17.8576 40.2033 17.8559 40.1981 17.8524C39.3661 17.5103 38.6092 17.2459 37.9637 17.1785C37.9145 17.1759 37.8626 17.1707 37.8134 17.1681C37.7615 17.1655 37.7097 17.1603 37.6604 17.1603C37.5697 17.1603 37.4842 17.1603 37.4012 17.1655C37.3157 17.1707 37.2327 17.1733 37.1498 17.1836C37.1316 17.1836 37.1109 17.1836 37.0928 17.1888C37.015 17.194 36.945 17.2018 36.8724 17.2148C36.3384 17.2847 35.9004 17.4273 35.5375 17.6165C35.5375 17.6165 35.5323 17.6165 35.5323 17.6217C35.2394 17.7721 34.9983 17.9587 34.7909 18.1609C34.1274 18.8089 33.8111 19.6358 33.3834 20.1802C33.3575 20.2242 33.3264 20.2631 33.2927 20.302C33.1838 20.4264 33.0646 20.5301 32.9298 20.6079C32.8987 20.6286 32.8728 20.6467 32.8442 20.6597C32.8391 20.6649 32.8313 20.6649 32.8235 20.6675C32.8183 20.6675 32.8157 20.6727 32.8105 20.6727C32.6887 20.7297 32.5591 20.7582 32.4139 20.7686C32.388 20.7738 32.3569 20.7738 32.3284 20.7738C32.3154 20.7738 32.2973 20.7738 32.2843 20.7686C32.2636 20.7738 32.2403 20.7738 32.2247 20.7686H32.2195C32.007 20.7608 31.8385 20.7167 31.6933 20.6467C31.6881 20.6467 31.6881 20.6416 31.6856 20.6416C31.263 20.4342 31.0634 20.0169 30.9312 19.5399V19.5347C30.9312 19.5347 30.9261 19.5347 30.9261 19.5295C30.8483 19.2522 30.7964 18.9567 30.7316 18.6715V18.6586C30.6746 18.4071 30.6098 18.1661 30.5165 17.9587V17.9535C30.5165 17.9535 30.5113 17.9457 30.5113 17.9406V17.9354C30.4465 17.7928 30.3636 17.6684 30.2599 17.5647C29.6248 16.9167 28.8705 16.7145 28.0669 16.7197H28.0617C27.9581 16.7197 27.8621 16.7248 27.7585 16.7326C27.4733 16.7508 27.1882 16.7922 26.9005 16.8415H26.8953C26.7916 16.8596 26.6879 16.8752 26.5842 16.8933H26.579C26.4831 16.9141 26.3846 16.9322 26.2861 16.9529C26.2343 16.9607 26.1772 16.9711 26.1228 16.9841C25.9984 17.01 25.8688 17.0411 25.7418 17.0618C25.6847 17.0748 25.6303 17.0826 25.5733 17.0929C25.4489 17.1188 25.327 17.1396 25.2052 17.1629H25.1922C25.1352 17.1759 25.0834 17.1836 25.0289 17.194C24.7697 17.2329 24.5157 17.264 24.2694 17.277C23.8365 17.2977 23.4192 17.2692 23.0304 17.1396C23.0226 17.1344 23.0097 17.1318 22.9993 17.1266C22.7919 17.0566 22.5975 16.9633 22.4083 16.8285C22.4031 16.8285 22.3953 16.8233 22.3901 16.8207C22.118 16.6341 21.8691 16.3749 21.6436 16.0353C21.6436 16.0301 21.6384 16.0301 21.6384 16.0276C21.6254 16.0094 21.6125 15.9939 21.5995 15.9757C21.5088 15.8331 21.4492 15.6828 21.4051 15.5299C21.3973 15.5039 21.387 15.478 21.3844 15.4521C21.3455 15.2914 21.3248 15.1281 21.3377 14.957L23.2637 14.7444L25.2052 14.5319L25.7392 14.4723H25.7444L25.8351 14.4645L27.6729 14.2623L30.7627 13.9253H49.9757C50.7404 13.9305 51.4766 14.0368 52.1816 14.2416C52.459 14.3141 52.726 14.4049 52.9878 14.5086C53.0733 14.5423 53.1615 14.5785 53.2418 14.6174C53.2807 14.7989 53.3066 14.9803 53.3118 15.1644C53.3118 15.1903 53.3118 15.2162 53.317 15.2421L53.3299 15.2318Z" fill="black"/>
<path d="M52.2569 14.8041C52.2569 14.9907 52.2387 15.1747 52.205 15.3562C52.135 15.7113 51.9977 16.0509 51.7955 16.3567C51.6996 16.5045 51.5933 16.6419 51.4663 16.7715C51.4533 16.7845 51.4403 16.7974 51.4274 16.8104C51.2848 16.9581 51.1293 17.1033 50.953 17.251C50.6808 17.4791 50.362 17.7124 49.9913 17.9457C49.8228 18.0494 49.6414 18.1583 49.4522 18.2568C49.4522 18.2568 49.4496 18.2585 49.4444 18.262C49.4444 18.262 49.4392 18.2672 49.4366 18.2672C49.2733 18.3579 49.0945 18.4486 48.9156 18.5341C48.7471 18.6171 48.5708 18.6949 48.3894 18.7726C48.1094 18.8945 47.8243 18.9852 47.5392 19.0448C47 19.1692 46.4505 19.2081 45.9087 19.1744C45.7273 19.1666 45.5406 19.1485 45.3566 19.1226C45.3358 19.1226 45.3099 19.1174 45.284 19.1148C45.0974 19.0889 44.9133 19.0552 44.7267 19.0163H44.7137C44.4882 18.9696 44.2653 18.9126 44.045 18.853C43.9076 18.8141 43.7676 18.77 43.6302 18.7286C43.4539 18.6767 43.2803 18.6171 43.1092 18.5549C42.9407 18.4953 42.7722 18.4305 42.6037 18.3657C42.5208 18.3346 42.4352 18.3009 42.3523 18.2697C41.8468 18.0676 41.3595 17.855 40.8903 17.645C40.8851 17.645 40.8851 17.6399 40.8825 17.6399C39.7135 17.1344 38.6637 16.6808 37.8264 16.6211C37.7694 16.616 37.7098 16.616 37.6527 16.616C37.5542 16.616 37.4583 16.6211 37.3624 16.6237C37.2639 16.6289 37.168 16.6315 37.0773 16.6445C37.0177 16.6497 36.9554 16.6574 36.901 16.6652H36.8958C36.8232 16.673 36.7533 16.686 36.6833 16.6989C35.4235 16.94 34.8066 17.658 34.3659 18.3682C33.9849 18.9722 33.736 19.5684 33.3161 19.8691C33.2461 19.9209 33.1735 19.9598 33.0957 19.9909C33.0102 20.0298 32.9143 20.0557 32.8106 20.0635C32.7665 20.0687 32.7251 20.0713 32.6758 20.0713C32.6032 20.0713 32.5333 20.0661 32.4684 20.0583C32.3829 20.0506 32.3051 20.0324 32.23 20.0117C32.1315 19.978 32.0407 19.9339 31.963 19.8821C31.5949 19.641 31.4368 19.1951 31.3253 18.7156C31.2657 18.4616 31.2216 18.1972 31.1646 17.9483C31.1594 17.9405 31.1594 17.9302 31.1568 17.9224C31.105 17.6969 31.0454 17.4869 30.9546 17.3055C30.9028 17.1888 30.8328 17.0851 30.7524 16.9996C30.3559 16.5849 29.91 16.3645 29.4408 16.266C28.7513 16.1105 27.9996 16.222 27.2479 16.3749C26.9316 16.4345 26.6128 16.5045 26.3017 16.5641C26.1592 16.59 26.0218 16.616 25.8818 16.6367H25.8766C25.8326 16.6445 25.7989 16.6497 25.7548 16.6574C25.5733 16.6834 25.3919 16.7015 25.2208 16.7145C24.9486 16.7326 24.6894 16.7274 24.4354 16.6834H24.4302C24.1062 16.6367 23.8003 16.533 23.51 16.3516C23.2171 16.1649 22.9501 15.8979 22.7064 15.5273C22.7013 15.5195 22.6935 15.5065 22.6883 15.4962C22.5898 15.3354 22.5146 15.1721 22.4731 15.0011C22.4265 14.8248 22.4083 14.6382 22.4265 14.4437C22.4731 13.4769 23.2586 12.3804 24.7024 11.3954C27.0923 9.75197 31.2942 8.39887 36.9477 8.40924C43.8402 8.41442 47.6947 9.87121 49.8436 11.3747C49.8488 11.3747 49.8514 11.3798 49.8565 11.3798C50.6679 11.9449 51.233 12.5204 51.6348 13.0155C51.9251 13.3784 52.1091 13.7957 52.1947 14.2286C52.2387 14.4178 52.2543 14.6096 52.2543 14.8015L52.2569 14.8041Z" fill="url(#paint0_linear_134_18816)"/>
<path d="M28.7513 15.3276C30.0913 15.3276 31.1776 14.2414 31.1776 12.9014C31.1776 11.5614 30.0913 10.4752 28.7513 10.4752C27.4113 10.4752 26.3251 11.5614 26.3251 12.9014C26.3251 14.2414 27.4113 15.3276 28.7513 15.3276Z" fill="#9E3D20"/>
<path d="M36.932 11.1128C38.8962 11.1128 40.4885 9.52058 40.4885 7.55642C40.4885 5.59226 38.8962 4 36.932 4C34.9679 4 33.3756 5.59226 33.3756 7.55642C33.3756 9.52058 34.9679 11.1128 36.932 11.1128Z" fill="#9E3D20"/>
<path d="M45.6936 15.3847C47.5017 15.3847 48.9674 13.9189 48.9674 12.1108C48.9674 10.3027 47.5017 8.83694 45.6936 8.83694C43.8854 8.83694 42.4197 10.3027 42.4197 12.1108C42.4197 13.9189 43.8854 15.3847 45.6936 15.3847Z" fill="#9E3D20"/>
<path d="M45.2658 12.4582C45.0273 12.453 44.8769 12.7174 44.9884 12.9274C45.0584 13.0596 45.1543 13.1814 45.2813 13.2203C45.4887 13.2825 45.6961 13.254 45.8697 13.1943C46.1367 13.1036 46.1575 12.7303 45.9034 12.6085C45.7375 12.5282 45.5224 12.4634 45.2658 12.4582Z" fill="#BC4E35"/>
<path d="M47.2099 10.6411C47.3784 10.6385 47.4847 10.8251 47.4069 10.9729C47.3577 11.0662 47.2903 11.1517 47.1996 11.1802C47.0518 11.2243 46.9067 11.2036 46.7822 11.1621C46.593 11.0973 46.58 10.8329 46.7589 10.7474C46.8781 10.6903 47.0285 10.6437 47.2099 10.6411Z" fill="#BC4E35"/>
<path d="M45.6883 14.563C44.019 14.563 42.6451 13.311 42.4429 11.6961C42.4274 11.8309 42.4144 11.9657 42.4144 12.103C42.4144 13.9098 43.879 15.3769 45.6883 15.3769C47.4976 15.3769 48.9622 13.9124 48.9622 12.103C48.9622 11.9657 48.9518 11.8283 48.9337 11.6961C48.7315 13.311 47.3576 14.563 45.6883 14.563Z" fill="#89311D"/>
<path d="M44.1072 10.5426C44.1072 10.5426 43.9283 10.4829 43.9568 10.6436C43.9853 10.8044 44.3145 10.9262 44.3819 10.7914C44.4493 10.6566 44.3119 10.5633 44.1072 10.5451V10.5426Z" fill="#BC4E35"/>
<path d="M36.3644 7.77676C36.0455 7.77158 35.8459 8.12151 35.9937 8.40147C36.087 8.57773 36.214 8.73844 36.3825 8.79029C36.6599 8.87324 36.9346 8.83435 37.1653 8.75659C37.5205 8.63735 37.5464 8.13966 37.212 7.97895C36.9917 7.87008 36.7065 7.78454 36.3644 7.77935V7.77676Z" fill="#BC4E35"/>
<path d="M38.9488 5.36345C39.1743 5.36086 39.3143 5.60712 39.2106 5.80671C39.1458 5.93113 39.0551 6.04519 38.9358 6.08148C38.7388 6.1411 38.5444 6.11258 38.3811 6.05815C38.1297 5.97261 38.1115 5.62267 38.35 5.50602C38.5081 5.43085 38.7077 5.36864 38.9514 5.36345H38.9488Z" fill="#BC4E35"/>
<path d="M35.4182 5.75229C35.4182 5.75229 35.1823 5.67194 35.2186 5.88449C35.2549 6.09705 35.693 6.26294 35.7837 6.0789C35.8745 5.89486 35.6878 5.77821 35.4182 5.7497V5.75229Z" fill="#BC4E35"/>
<path d="M29.0935 13.3084C29.2853 13.3058 29.4045 13.5157 29.3164 13.6842C29.2594 13.7905 29.1842 13.8864 29.0831 13.9175C28.9172 13.9668 28.7513 13.9435 28.6113 13.8968C28.3988 13.8242 28.3806 13.5261 28.5828 13.4276C28.715 13.3628 28.8861 13.311 29.0935 13.3058V13.3084Z" fill="#BC4E35"/>
<path d="M27.5382 11.8542C27.4034 11.8542 27.3178 12.0019 27.3801 12.1212C27.4189 12.1964 27.4734 12.2663 27.5459 12.2871C27.6652 12.3234 27.7818 12.3052 27.8803 12.2741C28.0307 12.2223 28.0436 12.0123 27.8985 11.9423C27.8052 11.8957 27.6833 11.8594 27.5356 11.8568L27.5382 11.8542Z" fill="#BC4E35"/>
<path d="M30.0188 11.7738C30.0188 11.7738 30.1614 11.7246 30.1406 11.8542C30.1199 11.9838 29.8555 12.0823 29.8011 11.9708C29.7466 11.8594 29.8581 11.7894 30.0214 11.7738H30.0188Z" fill="#BC4E35"/>
<path d="M28.7513 14.7989C27.4915 14.7989 26.4573 13.8398 26.338 12.6111C26.3303 12.6888 26.3251 12.7692 26.3251 12.8496C26.3251 14.1897 27.4112 15.2758 28.7513 15.2758C30.0915 15.2758 31.1776 14.1897 31.1776 12.8496C31.1776 12.7692 31.1724 12.6888 31.1646 12.6111C31.0454 13.8398 30.0111 14.7989 28.7513 14.7989Z" fill="#89311D"/>
<path d="M36.932 10.4596C35.0786 10.4596 33.5571 9.0417 33.3912 7.2298C33.3808 7.33867 33.3756 7.44754 33.3756 7.559C33.3756 9.52384 34.9672 11.1154 36.932 11.1154C38.8969 11.1154 40.4885 9.52384 40.4885 7.559C40.4885 7.44754 40.4807 7.33867 40.4729 7.2298C40.307 9.0417 38.7854 10.4596 36.932 10.4596Z" fill="#89311D"/>
</g>
<path d="M21.2602 48.66V57H19.8922V48.66H21.2602ZM24.6523 51.504V55.164C24.6523 55.412 24.7083 55.592 24.8203 55.704C24.9403 55.808 25.1403 55.86 25.4203 55.86H26.2603V57H25.1803C24.5643 57 24.0923 56.856 23.7643 56.568C23.4363 56.28 23.2723 55.812 23.2723 55.164V51.504H22.4923V50.388H23.2723V48.744H24.6523V50.388H26.2603V51.504H24.6523ZM27.0651 53.664C27.0651 53 27.2011 52.412 27.4731 51.9C27.7531 51.388 28.1291 50.992 28.6011 50.712C29.0811 50.424 29.6091 50.28 30.1851 50.28C30.7051 50.28 31.1571 50.384 31.5411 50.592C31.9331 50.792 32.2451 51.044 32.4771 51.348V50.388H33.8571V57H32.4771V56.016C32.2451 56.328 31.9291 56.588 31.5291 56.796C31.1291 57.004 30.6731 57.108 30.1611 57.108C29.5931 57.108 29.0731 56.964 28.6011 56.676C28.1291 56.38 27.7531 55.972 27.4731 55.452C27.2011 54.924 27.0651 54.328 27.0651 53.664ZM32.4771 53.688C32.4771 53.232 32.3811 52.836 32.1891 52.5C32.0051 52.164 31.7611 51.908 31.4571 51.732C31.1531 51.556 30.8251 51.468 30.4731 51.468C30.1211 51.468 29.7931 51.556 29.4891 51.732C29.1851 51.9 28.9371 52.152 28.7451 52.488C28.5611 52.816 28.4691 53.208 28.4691 53.664C28.4691 54.12 28.5611 54.52 28.7451 54.864C28.9371 55.208 29.1851 55.472 29.4891 55.656C29.8011 55.832 30.1291 55.92 30.4731 55.92C30.8251 55.92 31.1531 55.832 31.4571 55.656C31.7611 55.48 32.0051 55.224 32.1891 54.888C32.3811 54.544 32.4771 54.144 32.4771 53.688ZM37.0219 48.12V57H35.6539V48.12H37.0219ZM39.514 49.512C39.266 49.512 39.058 49.428 38.89 49.26C38.722 49.092 38.638 48.884 38.638 48.636C38.638 48.388 38.722 48.18 38.89 48.012C39.058 47.844 39.266 47.76 39.514 47.76C39.754 47.76 39.958 47.844 40.126 48.012C40.294 48.18 40.378 48.388 40.378 48.636C40.378 48.884 40.294 49.092 40.126 49.26C39.958 49.428 39.754 49.512 39.514 49.512ZM40.186 50.388V57H38.818V50.388H40.186ZM41.526 53.664C41.526 53 41.662 52.412 41.934 51.9C42.214 51.388 42.59 50.992 43.062 50.712C43.542 50.424 44.07 50.28 44.646 50.28C45.166 50.28 45.618 50.384 46.002 50.592C46.394 50.792 46.706 51.044 46.938 51.348V50.388H48.318V57H46.938V56.016C46.706 56.328 46.39 56.588 45.99 56.796C45.59 57.004 45.134 57.108 44.622 57.108C44.054 57.108 43.534 56.964 43.062 56.676C42.59 56.38 42.214 55.972 41.934 55.452C41.662 54.924 41.526 54.328 41.526 53.664ZM46.938 53.688C46.938 53.232 46.842 52.836 46.65 52.5C46.466 52.164 46.222 51.908 45.918 51.732C45.614 51.556 45.286 51.468 44.934 51.468C44.582 51.468 44.254 51.556 43.95 51.732C43.646 51.9 43.398 52.152 43.206 52.488C43.022 52.816 42.93 53.208 42.93 53.664C42.93 54.12 43.022 54.52 43.206 54.864C43.398 55.208 43.646 55.472 43.95 55.656C44.262 55.832 44.59 55.92 44.934 55.92C45.286 55.92 45.614 55.832 45.918 55.656C46.222 55.48 46.466 55.224 46.65 54.888C46.842 54.544 46.938 54.144 46.938 53.688ZM53.4508 50.28C53.9708 50.28 54.4348 50.388 54.8428 50.604C55.2588 50.82 55.5828 51.14 55.8148 51.564C56.0468 51.988 56.1628 52.5 56.1628 53.1V57H54.8068V53.304C54.8068 52.712 54.6588 52.26 54.3628 51.948C54.0668 51.628 53.6628 51.468 53.1508 51.468C52.6388 51.468 52.2308 51.628 51.9268 51.948C51.6308 52.26 51.4828 52.712 51.4828 53.304V57H50.1148V50.388H51.4828V51.144C51.7068 50.872 51.9908 50.66 52.3348 50.508C52.6868 50.356 53.0588 50.28 53.4508 50.28Z" fill="black"/>
<defs>
<linearGradient id="paint0_linear_134_18816" x1="37.3391" y1="6.32775" x2="37.3391" y2="26.3209" gradientUnits="userSpaceOnUse">
<stop stop-color="#F23920"/>
<stop offset="1" stop-color="#D62300"/>
</linearGradient>
<clipPath id="clip0_134_18816">
<rect width="48.7064" height="32" fill="white" transform="translate(13.6469 4)"/>
</clipPath>
</defs>
</svg>
