<svg width="76" height="62" viewBox="0 0 76 62" fill="none" xmlns="http://www.w3.org/2000/svg">
<g clip-path="url(#clip0_134_18832)">
<path d="M38.3727 36C48.3782 36 56.4892 32.1644 56.4892 27.433C56.4892 22.7015 48.3782 18.8659 38.3727 18.8659C28.3673 18.8659 20.2562 22.7015 20.2562 27.433C20.2562 32.1644 28.3673 36 38.3727 36Z" fill="#3D2B29"/>
<path d="M58.5862 14.1353L56.4892 27.433H20.2562L18.1592 14.1353H58.5862Z" fill="#3D2B29"/>
<path d="M58.5863 14.1353C58.5863 17.277 55.7401 20.0842 51.2686 21.9428C47.7693 23.3996 43.2719 24.2731 38.3727 24.2731C32.9215 24.2731 27.9731 23.1922 24.3363 21.4322C20.5284 19.5866 18.1566 16.9996 18.1566 14.1353C18.1566 12.4737 18.9576 10.9055 20.3677 9.52126C23.7168 6.2422 30.5211 4 38.3753 4C46.2295 4 52.6321 6.11519 56.0771 9.24131C57.6764 10.6903 58.5889 12.3623 58.5889 14.1353H58.5863Z" fill="#533F38"/>
<path d="M38.3727 28.3454C49.5363 28.3454 58.5862 23.8077 58.5862 18.2101C58.5862 12.6126 49.5363 8.07486 38.3727 8.07486C27.2091 8.07486 18.1592 12.6126 18.1592 18.2101C18.1592 23.8077 27.2091 28.3454 38.3727 28.3454Z" fill="#533F38"/>
<path d="M58.5862 14.1353H18.1592V18.2101H58.5862V14.1353Z" fill="#533F38"/>
<path d="M38.3727 4C27.2084 4 18.1592 8.53884 18.1592 14.1353C18.1592 19.7317 27.2084 24.2706 38.3727 24.2706C49.5371 24.2706 58.5862 19.7317 58.5862 14.1353C58.5862 8.53884 49.5371 4 38.3727 4ZM38.3727 23.1611C27.6775 23.1611 19.2142 19.3455 19.2142 14.1353C19.2142 8.92507 27.6775 4.4951 38.3727 4.4951C49.0679 4.4951 57.5312 8.92507 57.5312 14.1353C57.5312 19.3455 49.0679 23.1611 38.3727 23.1611Z" fill="#8B746E"/>
<path d="M28.774 8.40406C28.774 8.40406 29.8835 6.41589 32.3745 6.5792C34.8656 6.7425 34.1786 5.49309 36.3664 5.38422C38.5542 5.27535 38.2405 6.41589 39.9176 6.41589C41.5948 6.41589 44.0573 5.84562 45.3223 6.89025C46.5872 7.93489 46.6857 9.04173 48.1296 8.97693C49.5734 8.91212 51.7974 9.45388 51.743 10.864C51.6886 12.2741 47.5878 16.9426 47.5878 16.9426L36.4727 19.2211L26.6459 11.7324L28.774 8.40147V8.40406Z" fill="#DDA040"/>
<path d="M30.026 10.4881C30.026 10.4881 29.6579 7.17539 28.1856 7.17539C26.7132 7.17539 26.4696 5.125 24.8495 4.6299C23.5482 4.23071 20.7487 4.38365 19.717 6.10483C19.0716 7.18316 19.8674 10.1797 18.1566 11.9579C17.957 12.1653 16.5779 14.1379 18.1566 16.6808C19.7352 19.2237 23.5845 19.9883 23.5845 19.9883L30.9358 18.2438L30.026 10.4881Z" fill="#97400B"/>
<path d="M47.1522 13.8501C47.1522 13.8501 47.5203 10.5374 48.9926 10.5374C50.465 10.5374 49.651 9.41239 51.2711 8.91729C52.5724 8.5181 55.3719 8.67104 56.4036 10.3922C57.049 11.4705 56.1314 10.5918 57.8396 12.3726C58.0392 12.58 59.4182 14.5526 57.8396 17.0955C56.318 19.5451 49.7444 21.4244 49.7444 21.4244L42.9244 18.0053L47.1548 13.8527L47.1522 13.8501Z" fill="#44C660"/>
<path d="M50.6543 13.6506C50.5843 16.73 31.4569 20.4005 28.4163 13.6506C27.7242 12.1134 27.8616 8.07486 39.5366 8.07486C42.7431 8.07486 43.9873 10.0138 46.214 11.2762C48.5365 12.593 50.6828 12.3597 50.6543 13.6506Z" fill="white"/>
<path d="M40.1017 10.4518C40.1017 12.4556 32.8411 12.4556 32.8411 10.4518C32.8411 8.44812 34.4663 6.82285 36.4701 6.82285C38.4738 6.82285 40.0991 8.44812 40.0991 10.4518H40.1017Z" fill="#FCB712"/>
<path d="M37.6754 7.81046C37.8931 7.85971 38.1057 7.93747 38.3001 8.04634L37.9812 8.40665C37.7661 8.29778 37.5302 8.23038 37.2814 8.20965L37.6754 7.81046Z" fill="#FFCE6C"/>
<path d="M39.464 9.33722L38.9378 9.56273C38.847 9.25686 38.6786 8.9795 38.4608 8.75917L38.8004 8.39368C39.0881 8.64771 39.3162 8.97172 39.464 9.33722Z" fill="#FFCE6C"/>
<path d="M32.2993 23.804C32.009 23.7573 31.7213 23.7107 31.4387 23.6588C31.7239 23.7107 32.009 23.7599 32.2993 23.804Z" fill="#1E8637"/>
<path d="M30.4148 23.454C30.153 23.397 29.8938 23.34 29.6398 23.2778C29.8964 23.34 30.153 23.397 30.4148 23.454Z" fill="#1E8637"/>
<path d="M31.3453 23.6407C31.0706 23.5888 30.7984 23.537 30.5288 23.4799C30.7984 23.537 31.0706 23.5914 31.3453 23.6407Z" fill="#1E8637"/>
<path d="M26.1611 22.2098C25.9641 22.1346 25.7697 22.0595 25.5779 21.9791C25.7697 22.0569 25.9641 22.1346 26.1611 22.2098Z" fill="#1E8637"/>
<path d="M26.9544 22.4975C26.7444 22.4249 26.537 22.3524 26.3348 22.2772C26.5396 22.3524 26.747 22.4275 26.9544 22.4975Z" fill="#1E8637"/>
<path d="M24.3336 21.4244C24.3336 21.4244 24.3362 21.4296 24.3388 21.4322C24.4451 21.484 24.5565 21.5332 24.6654 21.5825C24.554 21.5307 24.4451 21.4788 24.3362 21.4244H24.3336Z" fill="#1E8637"/>
<path d="M50.8228 21.0848C49.7341 19.7395 47.2948 18.3449 47.0978 17.8032C45.9625 14.6874 43.5337 15.9887 41.8436 15.4262C40.1561 14.8637 37.7791 15.237 36.0916 14.1327C34.4041 13.0284 31.2158 12.6215 29.3002 13.5495C28.1156 14.1223 28.9477 14.5293 25.552 15.364C22.1822 16.1909 23.5638 19.9313 23.5845 19.9883C27.0787 21.961 32.3745 23.1611 38.3701 23.1611C43.1526 23.1611 47.4867 22.3964 50.8202 21.0848H50.8228Z" fill="#1E8637"/>
<path d="M25.3964 21.9039C25.2124 21.8262 25.0283 21.7484 24.8495 21.6655C25.0283 21.7458 25.2124 21.8262 25.3964 21.9039Z" fill="#1E8637"/>
<path d="M38.3727 24.2706C36.6308 24.2706 34.9381 24.1591 33.3258 23.9517C34.9407 24.1591 36.6308 24.2706 38.3727 24.2706C38.7201 24.2706 39.0622 24.2654 39.4044 24.2576C39.0622 24.2654 38.7175 24.2706 38.3727 24.2706Z" fill="#1E8637"/>
<path d="M47.9273 23.0678C47.7044 23.1274 47.4763 23.1871 47.2482 23.2415C47.4763 23.1845 47.7044 23.1274 47.9273 23.0678Z" fill="#1E8637"/>
<path d="M48.7439 22.8345C48.5417 22.8967 48.3343 22.9537 48.127 23.0134C48.3343 22.9563 48.5391 22.8967 48.7439 22.8345Z" fill="#1E8637"/>
<path d="M47.0927 23.2804C46.8127 23.3478 46.5276 23.4126 46.2399 23.4722C46.5276 23.41 46.8101 23.3478 47.0927 23.2804Z" fill="#1E8637"/>
<path d="M50.3562 22.2979C50.154 22.3731 49.9492 22.4457 49.7418 22.5157C49.9492 22.4457 50.154 22.3705 50.3562 22.2979Z" fill="#1E8637"/>
<path d="M46.2398 23.4748C45.641 23.6018 45.0267 23.7158 44.3994 23.8117C45.0267 23.7132 45.641 23.6018 46.2398 23.4748Z" fill="#1E8637"/>
<path d="M49.5475 22.5805C49.3505 22.6453 49.1535 22.7101 48.9539 22.7723C49.1535 22.7101 49.353 22.6453 49.5475 22.5805Z" fill="#1E8637"/>
<path d="M50.5013 22.2435C50.7631 22.145 51.0198 22.0439 51.2712 21.9402C51.0198 22.0439 50.7631 22.1476 50.5013 22.2461V22.2435Z" fill="#1E8637"/>
<path d="M40.3868 24.2213C40.0758 24.2369 39.7621 24.2498 39.4485 24.2576C39.7647 24.2498 40.0758 24.2369 40.3868 24.2213Z" fill="#1E8637"/>
<path d="M43.3003 23.9673C43.0515 23.9984 42.8001 24.0269 42.546 24.0554C42.8001 24.0295 43.0515 23.9984 43.3003 23.9673Z" fill="#1E8637"/>
<path d="M44.3165 23.8247C44.0417 23.8662 43.7643 23.9077 43.4844 23.9439C43.7643 23.9077 44.0417 23.8688 44.3165 23.8247Z" fill="#1E8637"/>
</g>
<path d="M21.9042 57L18.6762 53.268V57H17.3082V48.66H18.6762V52.464L21.9162 48.66H23.6322L20.0082 52.836L23.6922 57H21.9042ZM27.77 57.108C27.146 57.108 26.582 56.968 26.078 56.688C25.574 56.4 25.178 56 24.89 55.488C24.602 54.968 24.458 54.368 24.458 53.688C24.458 53.016 24.606 52.42 24.902 51.9C25.198 51.38 25.602 50.98 26.114 50.7C26.626 50.42 27.198 50.28 27.83 50.28C28.462 50.28 29.034 50.42 29.546 50.7C30.058 50.98 30.462 51.38 30.758 51.9C31.054 52.42 31.202 53.016 31.202 53.688C31.202 54.36 31.05 54.956 30.746 55.476C30.442 55.996 30.026 56.4 29.498 56.688C28.978 56.968 28.402 57.108 27.77 57.108ZM27.77 55.92C28.122 55.92 28.45 55.836 28.754 55.668C29.066 55.5 29.318 55.248 29.51 54.912C29.702 54.576 29.798 54.168 29.798 53.688C29.798 53.208 29.706 52.804 29.522 52.476C29.338 52.14 29.094 51.888 28.79 51.72C28.486 51.552 28.158 51.468 27.806 51.468C27.454 51.468 27.126 51.552 26.822 51.72C26.526 51.888 26.29 52.14 26.114 52.476C25.938 52.804 25.85 53.208 25.85 53.688C25.85 54.4 26.03 54.952 26.39 55.344C26.758 55.728 27.218 55.92 27.77 55.92ZM33.9223 51.348C34.1223 51.012 34.3863 50.752 34.7143 50.568C35.0503 50.376 35.4463 50.28 35.9023 50.28V51.696H35.5543C35.0183 51.696 34.6103 51.832 34.3303 52.104C34.0583 52.376 33.9223 52.848 33.9223 53.52V57H32.5543V50.388H33.9223V51.348ZM43.2198 53.532C43.2198 53.78 43.2038 54.004 43.1718 54.204H38.1198C38.1598 54.732 38.3558 55.156 38.7078 55.476C39.0598 55.796 39.4918 55.956 40.0038 55.956C40.7398 55.956 41.2598 55.648 41.5638 55.032H43.0398C42.8398 55.64 42.4758 56.14 41.9478 56.532C41.4278 56.916 40.7798 57.108 40.0038 57.108C39.3718 57.108 38.8038 56.968 38.2998 56.688C37.8038 56.4 37.4118 56 37.1238 55.488C36.8438 54.968 36.7038 54.368 36.7038 53.688C36.7038 53.008 36.8398 52.412 37.1118 51.9C37.3918 51.38 37.7798 50.98 38.2758 50.7C38.7798 50.42 39.3558 50.28 40.0038 50.28C40.6278 50.28 41.1838 50.416 41.6718 50.688C42.1598 50.96 42.5398 51.344 42.8118 51.84C43.0838 52.328 43.2198 52.892 43.2198 53.532ZM41.7918 53.1C41.7838 52.596 41.6038 52.192 41.2518 51.888C40.8998 51.584 40.4638 51.432 39.9438 51.432C39.4718 51.432 39.0678 51.584 38.7318 51.888C38.3958 52.184 38.1958 52.588 38.1318 53.1H41.7918ZM44.11 53.664C44.11 53 44.246 52.412 44.518 51.9C44.798 51.388 45.174 50.992 45.646 50.712C46.126 50.424 46.654 50.28 47.23 50.28C47.75 50.28 48.202 50.384 48.586 50.592C48.978 50.792 49.29 51.044 49.522 51.348V50.388H50.902V57H49.522V56.016C49.29 56.328 48.974 56.588 48.574 56.796C48.174 57.004 47.718 57.108 47.206 57.108C46.638 57.108 46.118 56.964 45.646 56.676C45.174 56.38 44.798 55.972 44.518 55.452C44.246 54.924 44.11 54.328 44.11 53.664ZM49.522 53.688C49.522 53.232 49.426 52.836 49.234 52.5C49.05 52.164 48.806 51.908 48.502 51.732C48.198 51.556 47.87 51.468 47.518 51.468C47.166 51.468 46.838 51.556 46.534 51.732C46.23 51.9 45.982 52.152 45.79 52.488C45.606 52.816 45.514 53.208 45.514 53.664C45.514 54.12 45.606 54.52 45.79 54.864C45.982 55.208 46.23 55.472 46.534 55.656C46.846 55.832 47.174 55.92 47.518 55.92C47.87 55.92 48.198 55.832 48.502 55.656C48.806 55.48 49.05 55.224 49.234 54.888C49.426 54.544 49.522 54.144 49.522 53.688ZM56.0348 50.28C56.5548 50.28 57.0188 50.388 57.4268 50.604C57.8428 50.82 58.1668 51.14 58.3988 51.564C58.6308 51.988 58.7468 52.5 58.7468 53.1V57H57.3908V53.304C57.3908 52.712 57.2428 52.26 56.9468 51.948C56.6508 51.628 56.2468 51.468 55.7348 51.468C55.2228 51.468 54.8148 51.628 54.5108 51.948C54.2148 52.26 54.0668 52.712 54.0668 53.304V57H52.6988V50.388H54.0668V51.144C54.2908 50.872 54.5748 50.66 54.9188 50.508C55.2708 50.356 55.6428 50.28 56.0348 50.28Z" fill="black"/>
<defs>
<clipPath id="clip0_134_18832">
<rect width="41.1762" height="32" fill="white" transform="translate(17.41 4)"/>
</clipPath>
</defs>
</svg>
