<svg width="76" height="62" viewBox="0 0 76 62" fill="none" xmlns="http://www.w3.org/2000/svg">
<path d="M55.8988 23.5421C45.2565 23.5061 22.7802 29.5392 20.0457 30.9604C19.2245 31.1153 18.6301 30.1918 19.1112 29.5088C22.4485 24.7808 30.8871 13.168 35.6566 8.34312C35.676 8.32377 35.6953 8.30441 35.7147 8.28506C36.8179 7.17355 37.7193 6.43531 38.311 6.24176C39.1819 5.9542 40.3073 6.07586 41.5875 6.4989C43.4427 7.11272 45.6243 8.36248 47.8169 9.92191C49.1219 10.8509 50.4353 11.8906 51.6851 12.9717C54.5025 15.5901 56.7256 18.7781 57.0242 22.3421C57.0242 22.3476 57.0242 22.3504 57.0242 22.3559C57.0739 23.0029 56.5486 23.5476 55.8988 23.5448V23.5421Z" fill="url(#paint0_linear_134_18805)"/>
<path d="M57.323 21.7089C57.0244 18.1449 54.8013 14.9569 51.9839 12.3385C50.77 11.2104 49.4429 10.1901 48.1157 9.28876C45.8788 7.77633 43.6337 6.60952 41.8863 5.86575C41.5158 5.70815 41.1701 5.5699 40.8494 5.45101C38.2614 4.49157 36.0024 5.25746 35.6541 8.34038C35.6734 8.32103 35.69 8.30167 35.7121 8.28232C39.5167 4.58834 57.688 18.8776 54.1654 22.8813C53.6262 23.4923 31.338 25.2398 20.115 30.9217C20.115 30.9217 20.115 30.9217 20.1123 30.9217C20.0901 30.9328 20.068 30.9439 20.0459 30.9549C22.4321 30.1586 23.8284 29.6692 24.8707 29.3181C24.8707 29.3181 24.8763 29.3181 24.879 29.3153C26.2532 28.8536 27.0053 28.6296 28.6034 28.2508C28.9463 28.1706 29.2891 28.0904 29.632 28.0158C36.0411 26.6057 44.0789 25.7236 54.9838 24.7918C55.7801 24.7227 56.4354 24.3329 57.0271 23.3928C57.3313 22.9117 57.3617 22.143 57.3257 21.7062L57.323 21.7089Z" fill="#C46E00"/>
<path d="M46.6309 20.5062C48.335 20.5062 49.7165 19.2497 49.7165 17.6997C49.7165 16.1498 48.335 14.8933 46.6309 14.8933C44.9267 14.8933 43.5452 16.1498 43.5452 17.6997C43.5452 19.2497 44.9267 20.5062 46.6309 20.5062Z" fill="#D62300"/>
<path d="M36.605 16.5689C38.0282 16.5689 39.1819 15.5204 39.1819 14.227C39.1819 12.9336 38.0282 11.885 36.605 11.885C35.1818 11.885 34.0281 12.9336 34.0281 14.227C34.0281 15.5204 35.1818 16.5689 36.605 16.5689Z" fill="#D62300"/>
<path d="M29.7509 24.1421C31.055 24.1421 32.1122 23.1814 32.1122 21.9965C32.1122 20.8115 31.055 19.8509 29.7509 19.8509C28.4468 19.8509 27.3896 20.8115 27.3896 21.9965C27.3896 23.1814 28.4468 24.1421 29.7509 24.1421Z" fill="#D62300"/>
<path d="M54.6159 21.6177C54.6159 22.1043 52.2602 22.0324 51.9533 22.3836C51.486 22.9144 25.266 28.0683 25.2632 28.0683C25.2632 28.0683 20.7315 28.9724 19.2024 29.3789C19.125 29.4784 18.9536 29.7522 18.937 29.7826C18.6301 30.3411 18.1711 32.2683 20.1619 31.8895C20.9637 31.7374 21.9259 29.5282 23.6706 29.0748C24.7766 28.7872 25.9572 31.3669 27.0273 31.201C28.548 30.9632 29.0291 27.8858 31.0226 28.096C33.0161 28.3061 30.4199 36.4185 35.1313 35.5752C39.8428 34.7291 35.1396 26.9043 38.3331 26.6886C41.441 26.4757 39.1626 30.6978 42.7267 30.2747C45.2898 29.9706 43.758 27.2637 44.6594 25.7679C44.6759 25.7402 44.6925 25.7153 44.7119 25.6877C44.7174 25.6822 44.7202 25.6739 44.7257 25.6683C44.7423 25.6434 44.7617 25.6186 44.781 25.5937C44.7865 25.5881 44.7921 25.5799 44.7976 25.5743C44.817 25.5494 44.8391 25.5246 44.8612 25.5024C44.8667 25.4969 44.8723 25.4914 44.8778 25.4858C44.8999 25.461 44.9248 25.4388 44.9497 25.414C44.9524 25.4112 44.958 25.4084 44.9607 25.4057C44.9856 25.3835 45.0105 25.3614 45.0354 25.3421C45.0409 25.3393 45.0464 25.3338 45.0492 25.331C45.0769 25.3089 45.1045 25.2895 45.1349 25.2674C45.1405 25.2619 45.1488 25.2591 45.1543 25.2536C45.1847 25.2342 45.2151 25.2149 45.2483 25.1955C45.2566 25.19 45.2621 25.1872 45.2704 25.1817C45.3036 25.1623 45.3368 25.143 45.3727 25.1264C45.3782 25.1236 45.3838 25.1209 45.3921 25.1181C45.428 25.1015 45.4667 25.0822 45.5054 25.0656C45.5082 25.0656 45.511 25.0656 45.5137 25.0628C45.5552 25.0462 45.5967 25.0296 45.6409 25.013C45.6492 25.013 45.6547 25.0075 45.663 25.0047C45.7045 24.9909 45.7487 24.9771 45.793 24.9633C45.8013 24.9633 45.8123 24.9577 45.8206 24.955C45.8649 24.9411 45.9119 24.9301 45.9616 24.9163C45.9699 24.9163 45.9782 24.9135 45.9865 24.9107C46.0363 24.8997 46.0888 24.8886 46.1414 24.8776C46.1469 24.8776 46.1497 24.8776 46.1552 24.8776C46.2077 24.8665 46.263 24.8582 46.3211 24.8499C46.3266 24.8499 46.3322 24.8499 46.3377 24.8499C46.3957 24.8416 46.4538 24.8333 46.5146 24.8278C46.5257 24.8278 46.534 24.8278 46.5451 24.825C46.6059 24.8195 46.6667 24.814 46.7303 24.8084C46.7414 24.8084 46.7524 24.8084 46.7635 24.8084C46.8271 24.8057 46.8934 24.8001 46.9626 24.8001C46.9709 24.8001 46.9819 24.8001 46.9902 24.8001C47.0621 24.8001 47.1368 24.7974 47.2114 24.7974C47.2501 24.7974 47.2861 24.7974 47.3248 24.8001C47.3303 24.8001 47.3386 24.8001 47.3441 24.8001C47.3773 24.8001 47.4105 24.8057 47.4437 24.8084C47.4492 24.8084 47.4547 24.8084 47.4603 24.8084C47.4934 24.8112 47.5238 24.8167 47.5543 24.8223C47.5847 24.8278 47.6123 24.8333 47.64 24.8416C47.6455 24.8416 47.651 24.8416 47.6538 24.8444C47.6814 24.8527 47.7063 24.8582 47.7312 24.8665C47.7367 24.8665 47.7395 24.8693 47.745 24.872C47.7699 24.8803 47.7948 24.8886 47.8169 24.8997C47.8391 24.9107 47.8612 24.9218 47.8833 24.9329C47.8861 24.9329 47.8916 24.9356 47.8944 24.9384C47.9137 24.9494 47.9331 24.9605 47.9524 24.9743C47.9552 24.9743 47.9579 24.9771 47.9607 24.9799C47.9994 25.0047 48.0354 25.0352 48.0658 25.0628L48.0713 25.0683C48.0879 25.0822 48.1017 25.0988 48.1155 25.1153C48.146 25.1513 48.1764 25.1872 48.204 25.2259C48.2178 25.2425 48.2289 25.2619 48.24 25.2812C48.2649 25.3199 48.287 25.3587 48.3091 25.4001C48.5524 25.8646 48.6658 26.4232 49.7165 26.4232C50.5183 26.4232 50.828 25.7623 51.0823 25.1402C51.0989 25.0987 51.1155 25.0573 51.1321 25.0186C51.1432 24.9909 51.1542 24.9605 51.1681 24.9329C51.1736 24.9218 51.1791 24.908 51.1819 24.8969C51.1902 24.8748 51.2012 24.8527 51.2095 24.8306C51.2151 24.8167 51.2206 24.8029 51.2261 24.7918C51.2344 24.7725 51.2427 24.7531 51.251 24.7338C51.2565 24.72 51.2621 24.7061 51.2704 24.6923C51.2786 24.6729 51.2869 24.6564 51.2952 24.637C51.3008 24.6232 51.3091 24.6094 51.3146 24.5983C51.3229 24.5817 51.3312 24.5651 51.3395 24.5485C51.345 24.5347 51.3533 24.5236 51.3616 24.5098C51.3699 24.4932 51.3782 24.4794 51.3892 24.4628C51.3975 24.4518 51.4031 24.4379 51.4114 24.4269C51.4197 24.413 51.4307 24.3992 51.439 24.3854C51.4473 24.3743 51.4556 24.3633 51.4611 24.3522C51.4694 24.3384 51.4805 24.3273 51.4916 24.3135C51.4998 24.3024 51.5081 24.2941 51.5164 24.2831C51.5275 24.272 51.5386 24.261 51.5469 24.2499C51.5551 24.2416 51.5634 24.2333 51.5717 24.225C51.5828 24.214 51.5939 24.2057 51.6049 24.1974C51.6132 24.1891 51.6243 24.1836 51.6326 24.1753C51.6436 24.167 51.6575 24.1587 51.6713 24.1504C51.6796 24.1448 51.6906 24.1393 51.6989 24.1338C51.7127 24.1255 51.7266 24.12 51.7404 24.1144C51.7487 24.1117 51.7598 24.1061 51.7681 24.1034C51.7846 24.0978 51.8012 24.0951 51.8178 24.0895C51.8261 24.0895 51.8344 24.084 51.8427 24.084C51.8703 24.0785 51.898 24.0785 51.9257 24.0785C52.8713 24.0785 52.957 24.9716 53.9607 24.7974C53.98 24.7946 53.9994 24.7891 54.0187 24.7835C54.0215 24.7835 54.027 24.7835 54.0298 24.7808C54.0464 24.7753 54.0657 24.767 54.0823 24.7559C54.0851 24.7559 54.0878 24.7531 54.0906 24.7504C54.1072 24.7421 54.1238 24.731 54.1376 24.7172C54.1376 24.7172 54.1376 24.7172 54.1404 24.7172C54.157 24.7034 54.1708 24.6895 54.1874 24.6757C54.1901 24.6729 54.1929 24.6702 54.1957 24.6674C54.2095 24.6508 54.2233 24.6342 54.2371 24.6176C54.2371 24.6176 54.2399 24.6121 54.2427 24.6094C54.2565 24.5928 54.2676 24.5734 54.2814 24.5541C54.2814 24.5541 54.2814 24.5513 54.2842 24.5485C54.298 24.5292 54.309 24.5071 54.3201 24.4822C54.3201 24.4794 54.3256 24.4739 54.3256 24.4711C54.3367 24.449 54.3477 24.4241 54.3588 24.3992C54.3588 24.3992 54.3588 24.3965 54.3588 24.3937C54.3699 24.3688 54.3809 24.3439 54.3892 24.3163C54.3892 24.3163 54.3892 24.3107 54.392 24.308C54.403 24.2803 54.4113 24.2527 54.4196 24.2223C54.4196 24.2195 54.4196 24.214 54.4224 24.2112C54.4418 24.1504 54.4583 24.0868 54.4749 24.0204V24.0149C54.4832 23.9817 54.4888 23.9485 54.4971 23.9126C54.4971 23.9126 54.4971 23.9071 54.4971 23.9043C54.5109 23.8324 54.5247 23.7605 54.5358 23.6859C54.5358 23.6859 54.5358 23.6859 54.5358 23.6831C54.6712 22.7651 54.5938 21.6204 54.5938 21.6204L54.6159 21.6177Z" fill="#FFCD24"/>
<path d="M31.2466 17.8573C31.4374 18.0979 32.7839 17.0361 32.5931 16.7956L32.994 17.3016C33.135 17.4813 31.7913 18.543 31.6475 18.3633L31.2466 17.8573Z" fill="#698C31"/>
<path d="M25.0947 24.6094C24.8155 24.4849 24.1159 26.0499 24.3952 26.1743L23.8062 25.9117C23.5961 25.8176 24.2956 24.2527 24.5058 24.3467L25.0947 24.6094Z" fill="#698C31"/>
<path d="M38.0098 21.2195C37.819 20.979 36.4724 22.0407 36.6632 22.2812L36.2623 21.7753C36.1213 21.5955 37.4651 20.5338 37.6088 20.7135L38.0098 21.2195Z" fill="#698C31"/>
<path d="M44.1616 14.4675C44.4409 14.5919 45.1404 13.0269 44.8612 12.9025L45.4501 13.1652C45.6602 13.2592 44.9607 14.8242 44.7506 14.7302L44.1616 14.4675Z" fill="#698C31"/>
<path d="M39.3535 9.68691C39.0742 9.56248 38.3747 11.1274 38.654 11.2519L38.065 10.9892C37.8549 10.8952 38.5544 9.33023 38.7646 9.42424L39.3535 9.68691Z" fill="#698C31"/>
<path d="M50.7175 19.8979C50.9359 20.1135 49.7304 21.3329 49.512 21.1172L49.9709 21.5707C50.1341 21.731 51.3396 20.5117 51.1765 20.3513L50.7175 19.8979Z" fill="#698C31"/>
<path d="M29.8668 51.144C29.8668 51.568 29.7668 51.968 29.5668 52.344C29.3668 52.72 29.0468 53.028 28.6068 53.268C28.1668 53.5 27.6028 53.616 26.9148 53.616H25.4028V57H24.0348V48.66H26.9148C27.5548 48.66 28.0948 48.772 28.5348 48.996C28.9828 49.212 29.3148 49.508 29.5308 49.884C29.7548 50.26 29.8668 50.68 29.8668 51.144ZM26.9148 52.5C27.4348 52.5 27.8228 52.384 28.0788 52.152C28.3348 51.912 28.4628 51.576 28.4628 51.144C28.4628 50.232 27.9468 49.776 26.9148 49.776H25.4028V52.5H26.9148ZM31.8675 49.512C31.6195 49.512 31.4115 49.428 31.2435 49.26C31.0755 49.092 30.9915 48.884 30.9915 48.636C30.9915 48.388 31.0755 48.18 31.2435 48.012C31.4115 47.844 31.6195 47.76 31.8675 47.76C32.1075 47.76 32.3115 47.844 32.4795 48.012C32.6475 48.18 32.7315 48.388 32.7315 48.636C32.7315 48.884 32.6475 49.092 32.4795 49.26C32.3115 49.428 32.1075 49.512 31.8675 49.512ZM32.5395 50.388V57H31.1715V50.388H32.5395ZM35.5475 55.884H38.5475V57H33.9635V55.884L36.9755 51.504H33.9635V50.388H38.5475V51.504L35.5475 55.884ZM41.196 55.884H44.196V57H39.612V55.884L42.624 51.504H39.612V50.388H44.196V51.504L41.196 55.884ZM45.1764 53.664C45.1764 53 45.3124 52.412 45.5844 51.9C45.8644 51.388 46.2404 50.992 46.7124 50.712C47.1924 50.424 47.7204 50.28 48.2964 50.28C48.8164 50.28 49.2684 50.384 49.6524 50.592C50.0444 50.792 50.3564 51.044 50.5884 51.348V50.388H51.9684V57H50.5884V56.016C50.3564 56.328 50.0404 56.588 49.6404 56.796C49.2404 57.004 48.7844 57.108 48.2724 57.108C47.7044 57.108 47.1844 56.964 46.7124 56.676C46.2404 56.38 45.8644 55.972 45.5844 55.452C45.3124 54.924 45.1764 54.328 45.1764 53.664ZM50.5884 53.688C50.5884 53.232 50.4924 52.836 50.3004 52.5C50.1164 52.164 49.8724 51.908 49.5684 51.732C49.2644 51.556 48.9364 51.468 48.5844 51.468C48.2324 51.468 47.9044 51.556 47.6004 51.732C47.2964 51.9 47.0484 52.152 46.8564 52.488C46.6724 52.816 46.5804 53.208 46.5804 53.664C46.5804 54.12 46.6724 54.52 46.8564 54.864C47.0484 55.208 47.2964 55.472 47.6004 55.656C47.9124 55.832 48.2404 55.92 48.5844 55.92C48.9364 55.92 49.2644 55.832 49.5684 55.656C49.8724 55.48 50.1164 55.224 50.3004 54.888C50.4924 54.544 50.5884 54.144 50.5884 53.688Z" fill="black"/>
<defs>
<linearGradient id="paint0_linear_134_18805" x1="37.982" y1="9.33021" x2="37.982" y2="40.0295" gradientUnits="userSpaceOnUse">
<stop stop-color="#FFEB39"/>
<stop offset="0.33" stop-color="#FED545"/>
<stop offset="0.64" stop-color="#FDD239"/>
<stop offset="0.94" stop-color="#FCC026"/>
<stop offset="1" stop-color="#FCF322"/>
</linearGradient>
</defs>
</svg>
