<svg width="76" height="62" viewBox="0 0 76 62" fill="none" xmlns="http://www.w3.org/2000/svg">
<g clip-path="url(#clip0_134_18809)">
<path d="M51.5693 19.9987C51.5693 28.8353 44.5524 36 35.8972 36C27.242 36 20.2251 28.8353 20.2251 19.9987C20.2251 11.1621 27.242 4 35.8972 4C44.5524 4 51.5693 11.1621 51.5693 19.9987Z" fill="#131C21"/>
<path d="M39.7777 4C39.7777 4 39.7543 4 39.7414 4C39.7362 4 39.7284 4 39.7232 4H35.568C28.774 5.8482 23.7764 12.6189 23.7764 19.9987C23.7764 27.3785 28.774 33.5867 35.568 35.4349V35.9974H39.3681C39.5029 36 39.6377 35.9974 39.7751 35.9974C48.6117 35.9974 55.7764 28.8327 55.7764 19.9961C55.7764 11.1595 48.6143 4 39.7777 4Z" fill="#131C21"/>
<path d="M49.7653 19.9987C49.7653 28.1899 43.4093 34.831 35.5681 34.831C27.7269 34.831 21.3735 28.1899 21.3735 19.9987C21.3735 11.8075 27.7295 5.16388 35.5681 5.16388C43.4067 5.16388 49.7653 11.805 49.7653 19.9987Z" fill="#F1FAFF"/>
<path d="M42.7974 13.9642C41.929 12.3156 40.2 11.1777 39.3991 10.7163C39.1295 10.5607 38.8184 10.4959 38.5125 10.5296C38.5125 10.5296 30.4665 8.17077 27.8148 14.0705C25.1656 19.9702 26.7338 20.9786 26.0599 22.399C25.3911 23.8118 25.5596 27.1686 28.7842 28.1303C28.792 28.1329 28.7998 28.1355 28.8102 28.138C28.8205 28.1406 28.8283 28.1432 28.8387 28.1458C28.8413 28.1458 28.8464 28.1458 28.849 28.1484C29.3001 28.2832 30.0233 28.3713 31.1042 28.4984C31.1042 28.4984 36.1511 29.7193 39.2098 28.2936C42.2711 26.8679 44.6456 25.7662 45.037 23.7262C45.4284 21.6862 45.8146 18.179 45.8146 18.179C46.1957 16.9789 43.9483 16.1546 42.7948 13.9642H42.7974Z" fill="#D6E4EA"/>
<path d="M45.3534 18.2594C45.3534 18.2594 45.3197 18.6923 45.2549 19.3403C45.2497 19.3947 45.2445 19.4518 45.2393 19.5114C45.2108 19.7913 45.1797 20.1024 45.1434 20.4342C45.1331 20.5223 45.1227 20.613 45.1149 20.7038C45.0838 20.963 45.0527 21.23 45.019 21.4995C45.006 21.6136 44.9905 21.7302 44.9749 21.8469C44.9438 22.0828 44.9127 22.3187 44.8764 22.5468C44.8583 22.679 44.8375 22.8112 44.8168 22.9382C44.7805 23.1689 44.7416 23.3866 44.7028 23.5914C44.7002 23.6096 44.695 23.6277 44.6898 23.6458C44.6587 23.8014 44.6146 23.9491 44.5576 24.0917C44.1325 25.1908 43.0438 25.9969 41.574 26.7797C41.3744 26.8886 41.1671 26.9949 40.9519 27.1012C40.6227 27.2671 40.278 27.4304 39.9228 27.5989C39.7051 27.7025 39.4822 27.8062 39.2541 27.9125C39.2048 27.9358 39.153 27.9592 39.1037 27.9825C39.0726 27.998 39.0389 28.011 39.0078 28.024C39.0052 28.0266 39.0026 28.0266 39 28.0266C38.8238 28.1069 38.6423 28.1769 38.4531 28.2365C38.2587 28.2987 38.0591 28.3532 37.8543 28.4024C37.6495 28.4491 37.4396 28.488 37.2296 28.5217C37.0974 28.5398 36.9652 28.558 36.8304 28.5735H36.8278L36.6982 28.5865H36.6956C36.3301 28.6253 35.9621 28.6435 35.5992 28.6461C35.5655 28.6487 35.5343 28.6487 35.5006 28.6487H35.4203C35.3062 28.6487 35.1948 28.6461 35.0833 28.6461C34.7852 28.6383 34.4949 28.6228 34.2149 28.6046L34.1242 28.5968C33.865 28.5761 33.6136 28.5528 33.3777 28.5243C33.2559 28.5113 33.1392 28.4957 33.0277 28.4828C32.0894 28.3584 31.431 28.208 31.3247 28.1821C31.5062 28.2002 31.7032 28.2236 31.9105 28.2495C34.9537 28.6098 36.3742 22.4716 37.0896 20.219C37.4137 19.1951 39.0752 18.9359 40.8249 18.8504C40.9545 18.8426 41.0867 18.8374 41.2163 18.8322C41.5533 18.8193 41.8929 18.8115 42.2247 18.8037C42.3543 18.8011 42.4813 18.7985 42.6083 18.7959C42.8908 18.7908 43.163 18.783 43.4196 18.7726C43.5518 18.7648 43.6815 18.7597 43.8033 18.7519C44.1714 18.726 44.4954 18.6897 44.7494 18.63C44.9205 18.5912 45.0605 18.5393 45.1642 18.4745C45.2627 18.4175 45.3275 18.3449 45.3534 18.2594Z" fill="#7DAC40"/>
<path d="M38.4297 10.9081L34.9122 24.9264C34.9122 24.9264 32.2837 28.742 29.1317 27.8399C28.6496 27.7026 28.2374 27.5081 27.8875 27.2748C27.8045 27.2204 27.7242 27.1634 27.649 27.1038C25.9485 25.7714 25.9382 23.4229 26.4644 22.3161C27.1098 20.95 25.6038 19.9806 28.1493 14.3115C29.7175 10.8225 33.2454 10.3378 35.7287 10.4804C36.0398 10.4985 36.3379 10.527 36.61 10.5607C37.6987 10.6929 38.4297 10.9081 38.4297 10.9081Z" fill="#FFBF7E"/>
<path d="M45.3534 18.2594C44.9879 19.4129 37.8051 17.9665 37.0897 20.219C36.3742 22.4716 34.9537 28.6098 31.9106 28.2495C31.698 28.2236 31.4984 28.2002 31.3118 28.1795C28.7896 27.884 28.2997 27.8088 28.6263 26.7849C28.9737 25.6859 30.1972 25.7714 29.6191 23.6536C29.0411 21.5332 28.3541 16.2375 30.516 13.7776C32.3279 11.7168 36.9756 11.0636 38.4298 10.9081C38.7253 10.8769 39.0234 10.9392 39.2826 11.0869C40.0525 11.5302 41.7141 12.624 42.5487 14.2104C43.6582 16.3153 45.7189 17.1059 45.3534 18.2594Z" fill="#FD8C59"/>
<g opacity="0.4">
<path d="M35.7286 10.4803C33.7456 10.9314 31.4646 11.7064 30.2748 13.0155C27.9081 15.6206 28.1596 21.274 28.8102 23.5836C29.2042 24.986 28.8128 25.3955 28.3592 25.8699C28.1181 26.1239 27.8667 26.3857 27.7319 26.8057C27.6982 26.9016 27.6697 27.0027 27.6489 27.1038C27.7241 27.1634 27.8045 27.2204 27.8874 27.2748C27.8952 27.1712 27.9263 27.0441 27.9781 26.886C28.0948 26.5231 28.3151 26.2924 28.5484 26.0488C29.0124 25.5614 29.4945 25.0586 29.0591 23.5136C28.4214 21.2507 28.1674 15.7217 30.4666 13.1891C31.7808 11.7427 34.5077 10.9625 36.61 10.5607C36.3378 10.527 36.0397 10.4985 35.7286 10.4803Z" fill="white"/>
</g>
<path d="M35.5681 5.16388C27.7295 5.16388 21.3735 11.805 21.3735 19.9987C21.3735 28.1925 27.7295 34.831 35.5681 34.831C43.4067 34.831 49.7653 28.1899 49.7653 19.9987C49.7653 11.8075 43.4093 5.16388 35.5681 5.16388ZM48.4925 21.5125L48.4485 21.7095C48.4174 21.8443 48.3966 21.9532 48.3785 22.0595L48.3629 22.145C48.2307 23.016 48.0156 23.8766 47.7253 24.6983C47.6682 24.8616 47.6319 24.9238 47.6319 24.9238C47.3572 25.3333 47.2639 25.7429 47.1887 26.0747C47.1006 26.4661 47.0513 26.6476 46.8362 26.8186L46.7221 26.9094L46.6469 27.0364C46.5614 27.1841 46.4733 27.3293 46.3825 27.4719C46.2918 27.617 46.2011 27.757 46.1052 27.897C46.03 28.0058 45.9548 28.1147 45.8771 28.221C45.3846 28.5346 45.0865 28.9831 44.8169 29.3849C44.6795 29.5922 44.5499 29.7866 44.4047 29.9474C44.2803 30.0536 44.1766 30.1444 44.0781 30.2325L43.9355 30.3595C43.8008 30.4787 43.6634 30.598 43.5234 30.7094C43.4612 30.7613 43.4119 30.8002 43.3756 30.8261C42.7561 30.8961 42.4373 31.386 42.2429 31.6867C42.204 31.7463 42.1522 31.8267 42.1107 31.8811L41.9577 31.8552L41.7426 31.9537C41.6337 32.0055 41.5456 32.047 41.4626 32.0911L41.3667 32.1377C40.9416 32.3606 40.501 32.5628 40.0577 32.7339C39.8659 32.8065 39.7233 32.8557 39.6274 32.8817L39.6015 32.8894L39.5756 32.8972C39.2749 33.0009 38.3624 33.3171 38.0203 33.3353H37.9658L37.9166 33.3482C37.7274 33.3845 37.5381 33.4156 37.3489 33.4416C37.1934 33.4649 37.0353 33.4856 36.8771 33.5012C36.7683 33.4804 36.6361 33.4623 36.4728 33.4623C36.2784 33.4623 36.071 33.4934 35.8869 33.5245C35.5707 33.5504 35.2596 33.5634 34.9564 33.5634C34.7982 33.5634 34.6505 33.5608 34.5105 33.553C34.3679 33.5271 34.2461 33.5064 34.1295 33.4882L34.1035 33.483C32.9837 33.3508 31.8873 33.0683 30.8426 32.638C30.6171 32.5447 30.5316 32.498 30.4979 32.4773L30.3372 32.3736L30.1428 32.3555C29.7799 32.3244 29.4792 32.0885 29.1318 31.8111C28.9011 31.6271 28.6626 31.4378 28.3801 31.2927C28.2375 31.1916 28.1001 31.0879 27.9654 30.9868C27.6724 30.7639 27.3847 30.5254 27.1125 30.2792C26.9881 30.1651 26.8689 30.0536 26.7522 29.9396C26.55 29.6907 26.296 29.5145 26.0524 29.3434C25.6272 29.0479 25.4406 28.8924 25.4121 28.6357L25.3939 28.4569L25.298 28.3013C25.1918 28.138 25.0984 27.9981 25.0129 27.8659L24.9274 27.7389C24.72 27.4278 24.523 27.1038 24.3415 26.772C24.2482 26.6061 24.1627 26.4376 24.0797 26.2717L24.002 26.1162L23.8646 26.0073C23.6909 25.8699 23.6339 25.6081 23.5587 25.1908C23.4939 24.8279 23.4187 24.4209 23.1958 24.0373C23.1492 23.8792 23.1077 23.721 23.0662 23.5629C22.9677 23.187 22.8848 22.7982 22.8174 22.4094C22.7914 22.2513 22.7681 22.0983 22.75 21.9428C22.8329 21.3337 22.7422 20.7608 22.6618 20.2527C22.5918 19.8121 22.527 19.3999 22.6048 19.0552C22.6515 18.8141 22.6748 18.6171 22.6955 18.446L22.7085 18.3501C22.7655 17.8576 22.8485 17.3677 22.9547 16.8907C22.9833 16.7611 23.017 16.6367 23.0455 16.5563L23.0662 16.4941L23.0766 16.4293C23.0999 16.2738 23.1958 16.082 23.2865 15.8954C23.4317 15.5973 23.6054 15.2421 23.582 14.8429C23.6131 14.76 23.6494 14.6745 23.6831 14.5915C23.9242 14.0109 24.2067 13.4406 24.5204 12.9066C24.5541 12.8522 24.58 12.8107 24.5982 12.7822C25.1632 12.3752 25.4458 11.792 25.6713 11.3228C25.8865 10.877 26.029 10.597 26.2623 10.483L26.379 10.4259L26.4697 10.3326C26.6019 10.2004 26.7341 10.0708 26.8637 9.94898C26.9596 9.85825 27.0555 9.76753 27.167 9.66902L27.2681 9.57311C27.6543 9.20503 28.0924 8.7877 28.6419 8.5207L28.686 8.49997L28.7249 8.47405C28.8363 8.40147 28.9478 8.32889 29.0592 8.26149C29.1733 8.1915 29.2873 8.1267 29.4014 8.0593C29.5129 7.99709 29.5777 7.96339 29.614 7.94525C30.1816 7.86748 30.5523 7.55384 30.8038 7.33869C30.8349 7.31277 30.8711 7.28166 30.9048 7.25315L30.9619 7.26611L31.3455 7.15205C31.4155 7.13132 31.4829 7.11317 31.571 7.08466C32.162 6.88506 32.7712 6.72694 33.3855 6.61807C33.5488 6.58956 33.6655 6.57401 33.7381 6.57401C33.7718 6.5766 33.8055 6.5766 33.8417 6.5766C34.3135 6.5766 34.7516 6.46773 35.1378 6.37182C35.4411 6.29665 35.7288 6.22407 35.9621 6.22407C36.0373 6.22407 36.0995 6.23184 36.1591 6.2474C36.2369 6.26554 36.3043 6.29665 36.3743 6.3459L36.535 6.45995L36.732 6.48069C36.9394 6.50402 37.1415 6.52216 37.3411 6.54031C37.8518 6.58956 38.3339 6.63362 38.7513 6.7399C38.8031 6.75546 38.8394 6.76582 38.8627 6.7736C39.3682 7.24278 40.0162 7.38535 40.5398 7.50199C40.9261 7.58753 41.289 7.66789 41.4652 7.84156L41.5119 7.88822L41.5663 7.9271C41.7867 8.08004 41.9707 8.19409 42.134 8.29519L42.1573 8.31074C42.9453 8.80066 43.6867 9.3787 44.3581 10.0293C44.4747 10.1434 44.5369 10.2211 44.5525 10.2445L44.5732 10.2756L44.5965 10.3067C44.8195 10.5892 45.0657 10.8355 45.3042 11.074C45.6438 11.4109 45.9626 11.7298 46.0948 12.0538L46.1259 12.129L46.17 12.1964C46.2763 12.3545 46.3799 12.5126 46.4784 12.6759C46.7558 13.1269 47.0098 13.6013 47.2302 14.0783C47.2587 14.1457 47.282 14.1949 47.295 14.2286C47.3079 14.8896 47.6164 15.3795 47.8652 15.7735C48.0985 16.1442 48.2178 16.349 48.1815 16.5978L48.1607 16.7274C48.1607 16.7274 48.2229 17.0748 48.2463 17.1862C48.3552 17.7332 48.4329 18.2931 48.4796 18.853C48.4951 19.0681 48.4951 19.1666 48.4899 19.2107C48.4122 19.6591 48.5133 20.092 48.604 20.4757C48.731 21.02 48.7517 21.2248 48.6273 21.3648L48.4925 21.5125Z" fill="#D6E4EA"/>
<path d="M26.0599 17.7979C26.2241 17.4197 26.2157 17.0517 26.041 16.9759C25.8664 16.9 25.5917 17.1451 25.4274 17.5233C25.2632 17.9015 25.2717 18.2696 25.4464 18.3454C25.621 18.4212 25.8957 18.1761 26.0599 17.7979Z" fill="#D6E4EA"/>
<path d="M28.8939 11.1313C29.1012 11.0444 29.1161 10.609 28.9272 10.1588C28.7384 9.70864 28.4173 9.4142 28.21 9.50116C28.0027 9.58811 27.9878 10.0235 28.1767 10.4737C28.3655 10.9239 28.6867 11.2183 28.8939 11.1313Z" fill="#D6E4EA"/>
<path d="M26.8781 12.795C26.9247 12.3091 26.781 11.8977 26.5573 11.8763C26.3335 11.8549 26.1144 12.2315 26.0679 12.7174C26.0214 13.2034 26.165 13.6147 26.3888 13.6361C26.6125 13.6575 26.8316 13.281 26.8781 12.795Z" fill="#D6E4EA"/>
<path d="M24.2633 20.1392C24.4275 19.761 24.419 19.393 24.2444 19.3171C24.0697 19.2413 23.795 19.4864 23.6308 19.8646C23.4666 20.2428 23.4751 20.6109 23.6497 20.6867C23.8244 20.7625 24.0991 20.5174 24.2633 20.1392Z" fill="#D6E4EA"/>
<path d="M24.0272 18.3372C24.251 18.3158 24.3946 17.9044 24.3481 17.4185C24.3016 16.9325 24.0825 16.556 23.8587 16.5774C23.635 16.5988 23.4913 17.0101 23.5379 17.4961C23.5844 17.982 23.8035 18.3586 24.0272 18.3372Z" fill="#D6E4EA"/>
<path d="M47.1558 17.6482C47.3304 17.5724 47.3389 17.2043 47.1747 16.8261C47.0105 16.4479 46.7358 16.2028 46.5611 16.2786C46.3865 16.3545 46.378 16.7225 46.5422 17.1007C46.7064 17.4789 46.9811 17.724 47.1558 17.6482Z" fill="#D6E4EA"/>
<path d="M25.0454 16.2577C25.22 16.1819 25.2285 15.8138 25.0643 15.4356C24.9001 15.0575 24.6254 14.8123 24.4508 14.8882C24.2761 14.964 24.2676 15.3321 24.4318 15.7103C24.5961 16.0884 24.8707 16.3336 25.0454 16.2577Z" fill="#D6E4EA"/>
<path d="M43.7927 11.3013C43.9816 10.8511 43.9667 10.4157 43.7594 10.3288C43.5521 10.2418 43.231 10.5363 43.0422 10.9864C42.8533 11.4366 42.8682 11.872 43.0755 11.959C43.2827 12.0459 43.6039 11.7515 43.7927 11.3013Z" fill="#D6E4EA"/>
<path d="M45.5832 14.4676C45.8069 14.4462 45.9505 14.0348 45.904 13.5489C45.8575 13.0629 45.6384 12.6864 45.4146 12.7078C45.1909 12.7292 45.0472 13.1405 45.0938 13.6265C45.1403 14.1124 45.3594 14.489 45.5832 14.4676Z" fill="#D6E4EA"/>
<path d="M46.7375 20.8398C46.9612 20.8184 47.1048 20.4071 47.0583 19.9211C47.0118 19.4352 46.7927 19.0586 46.5689 19.08C46.3452 19.1014 46.2015 19.5127 46.2481 19.9987C46.2946 20.4847 46.5137 20.8612 46.7375 20.8398Z" fill="#D6E4EA"/>
<path d="M47.1734 23.0926C47.3376 22.7144 47.3292 22.3464 47.1545 22.2705C46.9799 22.1947 46.7052 22.4398 46.541 22.818C46.3768 23.1962 46.3852 23.5643 46.5599 23.6401C46.7345 23.7159 47.0092 23.4708 47.1734 23.0926Z" fill="#D6E4EA"/>
<path d="M43.7616 29.5934C43.9689 29.5065 43.9838 29.0711 43.7949 28.6209C43.6061 28.1707 43.2849 27.8763 43.0777 27.9633C42.8704 28.0502 42.8555 28.4856 43.0444 28.9358C43.2332 29.386 43.5543 29.6804 43.7616 29.5934Z" fill="#D6E4EA"/>
<path d="M45.904 26.3694C45.9505 25.8834 45.8069 25.4721 45.5832 25.4507C45.3594 25.4292 45.1403 25.8058 45.0938 26.2918C45.0472 26.7777 45.1909 27.189 45.4146 27.2105C45.6384 27.2319 45.8575 26.8553 45.904 26.3694Z" fill="#D6E4EA"/>
<path d="M24.0239 23.6409C24.1986 23.5651 24.207 23.197 24.0428 22.8188C23.8786 22.4406 23.6039 22.1955 23.4293 22.2714C23.2546 22.3472 23.2462 22.7152 23.4104 23.0934C23.5746 23.4716 23.8493 23.7167 24.0239 23.6409Z" fill="#D6E4EA"/>
<path d="M25.3865 21.8275C25.5611 21.7517 25.5696 21.3836 25.4054 21.0054C25.2412 20.6272 24.9665 20.3821 24.7918 20.458C24.6172 20.5338 24.6087 20.9019 24.7729 21.2801C24.9371 21.6582 25.2118 21.9034 25.3865 21.8275Z" fill="#D6E4EA"/>
<path d="M27.81 29.1395C27.9989 28.6893 27.984 28.2539 27.7767 28.167C27.5695 28.08 27.2484 28.3745 27.0595 28.8246C26.8706 29.2748 26.8855 29.7102 27.0928 29.7972C27.3001 29.8841 27.6212 29.5897 27.81 29.1395Z" fill="#D6E4EA"/>
<path d="M25.1742 27.2134C25.398 27.192 25.5416 26.7807 25.4951 26.2947C25.4485 25.8088 25.2294 25.4322 25.0057 25.4536C24.782 25.475 24.6383 25.8863 24.6848 26.3723C24.7314 26.8583 24.9505 27.2348 25.1742 27.2134Z" fill="#D6E4EA"/>
<path d="M38.2419 9.57635C38.3037 9.39625 38.0376 9.14181 37.6476 9.00806C37.2576 8.8743 36.8914 8.91188 36.8296 9.09198C36.7678 9.27209 37.0339 9.52652 37.4239 9.66028C37.8139 9.79403 38.1802 9.75646 38.2419 9.57635Z" fill="#D6E4EA"/>
<path d="M36.6836 8.02C37.0847 7.92424 37.3739 7.69648 37.3297 7.51129C37.2855 7.32609 36.9245 7.25359 36.5235 7.34935C36.1225 7.44511 35.8332 7.67287 35.8774 7.85806C35.9217 8.04326 36.2826 8.11576 36.6836 8.02Z" fill="#D6E4EA"/>
<path d="M31.5167 9.25106C31.7428 8.8184 31.7646 8.38327 31.5654 8.27917C31.3662 8.17508 31.0215 8.44143 30.7954 8.8741C30.5693 9.30676 30.5475 9.74189 30.7467 9.84598C30.9459 9.95008 31.2906 9.68372 31.5167 9.25106Z" fill="#D6E4EA"/>
<path d="M34.7927 8.48995C34.9277 8.31029 34.7209 7.92686 34.3306 7.63354C33.9404 7.34023 33.5146 7.2481 33.3795 7.42777C33.2445 7.60743 33.4514 7.99086 33.8416 8.28418C34.2318 8.57749 34.6576 8.66962 34.7927 8.48995Z" fill="#D6E4EA"/>
<path d="M40.7314 9.62873C41.1479 9.37416 41.3906 9.01233 41.2734 8.82054C41.1562 8.62876 40.7235 8.67965 40.307 8.93421C39.8904 9.18878 39.6477 9.55061 39.7649 9.7424C39.8822 9.93418 40.3148 9.88329 40.7314 9.62873Z" fill="#D6E4EA"/>
<path d="M39.235 8.41938C39.5025 8.2559 39.6582 8.02335 39.5828 7.89997C39.5074 7.77659 39.2294 7.80911 38.9619 7.9726C38.6944 8.13608 38.5387 8.36863 38.6141 8.49201C38.6895 8.61539 38.9674 8.58287 39.235 8.41938Z" fill="#D6E4EA"/>
<path d="M38.1808 30.5509C38.5497 30.3666 38.7797 30.0791 38.6946 29.9088C38.6094 29.7385 38.2415 29.7498 37.8726 29.9341C37.5038 30.1184 37.2738 30.4059 37.3589 30.5762C37.444 30.7465 37.812 30.7352 38.1808 30.5509Z" fill="#D6E4EA"/>
<path d="M38.0633 32.0768C38.0825 31.8874 37.7657 31.7 37.3555 31.6583C36.9453 31.6165 36.5971 31.7363 36.5779 31.9257C36.5586 32.1151 36.8755 32.3025 37.2857 32.3442C37.6959 32.386 38.044 32.2663 38.0633 32.0768Z" fill="#D6E4EA"/>
<path d="M35.0752 32.3558C35.4231 32.0133 35.5773 31.6058 35.4196 31.4457C35.2619 31.2855 34.8521 31.4333 34.5042 31.7757C34.1563 32.1182 34.0021 32.5257 34.1598 32.6859C34.3174 32.846 34.7273 32.6983 35.0752 32.3558Z" fill="#D6E4EA"/>
<path d="M30.2016 29.5561C30.2867 29.3858 30.0567 29.0983 29.6879 28.914C29.3191 28.7297 28.9511 28.7184 28.866 28.8887C28.7809 29.0591 29.0109 29.3465 29.3797 29.5308C29.7485 29.7151 30.1165 29.7264 30.2016 29.5561Z" fill="#D6E4EA"/>
<path d="M30.2722 31.3181C30.6824 31.2764 30.9993 31.089 30.98 30.8995C30.9607 30.7101 30.6126 30.5904 30.2024 30.6321C29.7922 30.6739 29.4753 30.8613 29.4946 31.0507C29.5139 31.2401 29.862 31.3598 30.2722 31.3181Z" fill="#D6E4EA"/>
<path d="M33.4001 31.6619C33.5577 31.5017 33.4035 31.0942 33.0557 30.7518C32.7078 30.4093 32.2979 30.2615 32.1402 30.4217C31.9826 30.5819 32.1368 30.9893 32.4847 31.3318C32.8325 31.6743 33.2424 31.8221 33.4001 31.6619Z" fill="#D6E4EA"/>
<path d="M41.7985 30.2566C41.8893 30.051 41.6007 29.7245 41.1541 29.5274C40.7075 29.3304 40.2719 29.3373 40.1811 29.5429C40.0904 29.7486 40.3789 30.075 40.8255 30.2721C41.2722 30.4692 41.7078 30.4622 41.7985 30.2566Z" fill="#D6E4EA"/>
<path d="M40.2421 31.3939C40.3004 31.2616 40.1152 31.0517 39.8284 30.9252C39.5416 30.7986 39.2617 30.8032 39.2033 30.9355C39.145 31.0678 39.3302 31.2777 39.617 31.4042C39.9039 31.5308 40.1837 31.5262 40.2421 31.3939Z" fill="#D6E4EA"/>
<g opacity="0.4">
<path d="M30.9876 27.0882C30.6895 27.0882 30.4174 26.9845 30.2955 26.7201C30.1556 26.4143 30.3266 26.0566 30.5677 25.8621C30.7336 25.7273 30.9254 25.6496 31.1121 25.5718C31.1769 25.5459 31.2417 25.5174 31.3065 25.4889C32.3433 25.0119 32.9318 23.9154 33.2454 23.0808C33.4165 22.6194 33.5539 22.1372 33.6835 21.6681C33.8416 21.1004 34.0075 20.5146 34.2382 19.9572C35.4021 17.1655 38.4375 15.2395 41.4599 15.3666C42.025 15.3899 42.4345 15.4806 42.7897 15.6543C43.1992 15.8565 44.1376 16.8259 44.2257 17.1396C44.3216 17.4792 44.1246 17.8084 43.8887 17.9872C43.6477 18.1661 43.3548 18.2361 43.0748 18.2827C42.3335 18.4071 41.5973 18.3553 40.887 18.3086C39.7932 18.2335 38.7589 18.1635 37.805 18.7156C36.9885 19.1848 36.2938 20.0169 35.6846 21.2507C35.5006 21.6214 35.3087 22.0491 35.1066 22.5027C34.7488 23.2985 34.3808 24.1202 34.0075 24.7501C33.5176 25.577 32.6725 26.6424 31.4179 27.0234C31.278 27.0675 31.1276 27.0908 30.9851 27.0908L30.9876 27.0882ZM41.1696 15.618C38.3467 15.618 35.568 17.448 34.4819 20.0557C34.2563 20.5975 34.093 21.1781 33.9375 21.738C33.8053 22.2124 33.6679 22.7023 33.4917 23.1715C33.1625 24.0528 32.5352 25.2115 31.4179 25.7248C31.3505 25.7559 31.2832 25.7844 31.2158 25.8129C31.0395 25.8855 30.871 25.9555 30.7336 26.0669C30.5729 26.1965 30.4511 26.4324 30.534 26.6165C30.6455 26.8627 31.0343 26.8731 31.348 26.7772C32.5222 26.4195 33.3232 25.4059 33.7898 24.6205C34.1552 24.001 34.5207 23.1871 34.8759 22.399C35.0806 21.9454 35.2725 21.5151 35.4591 21.1393C36.0916 19.8561 36.82 18.9904 37.6806 18.4927C38.7045 17.9017 39.7776 17.9743 40.9104 18.052C41.6051 18.0987 42.3257 18.1479 43.0385 18.0287C43.2874 17.9872 43.544 17.9276 43.741 17.7824C43.9017 17.6632 44.0443 17.4325 43.9847 17.2148C43.9276 17.0126 43.0696 16.082 42.6834 15.8928C42.3646 15.7346 41.9861 15.6543 41.4573 15.6335C41.364 15.6284 41.2681 15.6284 41.1748 15.6284L41.1696 15.618Z" fill="white"/>
</g>
<g opacity="0.4">
<path d="M30.7648 25.1441C30.6196 25.1441 30.516 25.0948 30.4537 25.0015C30.3008 24.7605 30.516 24.3094 30.8711 23.5681C31.1847 22.9123 31.5735 22.0983 31.812 21.1937C32.1749 19.825 33.1677 16.4967 34.5312 15.1332C35.9361 13.7309 37.24 12.8262 39.3811 12.6629C40.0706 12.6111 40.9234 12.6474 41.4237 13.4095C41.657 13.7646 41.7088 14.0886 41.574 14.3452C41.377 14.7237 40.8145 14.9207 39.8554 14.9492C37.4447 15.0166 35.2933 16.5952 33.9531 19.2807C33.8209 19.5451 33.6499 20.0687 33.4528 20.6726C32.8385 22.5597 31.9961 25.1467 30.7648 25.1467V25.1441ZM39.7751 12.904C39.6507 12.904 39.5262 12.9092 39.4018 12.9196C37.3385 13.0777 36.0787 13.9538 34.7152 15.3147C33.3958 16.6315 32.4212 19.908 32.0635 21.2559C31.8172 22.1839 31.4232 23.0108 31.1044 23.6769C30.8659 24.1746 30.5963 24.7397 30.6741 24.8616C30.6818 24.8745 30.7181 24.8849 30.7648 24.8849C31.8068 24.8849 32.6493 22.3005 33.2066 20.5897C33.4062 19.9754 33.5799 19.4466 33.7198 19.164C35.104 16.3904 37.3385 14.76 39.8477 14.69C40.9001 14.6615 41.2422 14.4204 41.3459 14.226C41.4574 14.0108 41.333 13.7413 41.2085 13.552C40.8638 13.0258 40.3194 12.904 39.7751 12.904Z" fill="white"/>
</g>
<g opacity="0.4">
<path d="M31.3064 18.0987C30.9435 18.0987 30.788 17.6762 30.762 17.3133C30.7413 16.9944 31.1198 15.5739 31.2701 15.1566C31.4593 14.6226 31.7678 14.1457 32.1877 13.7387L32.3277 13.6013C32.5921 13.3343 32.8954 13.031 33.2816 12.8677C33.6575 12.707 34.1785 12.6915 34.4921 13.0181C34.8654 13.4069 34.7254 14.0523 34.3936 14.493C34.2277 14.7133 33.8908 14.9233 33.5642 15.1255C33.2738 15.3043 32.9757 15.491 32.8384 15.6595C32.5532 16.012 32.4107 16.4812 32.2862 16.8959C32.0996 17.5154 31.9207 18.1013 31.3064 18.1013V18.0987ZM32.3692 13.9227C31.9804 14.3038 31.6926 14.747 31.5138 15.2421C31.3479 15.7087 31.0057 17.0514 31.0213 17.2951C31.0342 17.5051 31.1249 17.8395 31.3064 17.8395C31.7108 17.8395 31.843 17.4714 32.04 16.8182C32.1722 16.3801 32.3225 15.885 32.6388 15.4936C32.8021 15.2914 33.1079 15.1022 33.4294 14.9026C33.7352 14.7133 34.0515 14.5163 34.1889 14.3349C34.4481 13.9927 34.5777 13.4769 34.3081 13.1969C34.0826 12.961 33.673 12.9844 33.3879 13.1062C33.0483 13.2514 32.7658 13.5365 32.5143 13.7853L32.3718 13.9253L32.3692 13.9227Z" fill="white"/>
</g>
<g opacity="0.4">
<path d="M30.6532 21.8469C30.394 21.8469 30.1296 21.7251 29.9663 21.5099C29.7486 21.2196 29.72 20.7919 29.8963 20.442C29.9404 20.3564 29.9948 20.2735 30.0467 20.1957C30.1529 20.0376 30.2514 19.8898 30.2411 19.7343C30.2359 19.6643 30.2074 19.5866 30.1789 19.5062C30.1322 19.3766 30.0778 19.2289 30.1141 19.0681C30.1244 19.0189 30.1581 18.9515 30.2488 18.8996C30.521 18.7441 31.1742 18.8478 31.2701 18.8789C31.5942 18.9774 31.7652 19.3429 31.7341 19.8587C31.7108 20.2398 31.6408 20.6208 31.5294 20.9863C31.4516 21.2378 31.3142 21.5929 31.0057 21.7588C30.8969 21.8184 30.775 21.8443 30.6506 21.8443L30.6532 21.8469ZM30.3681 19.1329C30.3499 19.2159 30.3836 19.3092 30.4251 19.4155C30.4588 19.5088 30.4951 19.6073 30.5029 19.7162C30.5184 19.9598 30.3836 20.162 30.2644 20.3383C30.2151 20.4109 30.1659 20.4834 30.1296 20.5586C29.9974 20.8204 30.0156 21.1393 30.1763 21.3518C30.3396 21.5696 30.6662 21.6499 30.8865 21.5307C31.1094 21.4088 31.2157 21.1341 31.2857 20.9086C31.392 20.5612 31.4568 20.2009 31.4801 19.8406C31.4983 19.5399 31.436 19.1952 31.2002 19.1252C31.0239 19.0707 30.451 19.0448 30.3707 19.1329H30.3681Z" fill="white"/>
</g>
<g opacity="0.3">
<path d="M45.2547 19.3403C45.2495 19.3947 45.2444 19.4518 45.2392 19.5114C43.3314 20.162 41.1228 19.9572 39.1813 20.3175C38.2378 20.4731 37.9864 21.0226 37.8334 21.9143C37.061 25.2478 35.9334 27.1608 33.3775 28.5243C33.2557 28.5113 33.1391 28.4957 33.0276 28.4828C35.5368 26.9275 36.5477 25.2115 37.3305 21.7977C37.429 21.3959 37.499 20.9189 37.8205 20.5016C38.1289 20.105 38.6214 19.9183 39.088 19.8406C39.9693 19.6928 40.8325 19.6902 41.6879 19.6643C42.87 19.6073 44.1012 19.6228 45.2547 19.3403Z" fill="black"/>
</g>
<g opacity="0.3">
<path d="M45.1434 20.4342C45.133 20.5223 45.1226 20.613 45.1148 20.7038C43.4948 21.0096 41.7477 20.9293 40.1742 21.2222C39.2307 21.3777 38.9792 21.9247 38.8263 22.8189C38.1912 25.5588 37.3151 27.3422 35.5991 28.6461C35.5654 28.6487 35.5343 28.6487 35.5006 28.6487H35.4202C35.3062 28.6487 35.1947 28.6461 35.0833 28.6461C36.8381 27.2593 37.6598 25.5874 38.3234 22.7023C38.4219 22.3005 38.4919 21.821 38.8133 21.4062C39.1218 21.0096 39.6143 20.823 40.0809 20.7426C40.9622 20.5975 41.8254 20.5949 42.6808 20.569C43.4922 20.5301 44.3268 20.5223 45.1434 20.4342Z" fill="black"/>
</g>
<g opacity="0.3">
<path d="M45.0189 21.4995C45.0059 21.6136 44.9904 21.7302 44.9748 21.8469C43.6943 21.9765 42.3775 21.9817 41.167 22.2072C40.226 22.3601 39.972 22.9097 39.8216 23.8014C39.3628 25.7688 38.7822 27.2463 37.8542 28.4024C37.6494 28.4491 37.4395 28.488 37.2295 28.5217C38.2327 27.3319 38.8185 25.8492 39.3162 23.6873C39.4147 23.2855 39.4847 22.806 39.8061 22.3912C40.1145 21.9946 40.6096 21.808 41.0736 21.7277C41.955 21.5825 42.8182 21.5799 43.6736 21.554C44.1168 21.5332 44.5678 21.5203 45.0189 21.4995Z" fill="black"/>
</g>
<g opacity="0.3">
<path d="M44.8763 22.5468C44.8581 22.679 44.8374 22.8112 44.8166 22.9382C43.912 23.0004 43.0099 23.0497 42.1597 23.2078C41.2188 23.3607 40.9647 23.9102 40.8144 24.8019C40.5655 25.8699 40.283 26.7927 39.9227 27.5989C39.7049 27.7026 39.482 27.8062 39.2539 27.9125C39.6842 27.026 40.0134 25.9762 40.3089 24.6879C40.4074 24.2861 40.4774 23.8066 40.7988 23.3918C41.1073 22.9952 41.6024 22.8086 42.0664 22.7282C42.9477 22.5831 43.8109 22.5805 44.6663 22.5546C44.7363 22.552 44.8063 22.5468 44.8763 22.5468Z" fill="black"/>
</g>
<g opacity="0.3">
<path d="M44.6898 23.6458C44.6587 23.8014 44.6146 23.9491 44.5576 24.0917C44.078 24.1332 43.6089 24.185 43.1526 24.2705C42.2117 24.4261 41.9577 24.9756 41.8073 25.8673C41.7347 26.1836 41.657 26.4868 41.574 26.7797C41.3744 26.8886 41.1671 26.9949 40.9519 27.1012C41.0763 26.6838 41.1904 26.2354 41.3018 25.7533C41.4003 25.3489 41.4703 24.8719 41.7918 24.4546C42.1002 24.0606 42.5953 23.874 43.0593 23.7936C43.6089 23.7029 44.1532 23.6666 44.6898 23.6458Z" fill="black"/>
</g>
<g opacity="0.4">
<path d="M27.4208 25.7792C27.3819 25.7792 27.3404 25.774 27.3016 25.7636C27.1253 25.717 26.9801 25.5666 26.8764 25.3178C26.6354 24.7423 26.5732 24.2239 26.6924 23.7806C26.7417 23.594 26.7961 23.4151 26.8479 23.2337C27.102 22.3705 27.343 21.554 27.172 20.4445C26.682 17.2277 28.7195 14.4463 28.7402 14.4178L29.3079 13.7335L28.9631 14.5474C28.9631 14.5474 28.4499 15.7709 28.0896 17.8317C27.7967 19.5088 28.0014 21.7614 28.2347 22.7567C28.2555 22.8501 28.2814 22.9486 28.3073 23.0471C28.5173 23.8662 28.7765 24.8875 27.8252 25.6159C27.6852 25.7247 27.5478 25.7792 27.4182 25.7792H27.4208ZM28.7843 14.563C28.3721 15.211 27.0605 17.4558 27.4312 20.4057C27.5789 21.5747 27.3612 22.4146 27.0994 23.3063C27.0475 23.4851 26.9931 23.664 26.9438 23.8454C26.8402 24.2317 26.8972 24.6931 27.1175 25.2141C27.1668 25.3307 27.2497 25.4785 27.369 25.5096C27.4493 25.5303 27.553 25.4966 27.6696 25.4085C28.4862 24.7838 28.2581 23.8947 28.0585 23.1093C28.0325 23.0082 28.0066 22.9097 27.9859 22.8138C27.7941 21.9921 27.4441 19.6695 27.8381 17.785C28.1492 16.2997 28.5976 15.1358 28.7843 14.563Z" fill="white"/>
</g>
</g>
<path d="M24.8333 48.6667L18.1666 55.3333L14.8333 52" stroke="black" stroke-width="1.66667" stroke-linecap="round" stroke-linejoin="round"/>
<path d="M35.4468 57.084C34.8868 57.084 34.3828 56.988 33.9348 56.796C33.4868 56.596 33.1348 56.316 32.8788 55.956C32.6228 55.596 32.4948 55.176 32.4948 54.696H33.9588C33.9908 55.056 34.1308 55.352 34.3788 55.584C34.6348 55.816 34.9908 55.932 35.4468 55.932C35.9188 55.932 36.2868 55.82 36.5508 55.596C36.8148 55.364 36.9468 55.068 36.9468 54.708C36.9468 54.428 36.8628 54.2 36.6948 54.024C36.5348 53.848 36.3308 53.712 36.0828 53.616C35.8428 53.52 35.5068 53.416 35.0748 53.304C34.5308 53.16 34.0868 53.016 33.7428 52.872C33.4068 52.72 33.1188 52.488 32.8788 52.176C32.6388 51.864 32.5188 51.448 32.5188 50.928C32.5188 50.448 32.6388 50.028 32.8788 49.668C33.1188 49.308 33.4548 49.032 33.8868 48.84C34.3188 48.648 34.8188 48.552 35.3868 48.552C36.1948 48.552 36.8548 48.756 37.3668 49.164C37.8868 49.564 38.1748 50.116 38.2308 50.82H36.7188C36.6948 50.516 36.5508 50.256 36.2868 50.04C36.0228 49.824 35.6748 49.716 35.2428 49.716C34.8508 49.716 34.5308 49.816 34.2828 50.016C34.0348 50.216 33.9108 50.504 33.9108 50.88C33.9108 51.136 33.9868 51.348 34.1388 51.516C34.2988 51.676 34.4988 51.804 34.7388 51.9C34.9788 51.996 35.3068 52.1 35.7228 52.212C36.2748 52.364 36.7228 52.516 37.0668 52.668C37.4188 52.82 37.7148 53.056 37.9548 53.376C38.2028 53.688 38.3268 54.108 38.3268 54.636C38.3268 55.06 38.2108 55.46 37.9788 55.836C37.7548 56.212 37.4228 56.516 36.9828 56.748C36.5508 56.972 36.0388 57.084 35.4468 57.084ZM45.929 50.388V57H44.561V56.22C44.345 56.492 44.061 56.708 43.709 56.868C43.365 57.02 42.997 57.096 42.605 57.096C42.085 57.096 41.617 56.988 41.201 56.772C40.793 56.556 40.469 56.236 40.229 55.812C39.997 55.388 39.881 54.876 39.881 54.276V50.388H41.237V54.072C41.237 54.664 41.385 55.12 41.681 55.44C41.977 55.752 42.381 55.908 42.893 55.908C43.405 55.908 43.809 55.752 44.105 55.44C44.409 55.12 44.561 54.664 44.561 54.072V50.388H45.929ZM50.134 57.108C49.614 57.108 49.146 57.016 48.73 56.832C48.322 56.64 47.998 56.384 47.758 56.064C47.518 55.736 47.39 55.372 47.374 54.972H48.79C48.814 55.252 48.946 55.488 49.186 55.68C49.434 55.864 49.742 55.956 50.11 55.956C50.494 55.956 50.79 55.884 50.998 55.74C51.214 55.588 51.322 55.396 51.322 55.164C51.322 54.916 51.202 54.732 50.962 54.612C50.73 54.492 50.358 54.36 49.846 54.216C49.35 54.08 48.946 53.948 48.634 53.82C48.322 53.692 48.05 53.496 47.818 53.232C47.594 52.968 47.482 52.62 47.482 52.188C47.482 51.836 47.586 51.516 47.794 51.228C48.002 50.932 48.298 50.7 48.682 50.532C49.074 50.364 49.522 50.28 50.026 50.28C50.778 50.28 51.382 50.472 51.838 50.856C52.302 51.232 52.55 51.748 52.582 52.404H51.214C51.19 52.108 51.07 51.872 50.854 51.696C50.638 51.52 50.346 51.432 49.978 51.432C49.618 51.432 49.342 51.5 49.15 51.636C48.958 51.772 48.862 51.952 48.862 52.176C48.862 52.352 48.926 52.5 49.054 52.62C49.182 52.74 49.338 52.836 49.522 52.908C49.706 52.972 49.978 53.056 50.338 53.16C50.818 53.288 51.21 53.42 51.514 53.556C51.826 53.684 52.094 53.876 52.318 54.132C52.542 54.388 52.658 54.728 52.666 55.152C52.666 55.528 52.562 55.864 52.354 56.16C52.146 56.456 51.85 56.688 51.466 56.856C51.09 57.024 50.646 57.108 50.134 57.108ZM57.5641 50.28C58.0681 50.28 58.5161 50.388 58.9081 50.604C59.3081 50.82 59.6201 51.14 59.8441 51.564C60.0761 51.988 60.1921 52.5 60.1921 53.1V57H58.8361V53.304C58.8361 52.712 58.6881 52.26 58.3921 51.948C58.0961 51.628 57.6921 51.468 57.1801 51.468C56.6681 51.468 56.2601 51.628 55.9561 51.948C55.6601 52.26 55.5121 52.712 55.5121 53.304V57H54.1441V48.12H55.5121V51.156C55.7441 50.876 56.0361 50.66 56.3881 50.508C56.7481 50.356 57.1401 50.28 57.5641 50.28ZM62.6331 49.512C62.3851 49.512 62.1771 49.428 62.0091 49.26C61.8411 49.092 61.7571 48.884 61.7571 48.636C61.7571 48.388 61.8411 48.18 62.0091 48.012C62.1771 47.844 62.3851 47.76 62.6331 47.76C62.8731 47.76 63.0771 47.844 63.2451 48.012C63.4131 48.18 63.4971 48.388 63.4971 48.636C63.4971 48.884 63.4131 49.092 63.2451 49.26C63.0771 49.428 62.8731 49.512 62.6331 49.512ZM63.3051 50.388V57H61.9371V50.388H63.3051Z" fill="black"/>
<defs>
<clipPath id="clip0_134_18809">
<rect width="35.5512" height="32" fill="white" transform="translate(20.2251 4)"/>
</clipPath>
</defs>
</svg>
