<svg width="76" height="62" viewBox="0 0 76 62" fill="none" xmlns="http://www.w3.org/2000/svg">
<g clip-path="url(#clip0_134_18844)">
<path d="M58.4436 15.0659C58.3736 16.8933 55.2682 18.516 50.478 19.5554C47.0278 20.3046 42.6989 20.7504 37.9994 20.7504C37.0662 20.7504 36.1486 20.7323 35.2491 20.6986C25.3342 20.3253 17.6692 17.9509 17.5577 15.0659H58.4462H58.4436Z" fill="#1A292D"/>
<path d="M37.9994 22.1268C49.9919 22.1268 59.7138 18.9655 59.7138 15.0658C59.7138 11.1662 49.9919 8.00485 37.9994 8.00485C26.0069 8.00485 16.285 11.1662 16.285 15.0658C16.285 18.9655 26.0069 22.1268 37.9994 22.1268Z" fill="#1A292D"/>
<path d="M54.615 11.652C53.7959 11.3306 52.8627 11.0351 51.831 10.7681C51.7118 10.2808 51.5614 9.86343 51.4033 9.51089C52.4168 9.77011 53.3552 10.0578 54.2132 10.3715C54.2132 10.3793 54.221 10.387 54.221 10.3948L54.2339 10.4285C54.3713 10.7785 54.5035 11.1854 54.615 11.652Z" fill="#304044"/>
<path d="M37.9994 10.6255C48.4639 10.6255 57.0854 12.8366 58.2933 15.688C58.3892 15.4625 58.4436 15.2343 58.4436 15.001C58.4436 11.8257 49.2908 9.25168 37.9994 9.25168C26.708 9.25168 17.5552 11.8257 17.5552 15.0036C17.5552 15.2369 17.6096 15.465 17.7055 15.6906C18.9135 12.8392 27.5349 10.6281 37.9994 10.6281V10.6255Z" fill="#1A292D"/>
<path d="M59.6827 15.4625C59.0735 26.9068 49.5992 36 37.9994 36C26.3996 36 16.9279 26.9068 16.3187 15.4625C16.819 18.4045 22.8587 20.8645 31.1017 21.7614C33.0717 21.9765 35.1688 22.1009 37.3462 22.1217C37.4965 22.1217 37.6443 22.1217 37.7946 22.1217H37.9994C41.1748 22.1217 44.1894 21.8987 46.9086 21.4996C47.8392 21.3648 48.7309 21.2066 49.5863 21.033C51.2401 20.6934 52.7435 20.2813 54.0551 19.8121C57.3135 18.6508 59.395 17.1318 59.6801 15.4573L59.6827 15.4625Z" fill="#1A292D"/>
<path d="M58.6303 12.8599C58.6303 12.8599 58.6199 12.8496 58.6147 12.8444C58.5396 12.7718 58.4592 12.6992 58.3763 12.6266C58.3374 12.5929 58.3011 12.5566 58.2596 12.523C58.1844 12.4581 58.0989 12.3959 58.0185 12.3311C57.9719 12.2948 57.9304 12.2586 57.8811 12.2223C57.8163 12.1756 57.7464 12.1238 57.6738 12.0745C57.6168 12.0356 57.5597 11.9967 57.5001 11.9579C57.4768 11.9423 57.4534 11.9268 57.4301 11.9112C57.3446 11.8568 57.259 11.8023 57.1683 11.7453C57.1139 11.7142 57.0594 11.6805 57.0024 11.6468C56.8495 11.5587 56.6914 11.4705 56.5281 11.3824C56.4632 11.3487 56.3933 11.315 56.3259 11.2787C56.2429 11.2372 56.1626 11.1932 56.077 11.1517C56.0667 11.1465 56.0563 11.1413 56.0459 11.1362C55.9733 11.1025 55.9008 11.0662 55.8256 11.0325C55.7297 10.9884 55.6312 10.9417 55.5327 10.8977C55.4575 10.864 55.3849 10.8329 55.3072 10.7992C55.1957 10.7525 55.0842 10.7059 54.9702 10.6592C54.9028 10.6307 54.838 10.6048 54.768 10.5788C54.5839 10.5063 54.3973 10.4337 54.2055 10.3637C54.2055 10.3715 54.2133 10.3792 54.2133 10.387L54.2262 10.4207C54.3636 10.7707 54.4958 11.1776 54.6073 11.6442C54.8976 11.7583 55.1724 11.8749 55.4316 11.9916C55.4653 12.0071 55.4964 12.0227 55.5275 12.0382C55.6078 12.0745 55.6856 12.1134 55.7634 12.1523C55.8178 12.1782 55.8722 12.2067 55.9267 12.2352C55.963 12.2534 55.9993 12.2741 56.0355 12.2923C56.1107 12.3311 56.1885 12.3726 56.2611 12.4141C56.3622 12.4711 56.4607 12.5281 56.5566 12.5852C56.5566 12.5852 56.5617 12.5878 56.5643 12.5903C56.6525 12.6422 56.7328 12.6966 56.8158 12.7511C56.8573 12.7796 56.8987 12.8055 56.9402 12.834C57.0128 12.8833 57.0854 12.9351 57.1528 12.9844C57.2383 13.0492 57.3187 13.114 57.3964 13.1788C57.399 13.1814 57.4042 13.1839 57.4068 13.1865C57.469 13.2384 57.5234 13.2902 57.5805 13.3447C57.6012 13.3628 57.6219 13.381 57.6401 13.3991C57.6738 13.4302 57.7023 13.4639 57.7334 13.495C57.7671 13.5313 57.8034 13.5676 57.8345 13.6013C57.863 13.6324 57.8889 13.6661 57.9148 13.6972C57.946 13.7335 57.9745 13.7724 58.003 13.8087C58.0263 13.8398 58.0496 13.8735 58.0704 13.9046C58.0963 13.9434 58.1222 13.9823 58.1455 14.0186C58.1637 14.0497 58.1844 14.0808 58.2 14.1119C58.2233 14.1534 58.2415 14.1923 58.2596 14.2338C58.2726 14.2649 58.2881 14.2934 58.3011 14.3245C58.3192 14.3712 58.3348 14.4152 58.3503 14.4619C58.3581 14.4878 58.3685 14.5137 58.3763 14.5396C58.3944 14.607 58.4099 14.677 58.4203 14.7444C58.4255 14.7833 58.4281 14.8248 58.4307 14.8637C58.4333 14.9077 58.4411 14.9518 58.4411 14.9959C58.4411 15.0166 58.4411 15.0399 58.4411 15.0581C58.3944 16.3153 56.9117 17.4739 54.4388 18.4123C53.3112 18.84 51.9762 19.2236 50.4754 19.5477C49.537 19.7524 48.5287 19.9339 47.4711 20.0894C44.6379 20.5068 41.4159 20.7426 37.9968 20.7426C37.6806 20.7426 37.3643 20.7426 37.0507 20.7349C36.4415 20.7271 35.8402 20.7115 35.2466 20.6908C33.5435 20.6286 31.9053 20.5016 30.3656 20.3279C22.9209 19.4854 17.6485 17.448 17.5552 15.0581C17.5552 15.0373 17.5552 15.014 17.5552 14.9959C17.5552 12.4737 23.3227 10.3326 31.348 9.55495C33.4321 9.35276 35.6691 9.24389 37.9994 9.24389C43.334 9.24389 48.1891 9.81675 51.8285 10.7577C51.7093 10.2704 51.5589 9.85304 51.4008 9.50051C47.7096 8.55957 43.0567 7.99707 37.9994 7.99707C35.6535 7.99707 33.3906 8.1189 31.2728 8.34442C22.5736 9.2724 16.285 11.9319 16.285 15.0658C16.285 15.2006 16.2954 15.3302 16.3187 15.4624C16.819 18.4045 22.8587 20.8645 31.1017 21.7613C33.0718 21.9765 35.1688 22.1009 37.3462 22.1217C37.4965 22.1217 37.6443 22.1217 37.7946 22.1217H37.9994C41.1748 22.1217 44.1895 21.8987 46.9086 21.4995C47.8392 21.3648 48.7309 21.2066 49.5863 21.033C51.2401 20.6934 52.7435 20.2812 54.0551 19.8121C57.3135 18.6508 59.395 17.1318 59.6801 15.4573C59.7034 15.3251 59.7138 15.1955 59.7138 15.0607C59.7138 14.2908 59.3302 13.5494 58.6277 12.8547L58.6303 12.8599Z" fill="#304044"/>
<path d="M39.8165 9.8349H27.5038V19.1174H39.8165V9.8349Z" fill="white"/>
<path d="M27.5038 9.8349L36.3378 5.82486H47.3363L39.8165 9.8349H27.5038Z" fill="#F6F7F0"/>
<path d="M47.3363 5.82486V13.241L39.8165 19.1174V9.8349L47.3363 5.82486Z" fill="#E4E5DF"/>
<path d="M50.6335 16.3878C50.2965 16.7585 50.325 17.334 50.7009 17.6735C50.9756 17.9224 51.1804 18.2568 51.043 18.6586C50.986 18.8322 50.649 19.1925 50.0995 19.6358C49.27 19.8069 48.3913 19.9624 47.4762 20.0972C46.3072 20.2683 45.0733 20.4108 43.785 20.5145C41.9524 20.6675 40.0109 20.7504 38.002 20.7504C37.6831 20.7504 37.3669 20.7478 37.0558 20.7426C36.6722 20.74 36.2911 20.7323 35.9153 20.7167C37.0066 19.8224 39.1736 17.8965 39.5365 16.4241C39.9668 14.6692 39.565 12.2352 42.1546 11.5405C42.8467 11.3539 43.391 10.8355 43.6243 10.1589C43.7021 9.9334 43.8187 9.70529 43.9535 9.50051C44.192 9.1402 44.4875 8.85248 44.7597 8.76175C45.0474 8.66584 45.3014 8.55956 45.5244 8.44033C46.3616 8.00744 46.7815 7.4268 47.0019 6.57658C47.2792 5.52935 47.9325 4.10108 49.5318 4.00258C51.5848 3.87816 51.704 7.64972 51.6392 9.26981C51.6288 9.51866 51.6703 9.76491 51.7559 9.99561C51.8155 10.1589 51.901 10.3144 52.0047 10.457C52.4765 11.1076 53.1349 12.313 52.6476 13.4872C52.2147 14.5345 51.2971 15.6569 50.6361 16.3852L50.6335 16.3878Z" fill="#1E8637"/>
<path d="M57.9718 15.7424C57.8189 16.1079 57.6089 16.4838 57.373 16.8467C56.6861 17.4169 55.6907 17.9483 54.4413 18.4227C53.3138 18.8478 51.9762 19.234 50.4779 19.558C50.3535 19.5866 50.2265 19.6125 50.0995 19.6384C49.27 19.8095 48.3913 19.965 47.4762 20.0998C46.3072 20.2709 45.0733 20.4135 43.785 20.5171C44.3061 19.895 44.7208 19.2496 44.8608 18.6767C45.2911 16.9218 44.8893 14.4878 47.4788 13.7931C48.1709 13.6065 48.7127 13.0881 48.9486 12.4115C49.1663 11.7894 49.6562 11.1595 50.0839 11.0143C50.4624 10.8873 50.7838 10.7422 51.056 10.5789C51.2867 10.4441 51.4785 10.2911 51.6392 10.1226C51.6807 10.0812 51.717 10.0397 51.7533 9.99823C52.0255 9.67421 52.2043 9.29316 52.3261 8.82917C52.6035 7.78194 53.2567 6.35367 54.8561 6.25517C56.9091 6.13075 57.0283 9.90232 56.9635 11.5224C56.9635 11.5561 56.9609 11.5924 56.9609 11.6261C56.9661 12.0175 57.0957 12.3934 57.329 12.7122C57.5052 12.9559 57.7074 13.2773 57.8656 13.6454C58.1325 14.2597 58.2751 15.0062 57.9718 15.745V15.7424Z" fill="#44C660"/>
<path d="M30.7933 19.3325C30.8685 19.4958 30.91 19.6747 30.91 19.8691C30.91 20.0505 30.8737 20.2268 30.8037 20.3849C30.6559 20.372 30.5108 20.3538 30.3656 20.3383C29.5206 20.2449 28.7066 20.1335 27.9238 20.0065C27.9212 19.9987 27.9186 19.9935 27.9134 19.9883C26.3037 19.7161 25.0906 19.4621 24.1211 19.2262C24.1082 19.2236 24.0952 19.221 24.0823 19.2185C21.98 18.7026 21.0546 18.2827 19.813 17.995C19.5279 18.1453 19.2012 18.2309 18.8539 18.2309C18.7476 18.2309 18.6439 18.2231 18.5403 18.2023C17.7211 18.0805 17.0575 17.4739 16.8554 16.6833C16.8113 16.5174 16.788 16.3464 16.788 16.1649C16.788 15.6361 16.9876 15.1566 17.3142 14.7911C17.0887 14.4878 16.9539 14.1093 16.9539 13.7024C16.9539 13.5443 16.972 13.3913 17.0109 13.2462C17.1768 12.6085 17.6719 12.1082 18.3044 11.9371C18.2914 11.8516 18.281 11.7635 18.281 11.6701C18.281 10.6566 19.1002 9.83749 20.1137 9.83749C20.6684 9.83749 21.1661 10.0837 21.5005 10.4778C21.726 10.737 21.8763 11.061 21.9256 11.4187C21.9619 11.4161 21.9982 11.4109 22.0371 11.4083C22.0811 11.4057 22.1252 11.4031 22.1718 11.4031C23.3124 11.4031 24.2378 12.3311 24.2378 13.4717C24.2378 13.5028 24.2352 13.5313 24.2326 13.5624C24.2637 13.5624 24.2922 13.5572 24.3233 13.5572C25.285 13.5572 26.086 14.2104 26.3193 15.097C26.537 14.9388 26.8014 14.8455 27.0891 14.8455C27.649 14.8455 28.1208 15.1929 28.3152 15.6828C28.5589 15.4054 28.9088 15.2292 29.3028 15.2292C30.0338 15.2292 30.6222 15.8176 30.6222 16.5486C30.6222 16.8648 30.5082 17.1499 30.3241 17.378C30.7544 17.5932 31.0499 18.0364 31.0499 18.5523C31.0499 18.8452 30.9514 19.1148 30.7881 19.3351L30.7933 19.3325Z" fill="url(#paint0_linear_134_18844)"/>
</g>
<path d="M26.1896 48.66L23.0576 57H21.4736L18.3296 48.66H19.7936L22.2656 55.596L24.7496 48.66H26.1896ZM33.3936 53.532C33.3936 53.78 33.3776 54.004 33.3456 54.204H28.2936C28.3336 54.732 28.5296 55.156 28.8816 55.476C29.2336 55.796 29.6656 55.956 30.1776 55.956C30.9136 55.956 31.4336 55.648 31.7376 55.032H33.2136C33.0136 55.64 32.6496 56.14 32.1216 56.532C31.6016 56.916 30.9536 57.108 30.1776 57.108C29.5456 57.108 28.9776 56.968 28.4736 56.688C27.9776 56.4 27.5856 56 27.2976 55.488C27.0176 54.968 26.8776 54.368 26.8776 53.688C26.8776 53.008 27.0136 52.412 27.2856 51.9C27.5656 51.38 27.9536 50.98 28.4496 50.7C28.9536 50.42 29.5296 50.28 30.1776 50.28C30.8016 50.28 31.3576 50.416 31.8456 50.688C32.3336 50.96 32.7136 51.344 32.9856 51.84C33.2576 52.328 33.3936 52.892 33.3936 53.532ZM31.9656 53.1C31.9576 52.596 31.7776 52.192 31.4256 51.888C31.0736 51.584 30.6376 51.432 30.1176 51.432C29.6456 51.432 29.2416 51.584 28.9056 51.888C28.5696 52.184 28.3696 52.588 28.3056 53.1H31.9656ZM37.4038 50.28C37.9158 50.28 38.3678 50.384 38.7598 50.592C39.1598 50.792 39.4718 51.044 39.6958 51.348V50.388H41.0758V57.108C41.0758 57.716 40.9478 58.256 40.6918 58.728C40.4358 59.208 40.0638 59.584 39.5758 59.856C39.0958 60.128 38.5198 60.264 37.8478 60.264C36.9518 60.264 36.2078 60.052 35.6158 59.628C35.0238 59.212 34.6878 58.644 34.6078 57.924H35.9638C36.0678 58.268 36.2878 58.544 36.6238 58.752C36.9678 58.968 37.3758 59.076 37.8478 59.076C38.3998 59.076 38.8438 58.908 39.1798 58.572C39.5238 58.236 39.6958 57.748 39.6958 57.108V56.004C39.4638 56.316 39.1478 56.58 38.7478 56.796C38.3558 57.004 37.9078 57.108 37.4038 57.108C36.8278 57.108 36.2998 56.964 35.8198 56.676C35.3478 56.38 34.9718 55.972 34.6918 55.452C34.4198 54.924 34.2838 54.328 34.2838 53.664C34.2838 53 34.4198 52.412 34.6918 51.9C34.9718 51.388 35.3478 50.992 35.8198 50.712C36.2998 50.424 36.8278 50.28 37.4038 50.28ZM39.6958 53.688C39.6958 53.232 39.5998 52.836 39.4078 52.5C39.2238 52.164 38.9798 51.908 38.6758 51.732C38.3718 51.556 38.0438 51.468 37.6918 51.468C37.3398 51.468 37.0118 51.556 36.7078 51.732C36.4038 51.9 36.1558 52.152 35.9638 52.488C35.7798 52.816 35.6878 53.208 35.6878 53.664C35.6878 54.12 35.7798 54.52 35.9638 54.864C36.1558 55.208 36.4038 55.472 36.7078 55.656C37.0198 55.832 37.3478 55.92 37.6918 55.92C38.0438 55.92 38.3718 55.832 38.6758 55.656C38.9798 55.48 39.2238 55.224 39.4078 54.888C39.5998 54.544 39.6958 54.144 39.6958 53.688ZM42.4167 53.664C42.4167 53 42.5527 52.412 42.8247 51.9C43.1047 51.388 43.4807 50.992 43.9527 50.712C44.4327 50.424 44.9607 50.28 45.5367 50.28C46.0567 50.28 46.5087 50.384 46.8927 50.592C47.2847 50.792 47.5967 51.044 47.8287 51.348V50.388H49.2087V57H47.8287V56.016C47.5967 56.328 47.2807 56.588 46.8807 56.796C46.4807 57.004 46.0247 57.108 45.5127 57.108C44.9447 57.108 44.4247 56.964 43.9527 56.676C43.4807 56.38 43.1047 55.972 42.8247 55.452C42.5527 54.924 42.4167 54.328 42.4167 53.664ZM47.8287 53.688C47.8287 53.232 47.7327 52.836 47.5407 52.5C47.3567 52.164 47.1127 51.908 46.8087 51.732C46.5047 51.556 46.1767 51.468 45.8247 51.468C45.4727 51.468 45.1447 51.556 44.8407 51.732C44.5367 51.9 44.2887 52.152 44.0967 52.488C43.9127 52.816 43.8207 53.208 43.8207 53.664C43.8207 54.12 43.9127 54.52 44.0967 54.864C44.2887 55.208 44.5367 55.472 44.8407 55.656C45.1527 55.832 45.4807 55.92 45.8247 55.92C46.1767 55.92 46.5047 55.832 46.8087 55.656C47.1127 55.48 47.3567 55.224 47.5407 54.888C47.7327 54.544 47.8287 54.144 47.8287 53.688ZM54.3415 50.28C54.8615 50.28 55.3255 50.388 55.7335 50.604C56.1495 50.82 56.4735 51.14 56.7055 51.564C56.9375 51.988 57.0535 52.5 57.0535 53.1V57H55.6975V53.304C55.6975 52.712 55.5495 52.26 55.2535 51.948C54.9575 51.628 54.5535 51.468 54.0415 51.468C53.5295 51.468 53.1215 51.628 52.8175 51.948C52.5215 52.26 52.3735 52.712 52.3735 53.304V57H51.0055V50.388H52.3735V51.144C52.5975 50.872 52.8815 50.66 53.2255 50.508C53.5775 50.356 53.9495 50.28 54.3415 50.28Z" fill="black"/>
<defs>
<linearGradient id="paint0_linear_134_18844" x1="16.7906" y1="15.1099" x2="31.0577" y2="15.1099" gradientUnits="userSpaceOnUse">
<stop stop-color="#F23920"/>
<stop offset="1" stop-color="#D62300"/>
</linearGradient>
<clipPath id="clip0_134_18844">
<rect width="43.4314" height="32" fill="white" transform="translate(16.285 4)"/>
</clipPath>
</defs>
</svg>
